Merriweather-HeadingBlack.ufo
<glyph name="exclam" format="2">
  <advance width="535.2727272727273"/>
  <unicode hex="0021"/>
  <outline>
    <contour>
      <point x="452.0" y="1780.0" type="line"/>
      <point x="78.18181818181819" y="1780.0" type="line"/>
      <point x="213.72727272727275" y="477.8181818181818" type="line"/>
      <point x="317.0909090909091" y="477.8181818181818" type="line"/>
    </contour>
    <contour>
      <point x="94.09090909090908" y="140.72727272727272" type="curve" smooth="yes"/>
      <point x="94.09090909090908" y="48.45454545454545"/>
      <point x="169.8181818181818" y="-16.0"/>
      <point x="252.0" y="-16.0" type="curve" smooth="yes"/>
      <point x="366.0" y="-16.0"/>
      <point x="444.36363636363643" y="45.81818181818181"/>
      <point x="444.36363636363643" y="154.45454545454547" type="curve" smooth="yes"/>
      <point x="444.36363636363643" y="235.0"/>
      <point x="385.72727272727275" y="311.5454545454545"/>
      <point x="280.72727272727275" y="311.5454545454545" type="curve" smooth="yes"/>
      <point x="177.0909090909091" y="311.5454545454545"/>
      <point x="94.09090909090908" y="242.36363636363635"/>
    </contour>
  </outline>
</glyph>
<glyph name="quotedbl" format="2">
  <advance width="1169.7272727272725"/>
  <unicode hex="0022"/>
  <outline>
    <contour>
      <point x="478.09090909090907" y="1682.0" type="line"/>
      <point x="203.45454545454544" y="1682.0" type="line"/>
      <point x="289.3636363636363" y="905.1818181818181" type="line"/>
      <point x="390.1818181818182" y="905.1818181818181" type="line"/>
    </contour>
    <contour>
      <point x="969.1818181818181" y="1682.0" type="line"/>
      <point x="694.5454545454545" y="1682.0" type="line"/>
      <point x="780.4545454545454" y="905.1818181818181" type="line"/>
      <point x="881.2727272727273" y="905.1818181818181" type="line"/>
    </contour>
  </outline>
</glyph>
<glyph name="numbersign" format="2">
  <advance width="1371.4545454545455"/>
  <unicode hex="0023"/>
  <outline>
    <contour>
      <point x="365.54545454545456" y="413.0" type="line"/>
      <point x="301.54545454545456" y="0.0" type="line"/>
      <point x="387.72727272727275" y="0.0" type="line"/>
      <point x="452.72727272727275" y="413.0" type="line"/>
      <point x="797.7272727272727" y="413.0" type="line"/>
      <point x="734.7272727272727" y="0.0" type="line"/>
      <point x="820.9090909090909" y="0.0" type="line"/>
      <point x="883.9090909090909" y="413.0" type="line"/>
      <point x="1151.909090909091" y="413.0" type="line"/>
      <point x="1179.909090909091" y="616.0" type="line"/>
      <point x="915.9090909090909" y="616.0" type="line"/>
      <point x="965.9090909090909" y="907.0" type="line"/>
      <point x="1219.909090909091" y="907.0" type="line"/>
      <point x="1247.909090909091" y="1108.0" type="line"/>
      <point x="994.9090909090909" y="1108.0" type="line"/>
      <point x="1064.909090909091" y="1539.0" type="line"/>
      <point x="977.7272727272727" y="1539.0" type="line"/>
      <point x="907.7272727272727" y="1108.0" type="line"/>
      <point x="563.7272727272727" y="1108.0" type="line"/>
      <point x="631.7272727272727" y="1539.0" type="line"/>
      <point x="545.5454545454545" y="1539.0" type="line"/>
      <point x="477.54545454545456" y="1108.0" type="line"/>
      <point x="218.54545454545453" y="1108.0" type="line"/>
      <point x="190.54545454545453" y="907.0" type="line"/>
      <point x="446.54545454545456" y="907.0" type="line"/>
      <point x="399.54545454545456" y="616.0" type="line"/>
      <point x="151.54545454545453" y="616.0" type="line"/>
      <point x="123.54545454545455" y="413.0" type="line"/>
    </contour>
    <contour>
      <point x="829.7272727272727" y="616.0" type="line"/>
      <point x="484.72727272727275" y="616.0" type="line"/>
      <point x="533.7272727272727" y="907.0" type="line"/>
      <point x="878.7272727272727" y="907.0" type="line"/>
    </contour>
  </outline>
</glyph>
<glyph name="dollar" format="2">
  <advance width="1338.818181818182"/>
  <unicode hex="0024"/>
  <outline>
    <contour>
      <point x="156.6363636363636" y="65.0" type="line"/>
      <point x="219.36363636363637" y="56.72727272727273"/>
      <point x="389.1818181818182" y="-14.363636363636363"/>
      <point x="614.2727272727274" y="-23.81818181818182" type="curve"/>
      <point x="613.5454545454546" y="-257.09090909090907" type="line"/>
      <point x="741.4545454545454" y="-257.09090909090907" type="line"/>
      <point x="742.1818181818181" y="-19.81818181818182" type="line"/>
      <point x="1045.7272727272727" y="17.818181818181817"/>
      <point x="1206.0" y="194.45454545454544"/>
      <point x="1206.0" y="422.54545454545456" type="curve" smooth="yes"/>
      <point x="1206.0" y="665.5454545454546"/>
      <point x="1014.181818181818" y="772.7272727272726"/>
      <point x="826.9999999999999" y="877.0" type="curve" smooth="yes"/>
      <point x="646.3636363636364" y="976.6363636363637"/>
      <point x="521.0" y="1062.0"/>
      <point x="521.0" y="1207.5454545454545" type="curve" smooth="yes"/>
      <point x="521.0" y="1321.5454545454545"/>
      <point x="580.2727272727273" y="1419.4545454545455"/>
      <point x="710.0" y="1419.4545454545453" type="curve" smooth="yes"/>
      <point x="770.0909090909092" y="1419.4545454545455"/>
      <point x="829.8181818181819" y="1399.5454545454543"/>
      <point x="875.0" y="1366.4545454545453" type="curve"/>
      <point x="922.1818181818181" y="1093.6363636363637" type="line"/>
      <point x="1104.0000000000002" y="1093.6363636363637" type="line"/>
      <point x="1122.3636363636365" y="1432.0" type="line"/>
      <point x="1066.0" y="1440.6363636363637"/>
      <point x="886.7272727272727" y="1499.2727272727273"/>
      <point x="745.4545454545454" y="1503.2727272727273" type="curve"/>
      <point x="745.4545454545454" y="1731.4545454545455" type="line"/>
      <point x="616.8181818181819" y="1731.4545454545455" type="line"/>
      <point x="616.8181818181819" y="1502.5454545454547" type="line"/>
      <point x="332.6363636363636" y="1475.2727272727275"/>
      <point x="171.0" y="1319.090909090909"/>
      <point x="171.0" y="1096.0" type="curve" smooth="yes"/>
      <point x="171.0" y="826.6363636363636"/>
      <point x="375.6363636363636" y="707.3636363636364"/>
      <point x="527.0000000000001" y="627.0" type="curve" smooth="yes"/>
      <point x="723.5454545454546" y="522.8181818181819"/>
      <point x="842.0" y="433.0"/>
      <point x="842.0" y="294.72727272727275" type="curve" smooth="yes"/>
      <point x="842.0" y="162.45454545454544"/>
      <point x="773.909090909091" y="66.0909090909091"/>
      <point x="623.1818181818181" y="66.0909090909091" type="curve" smooth="yes"/>
      <point x="541.2727272727273" y="66.0909090909091"/>
      <point x="474.3636363636363" y="90.72727272727272"/>
      <point x="420.6363636363637" y="134.09090909090907" type="curve"/>
      <point x="365.8181818181818" y="434.3636363636364" type="line"/>
      <point x="180.0" y="434.3636363636364" type="line"/>
    </contour>
  </outline>
</glyph>
<glyph name="percent" format="2">
  <advance width="2053.5454545454545"/>
  <unicode hex="0025"/>
  <outline>
    <contour>
      <point x="635.090909090909" y="0.0" type="line"/>
      <point x="764.3636363636364" y="0.0" type="line"/>
      <point x="1413.6363636363635" y="1502.0" type="line"/>
      <point x="1284.3636363636363" y="1502.0" type="line"/>
    </contour>
    <contour>
      <point x="473.0" y="624.0" type="curve" smooth="yes"/>
      <point x="704.3636363636364" y="624.0"/>
      <point x="894.9999999999999" y="779.6363636363636"/>
      <point x="894.9999999999999" y="1063.6363636363637" type="curve" smooth="yes"/>
      <point x="894.9999999999999" y="1303.9999999999998"/>
      <point x="793.7272727272727" y="1495.6363636363635"/>
      <point x="509.63636363636374" y="1495.6363636363635" type="curve" smooth="yes"/>
      <point x="272.99999999999994" y="1495.6363636363635"/>
      <point x="89.0" y="1335.6363636363635"/>
      <point x="89.0" y="1051.6363636363637" type="curve" smooth="yes"/>
      <point x="89.0" y="813.9090909090909"/>
      <point x="220.63636363636363" y="624.0"/>
    </contour>
    <contour>
      <point x="490.36363636363643" y="707.8181818181819" type="curve" smooth="yes"/>
      <point x="390.3636363636364" y="707.8181818181819"/>
      <point x="353.3636363636363" y="842.5454545454545"/>
      <point x="353.3636363636363" y="1064.2727272727273" type="curve" smooth="yes"/>
      <point x="353.3636363636363" y="1295.6363636363635"/>
      <point x="393.0909090909091" y="1412.3636363636363"/>
      <point x="497.6363636363637" y="1412.3636363636363" type="curve" smooth="yes"/>
      <point x="596.7272727272726" y="1412.3636363636363"/>
      <point x="631.9999999999999" y="1283.1818181818182"/>
      <point x="631.9999999999999" y="1055.6363636363637" type="curve" smooth="yes"/>
      <point x="631.9999999999999" y="824.5454545454545"/>
      <point x="594.0" y="707.8181818181819"/>
    </contour>
    <contour>
      <point x="1541.5454545454547" y="20.0" type="curve" smooth="yes"/>
      <point x="1773.5454545454545" y="20.0"/>
      <point x="1964.5454545454547" y="176.00000000000003"/>
      <point x="1964.5454545454547" y="460.0" type="curve" smooth="yes"/>
      <point x="1964.5454545454547" y="700.0"/>
      <point x="1862.5454545454547" y="892.0"/>
      <point x="1578.5454545454545" y="892.0" type="curve" smooth="yes"/>
      <point x="1341.5454545454545" y="892.0"/>
      <point x="1157.5454545454547" y="732.0"/>
      <point x="1157.5454545454547" y="448.0" type="curve" smooth="yes"/>
      <point x="1157.5454545454547" y="217.00000000000003"/>
      <point x="1289.5454545454543" y="20.0"/>
    </contour>
    <contour>
      <point x="1558.5454545454545" y="104.54545454545455" type="curve" smooth="yes"/>
      <point x="1458.909090909091" y="104.54545454545455"/>
      <point x="1421.5454545454545" y="238.9090909090909"/>
      <point x="1421.5454545454545" y="461.0" type="curve" smooth="yes"/>
      <point x="1421.5454545454545" y="692.0"/>
      <point x="1461.6363636363637" y="808.7272727272727"/>
      <point x="1566.5454545454547" y="808.7272727272727" type="curve" smooth="yes"/>
      <point x="1664.909090909091" y="808.7272727272727"/>
      <point x="1700.5454545454547" y="679.1818181818182"/>
      <point x="1700.5454545454547" y="452.0" type="curve" smooth="yes"/>
      <point x="1700.909090909091" y="221.63636363636363"/>
      <point x="1662.181818181818" y="104.54545454545455"/>
    </contour>
  </outline>
</glyph>
<glyph name="ampersand" format="2">
  <advance width="1544.090909090909"/>
  <unicode hex="0026"/>
  <outline>
    <contour>
      <point x="1522.090909090909" y="828.0" type="line"/>
      <point x="1071.181818181818" y="828.0" type="line"/>
      <point x="1071.181818181818" y="742.5454545454545" type="line"/>
      <point x="1205.7272727272727" y="708.4545454545454" type="line"/>
      <point x="1207.5454545454547" y="598.7272727272727"/>
      <point x="1190.4545454545453" y="451.27272727272725"/>
      <point x="1113.5454545454545" y="365.54545454545456" type="curve"/>
      <point x="1026.181818181818" y="448.72727272727275"/>
      <point x="912.6363636363636" y="586.6363636363637"/>
      <point x="754.0909090909091" y="797.9090909090909" type="curve"/>
      <point x="946.4545454545453" y="891.2727272727273"/>
      <point x="1096.090909090909" y="1000.1818181818182"/>
      <point x="1096.090909090909" y="1206.727272727273" type="curve" smooth="yes"/>
      <point x="1096.090909090909" y="1372.1818181818182"/>
      <point x="963.9090909090909" y="1505.0"/>
      <point x="694.9090909090909" y="1505.0" type="curve" smooth="yes"/>
      <point x="383.09090909090907" y="1505.0"/>
      <point x="220.72727272727275" y="1335.0"/>
      <point x="220.72727272727275" y="1133.090909090909" type="curve" smooth="yes"/>
      <point x="220.72727272727275" y="987.7272727272726"/>
      <point x="301.5454545454545" y="857.1818181818182"/>
      <point x="413.1818181818182" y="711.6363636363636" type="curve"/>
      <point x="201.0909090909091" y="653.3636363636364"/>
      <point x="59.81818181818183" y="520.3636363636364"/>
      <point x="59.81818181818183" y="348.72727272727275" type="curve" smooth="yes"/>
      <point x="59.81818181818183" y="127.45454545454544"/>
      <point x="237.27272727272728" y="-22.0"/>
      <point x="571.909090909091" y="-22.0" type="curve" smooth="yes"/>
      <point x="747.0" y="-22.0"/>
      <point x="870.7272727272727" y="26.818181818181817"/>
      <point x="944.9090909090909" y="93.45454545454545" type="curve"/>
      <point x="1037.2727272727273" y="18.81818181818182"/>
      <point x="1166.090909090909" y="-14.363636363636363"/>
      <point x="1277.0909090909092" y="-14.363636363636363" type="curve" smooth="yes"/>
      <point x="1345.909090909091" y="-14.363636363636363"/>
      <point x="1462.6363636363635" y="-0.5454545454545459"/>
      <point x="1483.1818181818182" y="19.0" type="curve"/>
      <point x="1483.1818181818182" y="92.18181818181819" type="line"/>
      <point x="1394.0909090909092" y="105.18181818181817"/>
      <point x="1237.6363636363635" y="242.90909090909088"/>
      <point x="1178.272727272727" y="306.2727272727273" type="curve"/>
      <point x="1274.3636363636363" y="367.45454545454544"/>
      <point x="1385.7272727272727" y="541.5454545454545"/>
      <point x="1390.0909090909092" y="708.4545454545454" type="curve"/>
      <point x="1522.090909090909" y="742.5454545454545" type="line"/>
    </contour>
    <contour>
      <point x="539.3636363636364" y="1208.6363636363637" type="curve" smooth="yes"/>
      <point x="539.3636363636364" y="1354.4545454545453"/>
      <point x="586.0909090909091" y="1428.818181818182"/>
      <point x="687.0909090909091" y="1428.818181818182" type="curve" smooth="yes"/>
      <point x="787.2727272727274" y="1428.818181818182"/>
      <point x="826.909090909091" y="1319.7272727272727"/>
      <point x="826.909090909091" y="1205.8181818181818" type="curve" smooth="yes"/>
      <point x="826.909090909091" y="1064.7272727272727"/>
      <point x="793.0" y="940.0909090909091"/>
      <point x="704.0" y="855.909090909091" type="curve"/>
      <point x="618.4545454545455" y="960.8181818181819"/>
      <point x="539.3636363636364" y="1092.2727272727273"/>
    </contour>
    <contour>
      <point x="689.7272727272727" y="108.81818181818181" type="curve" smooth="yes"/>
      <point x="486.72727272727275" y="108.81818181818181"/>
      <point x="367.3636363636364" y="234.45454545454547"/>
      <point x="367.3636363636364" y="410.3636363636364" type="curve" smooth="yes"/>
      <point x="367.3636363636364" y="517.2727272727273"/>
      <point x="410.5454545454545" y="599.6363636363636"/>
      <point x="460.81818181818176" y="645.1818181818181" type="curve"/>
      <point x="609.7272727272727" y="445.0"/>
      <point x="744.2727272727273" y="274.1818181818182"/>
      <point x="878.0" y="149.63636363636365" type="curve"/>
      <point x="831.1818181818181" y="124.0909090909091"/>
      <point x="758.2727272727273" y="108.81818181818181"/>
    </contour>
  </outline>
</glyph>
<glyph name="quotesingle" format="2">
  <advance width="681.5454545454545"/>
  <unicode hex="0027"/>
  <outline>
    <contour>
      <point x="478.09090909090907" y="1682.0" type="line"/>
      <point x="203.45454545454544" y="1682.0" type="line"/>
      <point x="289.3636363636363" y="905.1818181818181" type="line"/>
      <point x="390.18181818181813" y="905.1818181818181" type="line"/>
    </contour>
  </outline>
</glyph>
<glyph name="parenright" format="2">
  <advance width="876.2727272727273"/>
  <unicode hex="0029"/>
  <outline>
    <contour>
      <point x="781.5454545454546" y="620.7272727272727" type="curve" smooth="yes"/>
      <point x="781.5454545454546" y="1336.0"/>
      <point x="306.72727272727275" y="1614.1818181818182"/>
      <point x="195.72727272727272" y="1670.7272727272727" type="curve"/>
      <point x="130.54545454545456" y="1619.3636363636365" type="line"/>
      <point x="255.72727272727272" y="1524.909090909091"/>
      <point x="478.27272727272725" y="1206.4545454545455"/>
      <point x="463.2727272727273" y="593.7272727272727" type="curve"/>
      <point x="449.6363636363637" y="26.0"/>
      <point x="241.7272727272727" y="-249.0909090909091"/>
      <point x="128.54545454545456" y="-328.54545454545456" type="curve"/>
      <point x="193.1818181818182" y="-381.27272727272725" type="line"/>
      <point x="320.1818181818182" y="-309.8181818181818"/>
      <point x="781.5454545454546" y="9.454545454545453"/>
    </contour>
  </outline>
</glyph>
<glyph name="asterisk" format="2">
  <advance width="1067.9090909090908"/>
  <unicode hex="002A"/>
  <outline>
    <contour>
      <point x="235.36363636363637" y="1161.0" type="line"/>
      <point x="82.54545454545453" y="1088.1818181818182" type="line"/>
      <point x="187.0" y="910.0909090909091" type="line"/>
      <point x="325.8181818181818" y="1011.9090909090909" type="line"/>
      <point x="503.09090909090907" y="1184.6363636363637" type="line"/>
      <point x="450.0" y="944.9090909090909" type="line"/>
      <point x="435.6363636363636" y="773.2727272727273" type="line"/>
      <point x="645.3636363636364" y="773.2727272727273" type="line"/>
      <point x="626.2727272727273" y="946.8181818181818" type="line"/>
      <point x="563.3636363636364" y="1183.5454545454547" type="line"/>
      <point x="748.7272727272727" y="1017.4545454545454" type="line"/>
      <point x="884.7272727272727" y="919.6363636363636" type="line"/>
      <point x="990.6363636363636" y="1100.6363636363637" type="line"/>
      <point x="834.5454545454546" y="1170.2727272727273" type="line"/>
      <point x="593.7272727272727" y="1236.0" type="line"/>
      <point x="833.2727272727273" y="1309.6363636363637" type="line"/>
      <point x="985.0" y="1382.8181818181818" type="line"/>
      <point x="880.1818181818181" y="1560.5454545454547" type="line"/>
      <point x="739.9090909090909" y="1459.090909090909" type="line"/>
      <point x="563.3636363636364" y="1287.4545454545455" type="line"/>
      <point x="616.8181818181818" y="1526.090909090909" type="line"/>
      <point x="631.9090909090909" y="1697.0" type="line"/>
      <point x="421.4545454545455" y="1697.0" type="line"/>
      <point x="440.5454545454545" y="1522.3636363636365" type="line"/>
      <point x="503.0909090909092" y="1285.6363636363637" type="line"/>
      <point x="319.90909090909093" y="1452.4545454545455" type="line"/>
      <point x="180.63636363636365" y="1550.6363636363637" type="line"/>
      <point x="77.27272727272728" y="1372.1818181818182" type="line"/>
      <point x="234.0909090909091" y="1302.181818181818" type="line"/>
      <point x="472.72727272727275" y="1235.3636363636365" type="line"/>
    </contour>
  </outline>
</glyph>
<glyph name="comma" format="2">
  <advance width="589.4545454545455"/>
  <unicode hex="002C"/>
  <outline>
    <contour>
      <point x="291.1818181818182" y="333.1818181818182" type="curve"/>
      <point x="279.8181818181818" y="333.1818181818182" type="line" smooth="yes"/>
      <point x="186.27272727272728" y="333.1818181818182"/>
      <point x="125.81818181818181" y="277.00000000000006"/>
      <point x="125.81818181818181" y="188.09090909090907" type="curve" smooth="yes"/>
      <point x="125.81818181818181" y="41.90909090909091"/>
      <point x="277.6363636363636" y="45.09090909090909"/>
      <point x="277.6363636363636" y="-69.36363636363637" type="curve" smooth="yes"/>
      <point x="277.6363636363636" y="-185.27272727272728"/>
      <point x="220.72727272727275" y="-321.1818181818182"/>
      <point x="140.45454545454547" y="-399.09090909090907" type="curve"/>
      <point x="140.45454545454547" y="-416.1818181818182" type="line"/>
      <point x="196.0909090909091" y="-453.1818181818182" type="line"/>
      <point x="198.0909090909091" y="-452.54545454545456" type="line"/>
      <point x="331.27272727272725" y="-381.0"/>
      <point x="480.1818181818182" y="-164.45454545454547"/>
      <point x="480.1818181818182" y="73.09090909090908" type="curve" smooth="yes"/>
      <point x="480.1818181818182" y="220.1818181818182"/>
      <point x="395.1818181818182" y="333.1818181818182"/>
    </contour>
  </outline>
</glyph>
<glyph name="hyphen" format="2">
  <advance width="1085.909090909091"/>
  <unicode hex="002D"/>
  <outline>
    <contour>
      <point x="922.4545454545454" y="658.0" type="line"/>
      <point x="163.45454545454547" y="658.0" type="line"/>
      <point x="163.45454545454547" y="526.1818181818182" type="line"/>
      <point x="922.4545454545454" y="526.1818181818182" type="line"/>
    </contour>
  </outline>
</glyph>
<glyph name="period" format="2">
  <advance width="543.0"/>
  <unicode hex="002E"/>
  <outline>
    <contour>
      <point x="254.8181818181818" y="-16.0" type="curve" smooth="yes"/>
      <point x="368.4545454545455" y="-16.0"/>
      <point x="446.8181818181818" y="46.18181818181819"/>
      <point x="446.8181818181818" y="154.8181818181818" type="curve" smooth="yes"/>
      <point x="446.8181818181818" y="235.72727272727272"/>
      <point x="388.1818181818182" y="312.6363636363637"/>
      <point x="283.54545454545456" y="312.6363636363637" type="curve" smooth="yes"/>
      <point x="179.9090909090909" y="312.6363636363637"/>
      <point x="96.54545454545455" y="243.0909090909091"/>
      <point x="96.54545454545455" y="141.45454545454544" type="curve" smooth="yes"/>
      <point x="96.54545454545455" y="49.18181818181818"/>
      <point x="171.9090909090909" y="-16.0"/>
    </contour>
  </outline>
</glyph>
<glyph name="slash" format="2">
  <advance width="723.7272727272727"/>
  <unicode hex="002F"/>
  <outline>
    <contour>
      <point x="673.7272727272729" y="1562.0" type="line"/>
      <point x="532.5454545454546" y="1562.0" type="line"/>
      <point x="50.0" y="-354.0" type="line"/>
      <point x="193.1818181818182" y="-354.0" type="line"/>
    </contour>
  </outline>
</glyph>
<glyph name="zero" format="2">
  <advance width="1333.8181818181818"/>
  <unicode hex="0030"/>
  <outline>
    <contour>
      <point x="637.2727272727273" y="-21.0" type="curve" smooth="yes"/>
      <point x="1032.0" y="-21.0"/>
      <point x="1261.6363636363637" y="249.1818181818182"/>
      <point x="1261.6363636363637" y="779.0" type="curve" smooth="yes"/>
      <point x="1261.6363636363637" y="1265.5454545454545"/>
      <point x="1047.3636363636365" y="1505.0"/>
      <point x="696.909090909091" y="1505.0" type="curve" smooth="yes"/>
      <point x="322.0" y="1505.0"/>
      <point x="73.18181818181817" y="1237.5454545454545"/>
      <point x="72.18181818181817" y="704.7272727272727" type="curve" smooth="yes"/>
      <point x="71.18181818181819" y="226.63636363636365"/>
      <point x="278.3636363636364" y="-21.0"/>
    </contour>
    <contour>
      <point x="669.9090909090909" y="63.27272727272729" type="curve" smooth="yes"/>
      <point x="538.9090909090908" y="63.27272727272729"/>
      <point x="467.0" y="210.0909090909091"/>
      <point x="467.0" y="730.7272727272727" type="curve" smooth="yes"/>
      <point x="467.0" y="1285.0909090909092"/>
      <point x="546.1818181818182" y="1418.2727272727275"/>
      <point x="666.2727272727273" y="1418.2727272727275" type="curve" smooth="yes"/>
      <point x="792.9090909090909" y="1418.2727272727275"/>
      <point x="866.8181818181818" y="1308.4545454545455"/>
      <point x="866.8181818181818" y="734.7272727272727" type="curve" smooth="yes"/>
      <point x="866.8181818181818" y="226.0"/>
      <point x="811.909090909091" y="63.27272727272729"/>
    </contour>
  </outline>
</glyph>
<glyph name="one" format="2">
  <advance width="910.7272727272726"/>
  <unicode hex="0031"/>
  <outline>
    <contour>
      <point x="300.3636363636364" y="101.0909090909091" type="line"/>
      <point x="79.45454545454545" y="71.45454545454547" type="line"/>
      <point x="79.45454545454545" y="0.0" type="line"/>
      <point x="882.8181818181818" y="0.0" type="line"/>
      <point x="882.8181818181818" y="71.45454545454547" type="line"/>
      <point x="670.090909090909" y="101.81818181818181" type="line"/>
      <point x="670.090909090909" y="1486.0" type="line"/>
      <point x="488.3636363636364" y="1506.0" type="line"/>
      <point x="477.45454545454544" y="1506.0" type="line"/>
      <point x="391.0909090909091" y="1417.0909090909092"/>
      <point x="226.8181818181818" y="1303.8181818181818"/>
      <point x="33.9090909090909" y="1267.4545454545455" type="curve"/>
      <point x="51.81818181818182" y="1173.909090909091" type="line"/>
      <point x="119.45454545454542" y="1174.818181818182"/>
      <point x="258.1818181818182" y="1202.3636363636365"/>
      <point x="301.0" y="1217.6363636363635" type="curve"/>
    </contour>
  </outline>
</glyph>
<glyph name="two" format="2">
  <advance width="1168.0"/>
  <unicode hex="0032"/>
  <outline>
    <contour>
      <point x="4.72727272727273" y="143.0" type="curve"/>
      <point x="66.72727272727272" y="0.0" type="line"/>
      <point x="1041.6363636363635" y="0.0" type="line"/>
      <point x="1120.4545454545453" y="415.2727272727273" type="line"/>
      <point x="1029.5454545454545" y="440.7272727272727" type="line"/>
      <point x="947.090909090909" y="292.90909090909093" type="line"/>
      <point x="240.9090909090909" y="201.45454545454547" type="line"/>
      <point x="663.8181818181818" y="412.00000000000006"/>
      <point x="1034.6363636363635" y="742.5454545454545"/>
      <point x="1034.6363636363635" y="1084.6363636363635" type="curve" smooth="yes"/>
      <point x="1034.6363636363635" y="1351.0"/>
      <point x="821.3636363636364" y="1504.0"/>
      <point x="560.3636363636364" y="1504.0" type="curve" smooth="yes"/>
      <point x="279.0909090909091" y="1504.0"/>
      <point x="119.45454545454544" y="1344.0000000000002"/>
      <point x="36.45454545454545" y="1237.818181818182" type="curve"/>
      <point x="95.90909090909089" y="1162.4545454545455" type="line"/>
      <point x="178.45454545454544" y="1242.9090909090908"/>
      <point x="293.0" y="1313.0"/>
      <point x="424.00000000000006" y="1313.0" type="curve" smooth="yes"/>
      <point x="567.6363636363637" y="1313.0"/>
      <point x="650.3636363636363" y="1208.8181818181818"/>
      <point x="650.3636363636363" y="1015.0" type="curve" smooth="yes"/>
      <point x="650.3636363636363" y="688.3636363636364"/>
      <point x="354.81818181818176" y="341.27272727272725"/>
    </contour>
  </outline>
</glyph>
<glyph name="three" format="2">
  <advance width="1107.8181818181818"/>
  <unicode hex="0033"/>
  <outline>
    <contour>
      <point x="353.6363636363636" y="-32.18181818181818" type="curve" smooth="yes"/>
      <point x="726.9090909090909" y="-32.18181818181818"/>
      <point x="1037.818181818182" y="158.36363636363635"/>
      <point x="1037.4545454545455" y="448.0" type="curve" smooth="yes"/>
      <point x="1037.0909090909092" y="691.6363636363636"/>
      <point x="805.8181818181818" y="814.6363636363635"/>
      <point x="483.9090909090909" y="758.1818181818182" type="curve"/>
      <point x="737.0" y="821.1818181818182"/>
      <point x="957.9090909090909" y="970.4545454545454"/>
      <point x="957.9090909090909" y="1195.3636363636363" type="curve" smooth="yes"/>
      <point x="957.9090909090909" y="1406.0"/>
      <point x="761.2727272727274" y="1503.6363636363637"/>
      <point x="534.5454545454545" y="1503.6363636363637" type="curve" smooth="yes"/>
      <point x="325.81818181818187" y="1503.6363636363637"/>
      <point x="140.0909090909091" y="1414.0909090909092"/>
      <point x="30.181818181818183" y="1307.4545454545455" type="curve"/>
      <point x="88.18181818181819" y="1222.818181818182" type="line"/>
      <point x="161.0909090909091" y="1276.7272727272727"/>
      <point x="249.5454545454545" y="1334.5454545454545"/>
      <point x="388.09090909090907" y="1334.5454545454545" type="curve" smooth="yes"/>
      <point x="486.3636363636364" y="1334.5454545454547"/>
      <point x="580.6363636363636" y="1280.181818181818"/>
      <point x="580.6363636363636" y="1133.090909090909" type="curve" smooth="yes"/>
      <point x="580.6363636363636" y="999.1818181818181"/>
      <point x="495.90909090909093" y="885.1818181818182"/>
      <point x="368.72727272727275" y="827.7272727272727" type="curve" smooth="yes"/>
      <point x="326.09090909090907" y="808.2727272727273"/>
      <point x="266.54545454545456" y="786.3636363636364"/>
      <point x="218.18181818181816" y="776.7272727272727" type="curve"/>
      <point x="239.6363636363636" y="678.0909090909091" type="line"/>
      <point x="271.90909090909093" y="686.3636363636363"/>
      <point x="335.45454545454544" y="706.0909090909092"/>
      <point x="371.54545454545456" y="715.3636363636365" type="curve"/>
      <point x="541.8181818181818" y="712.0909090909091"/>
      <point x="640.1818181818181" y="604.6363636363636"/>
      <point x="640.1818181818181" y="433.8181818181818" type="curve" smooth="yes"/>
      <point x="640.1818181818181" y="238.90909090909093"/>
      <point x="511.54545454545445" y="90.63636363636364"/>
      <point x="274.8181818181818" y="90.63636363636364" type="curve" smooth="yes"/>
      <point x="193.90909090909088" y="90.63636363636364"/>
      <point x="121.54545454545453" y="99.36363636363637"/>
      <point x="47.09090909090909" y="127.54545454545452" type="curve"/>
      <point x="38.18181818181819" y="23.90909090909091" type="line"/>
      <point x="97.45454545454545" y="-4.363636363636365"/>
      <point x="230.45454545454547" y="-32.18181818181819"/>
    </contour>
  </outline>
</glyph>
<glyph name="four" format="2">
  <advance width="1271.4545454545457"/>
  <unicode hex="0034"/>
  <outline>
    <contour>
      <point x="712.9090909090909" y="0.0" type="line"/>
      <point x="1048.0" y="0.0" type="line"/>
      <point x="1048.0" y="286.4545454545455" type="line"/>
      <point x="1233.090909090909" y="286.4545454545455" type="line"/>
      <point x="1233.090909090909" y="472.6363636363636" type="line"/>
      <point x="1047.3636363636363" y="461.1818181818182" type="line"/>
      <point x="1047.3636363636363" y="861.1818181818182" type="line"/>
      <point x="740.3636363636364" y="833.0" type="line"/>
      <point x="714.9090909090909" y="428.8181818181818" type="line"/>
      <point x="285.3636363636364" y="385.72727272727275" type="line"/>
      <point x="399.3636363636364" y="539.8181818181819" type="line"/>
      <point x="893.4545454545454" y="1353.0" type="line"/>
      <point x="610.8181818181818" y="1501.0" type="line"/>
      <point x="516.1818181818182" y="1501.0" type="line"/>
      <point x="402.81818181818176" y="1206.090909090909"/>
      <point x="189.72727272727272" y="729.8181818181819"/>
      <point x="36.727272727272734" y="430.3636363636364" type="curve"/>
      <point x="111.0909090909091" y="286.4545454545455" type="line"/>
      <point x="712.9090909090909" y="286.4545454545455" type="line"/>
    </contour>
  </outline>
</glyph>
<glyph name="five" format="2">
  <advance width="1133.0"/>
  <unicode hex="0035"/>
  <outline>
    <contour>
      <point x="79.36363636363639" y="90.81818181818181" type="curve"/>
      <point x="80.00000000000001" y="-2.4545454545454537" type="line"/>
      <point x="148.27272727272728" y="-28.09090909090909"/>
      <point x="267.0" y="-35.54545454545455"/>
      <point x="333.2727272727273" y="-33.63636363636364" type="curve" smooth="yes"/>
      <point x="725.6363636363636" y="-25.363636363636363"/>
      <point x="1060.8181818181818" y="188.72727272727275"/>
      <point x="1060.8181818181818" y="551.5454545454546" type="curve" smooth="yes"/>
      <point x="1060.8181818181818" y="805.0"/>
      <point x="907.0909090909091" y="938.2727272727273"/>
      <point x="640.3636363636364" y="938.2727272727273" type="curve" smooth="yes"/>
      <point x="470.0909090909091" y="938.2727272727273"/>
      <point x="298.81818181818187" y="853.5454545454545"/>
      <point x="212.90909090909093" y="770.8181818181819" type="curve"/>
      <point x="329.0909090909091" y="1211.6363636363635" type="line"/>
      <point x="966.8181818181818" y="1211.6363636363635" type="line"/>
      <point x="1012.1818181818181" y="1524.0" type="line"/>
      <point x="906.2727272727273" y="1524.0" type="line"/>
      <point x="881.1818181818182" y="1486.0" type="line"/>
      <point x="178.1818181818182" y="1486.0" type="line"/>
      <point x="79.0" y="731.5454545454545" type="line"/>
      <point x="153.09090909090907" y="684.0" type="line"/>
      <point x="232.36363636363635" y="731.1818181818182"/>
      <point x="338.18181818181813" y="747.3636363636365"/>
      <point x="435.6363636363637" y="747.3636363636365" type="curve" smooth="yes"/>
      <point x="600.8181818181818" y="747.3636363636365"/>
      <point x="689.0000000000001" y="635.3636363636365"/>
      <point x="689.0000000000001" y="475.0" type="curve" smooth="yes"/>
      <point x="689.0000000000001" y="239.4545454545455"/>
      <point x="513.0" y="84.54545454545456"/>
      <point x="272.3636363636364" y="78.81818181818183" type="curve" smooth="yes"/>
      <point x="199.45454545454544" y="76.27272727272728"/>
      <point x="130.72727272727272" y="81.45454545454545"/>
    </contour>
  </outline>
</glyph>
<glyph name="six" format="2">
  <advance width="1266.8181818181818"/>
  <unicode hex="0036"/>
  <outline>
    <contour>
      <point x="638.1818181818182" y="-34.63636363636363" type="curve" smooth="yes"/>
      <point x="965.6363636363636" y="-34.63636363636363"/>
      <point x="1206.909090909091" y="155.36363636363635"/>
      <point x="1206.909090909091" y="500.9090909090909" type="curve" smooth="yes"/>
      <point x="1206.909090909091" y="795.8181818181819"/>
      <point x="1026.6363636363635" y="945.8181818181819"/>
      <point x="799.7272727272726" y="945.8181818181819" type="curve" smooth="yes"/>
      <point x="662.3636363636364" y="945.8181818181819"/>
      <point x="543.2727272727274" y="887.6363636363636"/>
      <point x="469.9090909090909" y="785.4545454545455" type="curve"/>
      <point x="517.1818181818182" y="1058.5454545454545"/>
      <point x="650.1818181818182" y="1350.9999999999998"/>
      <point x="992.8181818181819" y="1437.0" type="curve"/>
      <point x="950.3636363636363" y="1518.818181818182" type="line"/>
      <point x="474.2727272727273" y="1490.6363636363637"/>
      <point x="72.81818181818181" y="1086.9090909090908"/>
      <point x="72.81818181818181" y="588.090909090909" type="curve" smooth="yes"/>
      <point x="72.81818181818181" y="223.45454545454547"/>
      <point x="273.3636363636363" y="-34.63636363636364"/>
    </contour>
    <contour>
      <point x="646.1818181818182" y="784.9090909090909" type="curve" smooth="yes"/>
      <point x="777.090909090909" y="784.9090909090909"/>
      <point x="829.7272727272727" y="627.5454545454546"/>
      <point x="829.7272727272727" y="409.72727272727275" type="curve" smooth="yes"/>
      <point x="829.7272727272727" y="202.36363636363637"/>
      <point x="777.3636363636364" y="55.45454545454545"/>
      <point x="643.1818181818181" y="55.45454545454545" type="curve" smooth="yes"/>
      <point x="513.6363636363636" y="55.45454545454545"/>
      <point x="450.2727272727273" y="197.72727272727272"/>
      <point x="450.2727272727273" y="518.0000000000001" type="curve" smooth="yes"/>
      <point x="450.2727272727273" y="591.5454545454546"/>
      <point x="454.2727272727273" y="648.3636363636363"/>
      <point x="458.2727272727273" y="692.2727272727273" type="curve"/>
      <point x="491.72727272727275" y="730.3636363636363"/>
      <point x="556.909090909091" y="784.9090909090909"/>
    </contour>
  </outline>
</glyph>
<glyph name="seven" format="2">
  <advance width="1151.9090909090908"/>
  <unicode hex="0037"/>
  <outline>
    <contour>
      <point x="663.4545454545455" y="0.0" type="line"/>
      <point x="1131.3636363636363" y="1425.909090909091" type="line"/>
      <point x="1078.3636363636363" y="1486.0" type="line"/>
      <point x="111.9090909090909" y="1486.0" type="line"/>
      <point x="49.636363636363626" y="1006.2727272727273" type="line"/>
      <point x="164.9090909090909" y="982.2727272727273" type="line"/>
      <point x="260.36363636363643" y="1218.7272727272727" type="line"/>
      <point x="928.4545454545454" y="1223.818181818182" type="line"/>
      <point x="736.7272727272727" y="861.0909090909091"/>
      <point x="524.1818181818182" y="459.3636363636363"/>
      <point x="255.63636363636368" y="0.0" type="curve"/>
    </contour>
  </outline>
</glyph>
<glyph name="eight" format="2">
  <advance width="1279.7272727272727"/>
  <unicode hex="0038"/>
  <outline>
    <contour>
      <point x="70.27272727272728" y="356.45454545454544" type="curve" smooth="yes"/>
      <point x="70.27272727272728" y="92.09090909090908"/>
      <point x="335.45454545454544" y="-22.0"/>
      <point x="629.0" y="-22.0" type="curve" smooth="yes"/>
      <point x="960.2727272727274" y="-22.0"/>
      <point x="1209.4545454545455" y="140.72727272727275"/>
      <point x="1209.4545454545455" y="410.99999999999994" type="curve" smooth="yes"/>
      <point x="1209.4545454545455" y="630.1818181818181"/>
      <point x="1052.4545454545455" y="733.1818181818182"/>
      <point x="835.8181818181819" y="848.4545454545454" type="curve"/>
      <point x="1019.1818181818182" y="910.5454545454545"/>
      <point x="1132.8181818181818" y="1021.0909090909089"/>
      <point x="1132.8181818181818" y="1177.818181818182" type="curve" smooth="yes"/>
      <point x="1132.8181818181818" y="1390.1818181818182"/>
      <point x="935.8181818181819" y="1506.0"/>
      <point x="659.5454545454546" y="1506.0" type="curve" smooth="yes"/>
      <point x="378.6363636363636" y="1506.0"/>
      <point x="132.63636363636363" y="1365.3636363636363"/>
      <point x="132.63636363636363" y="1102.0" type="curve" smooth="yes"/>
      <point x="132.63636363636363" y="947.6363636363636"/>
      <point x="229.63636363636363" y="796.5454545454546"/>
      <point x="395.1818181818182" y="699.0909090909091" type="curve"/>
      <point x="200.54545454545456" y="646.8181818181818"/>
      <point x="70.27272727272728" y="515.0"/>
    </contour>
    <contour>
      <point x="444.6363636363636" y="1211.6363636363637" type="curve" smooth="yes"/>
      <point x="444.6363636363636" y="1347.181818181818"/>
      <point x="543.3636363636364" y="1422.0000000000002"/>
      <point x="658.2727272727274" y="1422.0000000000002" type="curve" smooth="yes"/>
      <point x="805.9999999999999" y="1422.0000000000002"/>
      <point x="871.909090909091" y="1312.2727272727273"/>
      <point x="871.909090909091" y="1159.909090909091" type="curve" smooth="yes"/>
      <point x="871.909090909091" y="1050.818181818182"/>
      <point x="830.0" y="945.0"/>
      <point x="760.090909090909" y="889.4545454545454" type="curve"/>
      <point x="595.1818181818181" y="975.4545454545456"/>
      <point x="444.6363636363636" y="1047.6363636363635"/>
    </contour>
    <contour>
      <point x="867.5454545454545" y="284.90909090909093" type="curve" smooth="yes"/>
      <point x="867.5454545454545" y="144.45454545454547"/>
      <point x="758.5454545454546" y="64.27272727272727"/>
      <point x="633.7272727272727" y="64.27272727272727" type="curve" smooth="yes"/>
      <point x="454.5454545454545" y="64.27272727272727"/>
      <point x="353.36363636363643" y="207.54545454545453"/>
      <point x="353.36363636363643" y="394.9090909090909" type="curve" smooth="yes"/>
      <point x="353.36363636363643" y="521.7272727272727"/>
      <point x="399.90909090909093" y="603.4545454545454"/>
      <point x="467.7272727272727" y="655.5454545454545" type="curve"/>
      <point x="679.090909090909" y="554.8181818181818"/>
      <point x="867.5454545454545" y="470.90909090909093"/>
    </contour>
  </outline>
</glyph>
<glyph name="nine" format="2">
  <advance width="1270.6363636363635"/>
  <unicode hex="0039"/>
  <outline>
    <contour>
      <point x="631.0909090909091" y="1506.0" type="curve" smooth="yes"/>
      <point x="300.3636363636364" y="1505.3636363636365"/>
      <point x="59.90909090909091" y="1298.4545454545453"/>
      <point x="59.90909090909091" y="968.3636363636364" type="curve" smooth="yes"/>
      <point x="59.90909090909091" y="654.8181818181819"/>
      <point x="266.3636363636364" y="493.5454545454545"/>
      <point x="490.54545454545456" y="493.5454545454545" type="curve" smooth="yes"/>
      <point x="624.0" y="493.5454545454545"/>
      <point x="740.5454545454546" y="549.4545454545455"/>
      <point x="794.7272727272727" y="656.7272727272726" type="curve"/>
      <point x="750.3636363636364" y="390.8181818181818"/>
      <point x="618.6363636363637" y="105.36363636363637"/>
      <point x="282.6363636363637" y="15.090909090909093" type="curve"/>
      <point x="323.09090909090907" y="-65.45454545454545" type="line"/>
      <point x="798.7272727272727" y="-37.63636363636364"/>
      <point x="1197.818181818182" y="368.72727272727275"/>
      <point x="1197.818181818182" y="870.0909090909091" type="curve" smooth="yes"/>
      <point x="1197.818181818182" y="1247.8181818181818"/>
      <point x="998.909090909091" y="1506.6363636363637"/>
    </contour>
    <contour>
      <point x="615.7272727272727" y="657.0909090909091" type="curve" smooth="yes"/>
      <point x="482.3636363636364" y="657.0909090909091"/>
      <point x="436.3636363636364" y="819.7272727272726"/>
      <point x="436.3636363636364" y="1044.818181818182" type="curve" smooth="yes"/>
      <point x="436.3636363636364" y="1250.7272727272725"/>
      <point x="487.1818181818182" y="1417.1818181818182"/>
      <point x="622.0" y="1416.5454545454547" type="curve" smooth="yes"/>
      <point x="755.7272727272726" y="1415.909090909091"/>
      <point x="816.4545454545456" y="1253.818181818182"/>
      <point x="816.4545454545455" y="934.8181818181819" type="curve" smooth="yes"/>
      <point x="816.4545454545455" y="853.909090909091"/>
      <point x="811.7272727272729" y="797.909090909091"/>
      <point x="807.0909090909092" y="751.7272727272726" type="curve"/>
      <point x="761.6363636363636" y="695.8181818181818"/>
      <point x="686.2727272727274" y="657.0909090909091"/>
    </contour>
  </outline>
</glyph>
<glyph name="colon" format="2">
  <advance width="621.8181818181819"/>
  <unicode hex="003A"/>
  <outline>
    <contour>
      <point x="293.54545454545456" y="741.8181818181818" type="curve" smooth="yes"/>
      <point x="407.54545454545456" y="741.8181818181818"/>
      <point x="485.54545454545456" y="804.0"/>
      <point x="485.54545454545456" y="912.6363636363636" type="curve" smooth="yes"/>
      <point x="485.54545454545456" y="993.5454545454546"/>
      <point x="427.2727272727273" y="1070.4545454545453"/>
      <point x="322.2727272727273" y="1070.4545454545453" type="curve" smooth="yes"/>
      <point x="218.63636363636363" y="1070.4545454545453"/>
      <point x="135.27272727272728" y="1000.9090909090909"/>
      <point x="135.27272727272728" y="898.9090909090909" type="curve" smooth="yes"/>
      <point x="135.27272727272728" y="807.0"/>
      <point x="210.63636363636363" y="741.8181818181818"/>
    </contour>
    <contour>
      <point x="294.1818181818182" y="-16.0" type="curve" smooth="yes"/>
      <point x="408.1818181818182" y="-16.0"/>
      <point x="486.1818181818182" y="46.18181818181819"/>
      <point x="486.1818181818182" y="154.8181818181818" type="curve" smooth="yes"/>
      <point x="486.1818181818182" y="235.72727272727272"/>
      <point x="427.90909090909093" y="312.6363636363637"/>
      <point x="322.90909090909093" y="312.6363636363637" type="curve" smooth="yes"/>
      <point x="219.27272727272725" y="312.6363636363637"/>
      <point x="135.9090909090909" y="243.0909090909091"/>
      <point x="135.9090909090909" y="141.45454545454544" type="curve" smooth="yes"/>
      <point x="135.9090909090909" y="49.18181818181818"/>
      <point x="211.27272727272725" y="-16.0"/>
    </contour>
  </outline>
</glyph>
<glyph name="semicolon" format="2">
  <advance width="583.090909090909"/>
  <unicode hex="003B"/>
  <outline>
    <contour>
      <point x="283.1818181818182" y="741.8181818181818" type="curve" smooth="yes"/>
      <point x="396.81818181818176" y="741.8181818181818"/>
      <point x="475.1818181818182" y="804.0"/>
      <point x="475.1818181818182" y="912.6363636363636" type="curve" smooth="yes"/>
      <point x="475.1818181818182" y="993.5454545454546"/>
      <point x="416.90909090909093" y="1070.4545454545453"/>
      <point x="311.9090909090909" y="1070.4545454545453" type="curve" smooth="yes"/>
      <point x="208.27272727272725" y="1070.4545454545453"/>
      <point x="124.90909090909089" y="1000.9090909090909"/>
      <point x="124.90909090909089" y="898.9090909090909" type="curve" smooth="yes"/>
      <point x="124.90909090909089" y="807.0"/>
      <point x="200.27272727272728" y="741.8181818181818"/>
    </contour>
    <contour>
      <point x="302.6363636363636" y="333.1818181818182" type="curve"/>
      <point x="291.2727272727273" y="333.1818181818182" type="line" smooth="yes"/>
      <point x="197.72727272727272" y="333.1818181818182"/>
      <point x="137.27272727272728" y="277.00000000000006"/>
      <point x="137.27272727272728" y="188.09090909090907" type="curve" smooth="yes"/>
      <point x="137.27272727272728" y="41.90909090909091"/>
      <point x="289.09090909090907" y="45.09090909090909"/>
      <point x="289.09090909090907" y="-69.36363636363637" type="curve" smooth="yes"/>
      <point x="289.09090909090907" y="-185.27272727272728"/>
      <point x="232.1818181818182" y="-321.1818181818182"/>
      <point x="151.9090909090909" y="-399.09090909090907" type="curve"/>
      <point x="151.9090909090909" y="-416.1818181818182" type="line"/>
      <point x="207.54545454545456" y="-453.1818181818182" type="line"/>
      <point x="209.54545454545456" y="-452.54545454545456" type="line"/>
      <point x="342.7272727272727" y="-381.0"/>
      <point x="491.6363636363636" y="-164.45454545454547"/>
      <point x="491.6363636363636" y="73.09090909090908" type="curve" smooth="yes"/>
      <point x="491.6363636363636" y="220.1818181818182"/>
      <point x="406.6363636363636" y="333.1818181818182"/>
    </contour>
  </outline>
</glyph>
<glyph name="less" format="2">
  <advance width="1325.2727272727273"/>
  <unicode hex="003C"/>
  <outline>
    <contour>
      <point x="1103.6363636363637" y="1073.1818181818182" type="line"/>
      <point x="157.63636363636363" y="607.1818181818181" type="line"/>
      <point x="157.63636363636363" y="516.9090909090909" type="line"/>
      <point x="1103.6363636363637" y="54.81818181818182" type="line"/>
      <point x="1103.6363636363637" y="197.63636363636365" type="line"/>
      <point x="334.3636363636364" y="562.7272727272727" type="line"/>
      <point x="1103.6363636363637" y="929.4545454545455" type="line"/>
    </contour>
  </outline>
</glyph>
<glyph name="equal" format="2">
  <advance width="1214.5454545454547"/>
  <unicode hex="003D"/>
  <outline>
    <contour>
      <point x="1051.090909090909" y="915.0" type="line"/>
      <point x="163.45454545454547" y="915.0" type="line"/>
      <point x="163.45454545454547" y="788.2727272727274" type="line"/>
      <point x="1051.090909090909" y="788.2727272727274" type="line"/>
    </contour>
    <contour>
      <point x="1051.090909090909" y="392.7272727272727" type="line"/>
      <point x="163.45454545454547" y="392.7272727272727" type="line"/>
      <point x="163.45454545454547" y="265.99999999999994" type="line"/>
      <point x="1051.090909090909" y="265.99999999999994" type="line"/>
    </contour>
  </outline>
</glyph>
<glyph name="greater" format="2">
  <advance width="1325.2727272727273"/>
  <unicode hex="003E"/>
  <outline>
    <contour>
      <point x="1167.6363636363637" y="530.0909090909091" type="line"/>
      <point x="1167.6363636363637" y="620.3636363636364" type="line"/>
      <point x="221.63636363636363" y="1086.3636363636363" type="line"/>
      <point x="221.63636363636363" y="942.6363636363636" type="line"/>
      <point x="990.909090909091" y="575.9090909090909" type="line"/>
      <point x="221.63636363636363" y="210.8181818181818" type="line"/>
      <point x="221.63636363636363" y="68.0" type="line"/>
    </contour>
  </outline>
</glyph>
<glyph name="question" format="2">
  <advance width="946.909090909091"/>
  <unicode hex="003F"/>
  <outline>
    <contour>
      <point x="341.72727272727275" y="480.3636363636363" type="curve"/>
      <point x="450.72727272727275" y="480.3636363636363" type="line"/>
      <point x="434.72727272727275" y="568.3636363636364"/>
      <point x="425.6363636363636" y="675.1818181818181"/>
      <point x="425.6363636363636" y="751.4545454545454" type="curve" smooth="yes"/>
      <point x="424.9090909090909" y="785.2727272727273"/>
      <point x="432.6363636363636" y="815.3636363636363"/>
      <point x="444.72727272727275" y="835.2727272727273" type="curve"/>
      <point x="511.6363636363636" y="937.3636363636363"/>
      <point x="912.1818181818182" y="1009.909090909091"/>
      <point x="912.1818181818181" y="1331.8181818181815" type="curve" smooth="yes"/>
      <point x="912.1818181818182" y="1586.7272727272727"/>
      <point x="729.1818181818181" y="1790.5454545454545"/>
      <point x="353.54545454545456" y="1790.5454545454545" type="curve" smooth="yes"/>
      <point x="201.54545454545456" y="1790.5454545454545"/>
      <point x="93.45454545454544" y="1756.2727272727273"/>
      <point x="45.63636363636363" y="1729.2727272727273" type="curve"/>
      <point x="76.36363636363637" y="1616.181818181818" type="line"/>
      <point x="111.63636363636364" y="1633.5454545454543"/>
      <point x="177.72727272727275" y="1649.7272727272725"/>
      <point x="252.45454545454544" y="1649.7272727272725" type="curve" smooth="yes"/>
      <point x="472.8181818181818" y="1649.7272727272725"/>
      <point x="585.8181818181819" y="1484.8181818181818"/>
      <point x="585.8181818181819" y="1291.3636363636365" type="curve" smooth="yes"/>
      <point x="585.8181818181819" y="1148.909090909091"/>
      <point x="535.2727272727273" y="1043.7272727272727"/>
      <point x="464.09090909090907" y="1006.4545454545455" type="curve" smooth="yes"/>
      <point x="287.00000000000006" y="913.7272727272727"/>
      <point x="242.72727272727275" y="866.8181818181816"/>
      <point x="243.36363636363637" y="783.4545454545454" type="curve"/>
      <point x="246.1818181818182" y="682.7272727272726"/>
      <point x="308.81818181818187" y="539.3636363636364"/>
    </contour>
    <contour>
      <point x="375.3636363636364" y="-16.0" type="curve" smooth="yes"/>
      <point x="489.3636363636364" y="-16.0"/>
      <point x="567.7272727272726" y="45.81818181818181"/>
      <point x="567.7272727272726" y="154.45454545454547" type="curve" smooth="yes"/>
      <point x="567.7272727272726" y="235.0"/>
      <point x="509.090909090909" y="311.5454545454545"/>
      <point x="404.0909090909091" y="311.5454545454545" type="curve" smooth="yes"/>
      <point x="300.45454545454544" y="311.5454545454545"/>
      <point x="217.45454545454544" y="242.36363636363635"/>
      <point x="217.45454545454544" y="140.72727272727272" type="curve" smooth="yes"/>
      <point x="217.45454545454544" y="48.45454545454545"/>
      <point x="292.8181818181818" y="-16.0"/>
    </contour>
  </outline>
</glyph>
<glyph name="at" format="2">
  <advance width="2137.181818181818"/>
  <unicode hex="0040"/>
  <outline>
    <contour>
      <point x="145.63636363636363" y="336.0" type="curve" smooth="yes"/>
      <point x="145.63636363636363" y="-191.09090909090912"/>
      <point x="491.2727272727273" y="-522.0"/>
      <point x="934.6363636363637" y="-522.0" type="curve" smooth="yes"/>
      <point x="1123.7272727272727" y="-522.0"/>
      <point x="1318.9999999999998" y="-466.72727272727275"/>
      <point x="1426.1818181818182" y="-373.0" type="curve"/>
      <point x="1399.2727272727275" y="-310.9090909090909" type="line"/>
      <point x="1294.2727272727273" y="-378.45454545454544"/>
      <point x="1139.909090909091" y="-414.3636363636364"/>
      <point x="1000.6363636363636" y="-414.3636363636364" type="curve" smooth="yes"/>
      <point x="621.8181818181818" y="-414.3636363636364"/>
      <point x="319.4545454545455" y="-119.0"/>
      <point x="319.4545454545455" y="381.1818181818182" type="curve" smooth="yes"/>
      <point x="319.4545454545455" y="953.090909090909"/>
      <point x="670.8181818181819" y="1418.2727272727273"/>
      <point x="1184.727272727273" y="1418.2727272727273" type="curve" smooth="yes"/>
      <point x="1540.5454545454545" y="1418.2727272727273"/>
      <point x="1873.9090909090908" y="1207.1818181818182"/>
      <point x="1873.9090909090908" y="728.2727272727271" type="curve" smooth="yes"/>
      <point x="1873.9090909090908" y="367.3636363636364"/>
      <point x="1671.2727272727273" y="141.36363636363637"/>
      <point x="1519.0" y="141.36363636363637" type="curve" smooth="yes"/>
      <point x="1481.0000000000002" y="141.36363636363637"/>
      <point x="1461.1818181818182" y="185.45454545454547"/>
      <point x="1463.3636363636365" y="286.45454545454544" type="curve" smooth="yes"/>
      <point x="1467.3636363636365" y="510.9090909090909"/>
      <point x="1532.6363636363635" y="828.8181818181819"/>
      <point x="1567.1818181818182" y="952.1818181818181" type="curve"/>
      <point x="1444.4545454545457" y="993.6363636363636"/>
      <point x="1413.4545454545455" y="1005.6363636363635"/>
      <point x="1382.4545454545455" y="1009.6363636363636" type="curve" smooth="yes"/>
      <point x="1355.7272727272727" y="1012.1818181818181"/>
      <point x="1334.3636363636365" y="1000.9090909090909"/>
      <point x="1319.9999999999998" y="962.2727272727273" type="curve"/>
      <point x="1253.4545454545455" y="996.0909090909091"/>
      <point x="1182.2727272727273" y="1012.8181818181819"/>
      <point x="1113.8181818181818" y="1012.8181818181819" type="curve" smooth="yes"/>
      <point x="794.7272727272727" y="1012.8181818181819"/>
      <point x="578.4545454545455" y="696.5454545454546"/>
      <point x="578.4545454545455" y="366.6363636363637" type="curve" smooth="yes"/>
      <point x="578.4545454545455" y="119.18181818181817"/>
      <point x="710.6363636363636" y="-23.272727272727273"/>
      <point x="862.5454545454545" y="-23.272727272727273" type="curve" smooth="yes"/>
      <point x="1037.6363636363635" y="-23.272727272727273"/>
      <point x="1159.6363636363635" y="164.0"/>
      <point x="1239.5454545454547" y="425.2727272727273" type="curve"/>
      <point x="1215.5454545454545" y="289.2727272727273"/>
      <point x="1202.6363636363637" y="201.27272727272728"/>
      <point x="1205.6363636363637" y="147.27272727272728" type="curve" smooth="yes"/>
      <point x="1211.6363636363637" y="35.27272727272728"/>
      <point x="1280.9090909090908" y="-8.0"/>
      <point x="1368.6363636363637" y="-8.0" type="curve" smooth="yes"/>
      <point x="1634.6363636363637" y="-8.0"/>
      <point x="2017.909090909091" y="287.1818181818182"/>
      <point x="2017.909090909091" y="800.4545454545455" type="curve" smooth="yes"/>
      <point x="2017.909090909091" y="1241.6363636363635"/>
      <point x="1729.7272727272727" y="1543.5454545454545"/>
      <point x="1273.6363636363637" y="1543.5454545454545" type="curve" smooth="yes"/>
      <point x="657.4545454545454" y="1543.5454545454545"/>
      <point x="145.63636363636363" y="1025.4545454545455"/>
    </contour>
    <contour>
      <point x="865.1818181818181" y="455.54545454545456" type="curve" smooth="yes"/>
      <point x="865.1818181818181" y="708.2727272727273"/>
      <point x="966.5454545454545" y="916.0"/>
      <point x="1109.090909090909" y="916.0" type="curve" smooth="yes"/>
      <point x="1155.9090909090908" y="916.0"/>
      <point x="1230.7272727272725" y="879.6363636363636"/>
      <point x="1270.6363636363637" y="835.3636363636363" type="curve"/>
      <point x="1267.7272727272725" y="781.0909090909091"/>
      <point x="1236.6363636363637" y="652.3636363636364"/>
      <point x="1216.2727272727275" y="581.3636363636364" type="curve" smooth="yes"/>
      <point x="1154.4545454545455" y="366.18181818181813"/>
      <point x="1056.181818181818" y="198.8181818181818"/>
      <point x="972.1818181818181" y="198.8181818181818" type="curve" smooth="yes"/>
      <point x="895.9090909090909" y="198.8181818181818"/>
      <point x="865.1818181818181" y="336.5454545454545"/>
    </contour>
  </outline>
</glyph>
<glyph name="A" format="2">
  <advance width="1301.3636363636363"/>
  <unicode hex="0041"/>
  <anchor x="605.4545454545455" y="0.0" name="bottom"/>
  <anchor x="1189.6363636363637" y="20.0" name="ogonek"/>
  <anchor x="650.5454545454545" y="1486.0" name="top"/>
  <outline>
    <contour>
      <point x="31.454545454545446" y="104.36363636363635" type="line"/>
      <point x="-107.45454545454544" y="72.18181818181819" type="line"/>
      <point x="-106.72727272727272" y="0.0" type="line"/>
      <point x="341.6363636363637" y="0.0" type="line"/>
      <point x="341.6363636363637" y="72.18181818181819" type="line"/>
      <point x="195.18181818181824" y="100.36363636363636" type="line"/>
      <point x="283.18181818181813" y="419.3636363636364" type="line"/>
      <point x="752.909090909091" y="419.3636363636364" type="line"/>
      <point x="844.8181818181818" y="101.45454545454544" type="line"/>
      <point x="702.8181818181818" y="72.18181818181819" type="line"/>
      <point x="702.8181818181818" y="0.0" type="line"/>
      <point x="1371.0000000000002" y="0.0" type="line"/>
      <point x="1371.0000000000002" y="72.18181818181819" type="line"/>
      <point x="1258.0909090909092" y="99.54545454545453" type="line"/>
      <point x="810.7272727272726" y="1489.1818181818182" type="line"/>
      <point x="499.0909090909091" y="1489.1818181818182" type="line"/>
    </contour>
    <contour>
      <point x="722.9999999999999" y="515.7272727272727" type="line"/>
      <point x="311.72727272727275" y="515.7272727272727" type="line"/>
      <point x="494.4545454545454" y="1108.2727272727273" type="line"/>
      <point x="524.8181818181819" y="1231.1818181818182" type="line"/>
      <point x="554.1818181818182" y="1108.6363636363635" type="line"/>
    </contour>
  </outline>
</glyph>
<glyph name="B" format="2">
  <advance width="1377.636363636364"/>
  <unicode hex="0042"/>
  <anchor x="690.1818181818181" y="0.0" name="bottom"/>
  <anchor x="690.1818181818181" y="1486.0" name="top"/>
  <outline>
    <contour>
      <point x="181.45454545454544" y="102.45454545454545" type="line"/>
      <point x="40.18181818181819" y="71.54545454545453" type="line"/>
      <point x="40.18181818181819" y="0.0" type="line"/>
      <point x="364.18181818181813" y="0.0" type="line" smooth="yes"/>
      <point x="494.1818181818182" y="0.0"/>
      <point x="552.1818181818181" y="-12.0"/>
      <point x="702.1818181818181" y="-12.0" type="curve" smooth="yes"/>
      <point x="1204.1818181818182" y="-12.0"/>
      <point x="1348.181818181818" y="192.0"/>
      <point x="1348.1818181818182" y="449.99999999999994" type="curve" smooth="yes"/>
      <point x="1348.181818181818" y="672.0"/>
      <point x="1173.818181818182" y="794.0"/>
      <point x="918.1818181818181" y="794.0" type="curve"/>
      <point x="1104.181818181818" y="820.0"/>
      <point x="1246.2727272727273" y="953.9999999999999"/>
      <point x="1246.2727272727273" y="1160.0" type="curve" smooth="yes"/>
      <point x="1246.2727272727273" y="1355.9090909090908"/>
      <point x="1134.1818181818185" y="1500.0"/>
      <point x="699.4545454545456" y="1500.0" type="curve" smooth="yes"/>
      <point x="582.1818181818181" y="1500.0"/>
      <point x="486.1818181818182" y="1486.0"/>
      <point x="360.1818181818182" y="1486.0" type="curve" smooth="yes"/>
      <point x="42.272727272727266" y="1486.0" type="line"/>
      <point x="42.272727272727266" y="1412.1818181818182" type="line"/>
      <point x="181.45454545454544" y="1377.8181818181818" type="line"/>
    </contour>
    <contour>
      <point x="544.9090909090908" y="816.0000000000001" type="curve"/>
      <point x="544.9090909090908" y="1404.4545454545453" type="line"/>
      <point x="569.6363636363637" y="1408.4545454545455"/>
      <point x="638.9090909090909" y="1415.090909090909"/>
      <point x="667.6363636363636" y="1415.090909090909" type="curve" smooth="yes"/>
      <point x="830.0" y="1415.090909090909"/>
      <point x="890.3636363636364" y="1320.0000000000002"/>
      <point x="890.3636363636364" y="1134.2727272727275" type="curve" smooth="yes"/>
      <point x="890.3636363636364" y="957.0909090909091"/>
      <point x="836.0" y="812.0000000000001"/>
      <point x="673.1818181818182" y="812.0000000000001" type="curve" smooth="yes"/>
      <point x="631.5454545454545" y="812.0000000000001"/>
      <point x="579.0" y="812.0"/>
    </contour>
    <contour>
      <point x="544.9090909090908" y="94.90909090909092" type="curve"/>
      <point x="544.9090909090908" y="717.1818181818181" type="line"/>
      <point x="579.0" y="719.1818181818181"/>
      <point x="638.2727272727274" y="721.8181818181819"/>
      <point x="691.9090909090909" y="721.8181818181819" type="curve" smooth="yes"/>
      <point x="876.0909090909091" y="721.8181818181819"/>
      <point x="951.8181818181819" y="638.5454545454546"/>
      <point x="951.8181818181818" y="424.27272727272725" type="curve" smooth="yes"/>
      <point x="951.8181818181819" y="214.0"/>
      <point x="883.4545454545455" y="76.99999999999999"/>
      <point x="686.3636363636363" y="76.99999999999999" type="curve" smooth="yes"/>
      <point x="634.9090909090909" y="76.99999999999999"/>
      <point x="573.6363636363636" y="82.27272727272727"/>
    </contour>
  </outline>
</glyph>
<glyph name="C" format="2">
  <advance width="1290.1818181818185"/>
  <unicode hex="0043"/>
  <anchor x="720.6363636363637" y="0.0" name="bottom"/>
  <anchor x="750.6363636363637" y="1486.0" name="top"/>
  <outline>
    <contour>
      <point x="741.4545454545455" y="-22.0" type="curve" smooth="yes"/>
      <point x="1002.0" y="-22.0"/>
      <point x="1065.181818181818" y="50.0"/>
      <point x="1180.4545454545455" y="54.0" type="curve"/>
      <point x="1217.9090909090908" y="441.90909090909093" type="line"/>
      <point x="1052.9999999999998" y="454.81818181818187" type="line"/>
      <point x="963.4545454545454" y="183.63636363636363" type="line"/>
      <point x="939.6363636363636" y="134.09090909090907"/>
      <point x="873.4545454545454" y="66.9090909090909"/>
      <point x="773.9090909090909" y="66.9090909090909" type="curve" smooth="yes"/>
      <point x="531.8181818181819" y="66.9090909090909"/>
      <point x="441.4545454545455" y="386.0"/>
      <point x="441.4545454545455" y="758.0" type="curve" smooth="yes"/>
      <point x="441.4545454545455" y="1215.1818181818182"/>
      <point x="555.4545454545455" y="1415.3636363636363"/>
      <point x="757.0" y="1415.3636363636363" type="curve" smooth="yes"/>
      <point x="867.5454545454545" y="1415.3636363636363"/>
      <point x="916.7272727272727" y="1364.6363636363637"/>
      <point x="931.4545454545455" y="1314.909090909091" type="curve"/>
      <point x="988.9090909090909" y="1006.0" type="line"/>
      <point x="1189.3636363636363" y="1006.0" type="line"/>
      <point x="1232.818181818182" y="1446.0909090909092" type="line"/>
      <point x="1060.2727272727273" y="1447.5454545454543"/>
      <point x="981.7272727272727" y="1505.1818181818182"/>
      <point x="749.7272727272726" y="1505.1818181818182" type="curve" smooth="yes"/>
      <point x="321.1818181818182" y="1505.1818181818182"/>
      <point x="27.454545454545453" y="1211.9090909090908"/>
      <point x="27.454545454545453" y="731.0909090909091" type="curve" smooth="yes"/>
      <point x="27.454545454545453" y="282.8181818181818"/>
      <point x="252.5454545454545" y="-22.0"/>
    </contour>
  </outline>
</glyph>
<glyph name="D" format="2">
  <advance width="1462.5454545454547"/>
  <unicode hex="0044"/>
  <anchor x="734.1818181818181" y="0.0" name="bottom"/>
  <anchor x="813.9999999999999" y="764.0" name="center"/>
  <anchor x="360.45454545454544" y="763.0" name="lstem"/>
  <anchor x="734.1818181818181" y="1486.0" name="top"/>
  <outline>
    <contour>
      <point x="181.09090909090907" y="105.63636363636363" type="line"/>
      <point x="40.18181818181819" y="71.54545454545455" type="line"/>
      <point x="40.18181818181819" y="0.0" type="line"/>
      <point x="326.54545454545456" y="0.0" type="line" smooth="yes"/>
      <point x="404.54545454545456" y="0.0"/>
      <point x="565.6363636363636" y="-13.636363636363637"/>
      <point x="663.6363636363636" y="-16.0" type="curve" smooth="yes"/>
      <point x="1167.0" y="-26.0"/>
      <point x="1427.0" y="319.1818181818182"/>
      <point x="1427.0" y="793.7272727272729" type="curve" smooth="yes"/>
      <point x="1427.0" y="1214.909090909091"/>
      <point x="1238.0" y="1499.0"/>
      <point x="703.8181818181818" y="1499.0" type="curve" smooth="yes"/>
      <point x="584.1818181818181" y="1499.0"/>
      <point x="449.3636363636363" y="1486.0"/>
      <point x="320.3636363636364" y="1486.0" type="curve" smooth="yes"/>
      <point x="43.0" y="1486.0" type="line"/>
      <point x="43.0" y="1412.5454545454545" type="line"/>
      <point x="181.09090909090907" y="1378.1818181818182" type="line"/>
    </contour>
    <contour>
      <point x="545.1818181818181" y="94.54545454545455" type="curve"/>
      <point x="545.1818181818181" y="1395.2727272727273" type="line"/>
      <point x="565.9999999999999" y="1397.2727272727273"/>
      <point x="611.2727272727273" y="1410.272727272727"/>
      <point x="664.0" y="1410.272727272727" type="curve" smooth="yes"/>
      <point x="935.909090909091" y="1410.272727272727"/>
      <point x="1025.6363636363637" y="1132.909090909091"/>
      <point x="1025.6363636363637" y="748.5454545454545" type="curve" smooth="yes"/>
      <point x="1025.6363636363637" y="289.5454545454545"/>
      <point x="889.7272727272727" y="80.45454545454545"/>
      <point x="666.7272727272727" y="75.54545454545455" type="curve" smooth="yes"/>
      <point x="623.909090909091" y="74.9090909090909"/>
      <point x="584.8181818181818" y="79.54545454545455"/>
    </contour>
  </outline>
</glyph>
<glyph name="E" format="2">
  <advance width="1291.3636363636365"/>
  <unicode hex="0045"/>
  <anchor x="667.1818181818181" y="0.0" name="bottom"/>
  <anchor x="1087.5454545454545" y="20.0" name="ogonek"/>
  <anchor x="681.0" y="1486.0" name="top"/>
  <anchor x="42.18181818181818" y="1486.0" name="topleft"/>
  <outline>
    <contour>
      <point x="182.1818181818182" y="105.27272727272727" type="line"/>
      <point x="41.27272727272727" y="71.54545454545453" type="line"/>
      <point x="41.27272727272727" y="0.0" type="line"/>
      <point x="1211.2727272727273" y="0.0" type="line"/>
      <point x="1288.8181818181818" y="415.45454545454544" type="line"/>
      <point x="1117.5454545454545" y="444.3636363636364" type="line"/>
      <point x="965.9999999999999" y="136.36363636363637" type="line"/>
      <point x="550.4545454545455" y="87.72727272727273" type="line"/>
      <point x="550.4545454545455" y="719.0" type="line"/>
      <point x="775.2727272727273" y="712.7272727272727" type="line"/>
      <point x="842.0" y="479.8181818181818" type="line"/>
      <point x="923.0909090909091" y="479.8181818181818" type="line"/>
      <point x="923.0909090909091" y="1031.7272727272725" type="line"/>
      <point x="842.0" y="1031.7272727272725" type="line"/>
      <point x="774.5454545454546" y="814.0" type="line"/>
      <point x="550.4545454545455" y="807.3636363636364" type="line"/>
      <point x="550.4545454545455" y="1400.4545454545455" type="line"/>
      <point x="928.7272727272727" y="1369.0" type="line"/>
      <point x="1040.6363636363635" y="1117.090909090909" type="line"/>
      <point x="1185.6363636363637" y="1117.090909090909" type="line"/>
      <point x="1154.1818181818182" y="1486.0" type="line"/>
      <point x="40.818181818181806" y="1486.0" type="line"/>
      <point x="40.818181818181806" y="1412.5454545454547" type="line"/>
      <point x="182.1818181818182" y="1378.1818181818182" type="line"/>
    </contour>
  </outline>
</glyph>
<glyph name="F" format="2">
  <advance width="1205.4545454545453"/>
  <unicode hex="0046"/>
  <anchor x="450.0909090909092" y="0.0" name="bottom"/>
  <anchor x="675.1818181818181" y="1486.0" name="top"/>
  <outline>
    <contour>
      <point x="183.63636363636363" y="101.8181818181818" type="line"/>
      <point x="43.45454545454545" y="72.18181818181819" type="line"/>
      <point x="43.45454545454545" y="0.0" type="line"/>
      <point x="799.8181818181818" y="0.0" type="line"/>
      <point x="799.8181818181818" y="72.18181818181819" type="line"/>
      <point x="550.8181818181819" y="101.8181818181818" type="line"/>
      <point x="550.8181818181819" y="687.0" type="line"/>
      <point x="784.4545454545455" y="679.6363636363636" type="line"/>
      <point x="852.1818181818182" y="443.4545454545455" type="line"/>
      <point x="933.2727272727273" y="443.4545454545455" type="line"/>
      <point x="933.2727272727273" y="1007.0" type="line"/>
      <point x="852.4545454545455" y="1007.0" type="line"/>
      <point x="784.4545454545455" y="783.4545454545455" type="line"/>
      <point x="550.8181818181819" y="776.8181818181819" type="line"/>
      <point x="550.8181818181819" y="1399.8181818181818" type="line"/>
      <point x="895.0" y="1367.1818181818182" type="line"/>
      <point x="1008.4545454545455" y="1096.7272727272727" type="line"/>
      <point x="1162.6363636363635" y="1096.7272727272727" type="line"/>
      <point x="1136.5454545454545" y="1486.0" type="line"/>
      <point x="40.81818181818181" y="1486.0" type="line"/>
      <point x="40.81818181818181" y="1412.5454545454545" type="line"/>
      <point x="183.63636363636363" y="1378.1818181818182" type="line"/>
    </contour>
  </outline>
</glyph>
<glyph name="G" format="2">
  <advance width="1432.1818181818182"/>
  <unicode hex="0047"/>
  <anchor x="737.3636363636363" y="0.0" name="bottom"/>
  <anchor x="1206.909090909091" y="346.45454545454544" name="rstem"/>
  <anchor x="797.3636363636364" y="1486.0" name="top"/>
  <outline>
    <contour>
      <point x="729.090909090909" y="-22.0" type="curve" smooth="yes"/>
      <point x="1058.0" y="-22.0"/>
      <point x="1165.5454545454545" y="78.54545454545455"/>
      <point x="1326.2727272727273" y="80.0" type="curve"/>
      <point x="1326.2727272727273" y="615.5454545454545" type="line"/>
      <point x="1416.090909090909" y="634.4545454545454" type="line"/>
      <point x="1416.090909090909" y="720.5454545454545" type="line"/>
      <point x="806.8181818181818" y="720.5454545454545" type="line"/>
      <point x="806.8181818181818" y="634.4545454545454" type="line"/>
      <point x="986.4545454545454" y="613.7272727272727" type="line"/>
      <point x="986.4545454545454" y="184.0" type="line"/>
      <point x="952.8181818181818" y="108.72727272727273"/>
      <point x="860.5454545454545" y="65.45454545454545"/>
      <point x="758.8181818181818" y="65.45454545454545" type="curve" smooth="yes"/>
      <point x="528.090909090909" y="65.45454545454545"/>
      <point x="455.6363636363636" y="385.0"/>
      <point x="456.9090909090909" y="758.0" type="curve" smooth="yes"/>
      <point x="458.1818181818182" y="1213.7272727272727"/>
      <point x="556.0" y="1419.3636363636363"/>
      <point x="755.7272727272727" y="1419.3636363636363" type="curve" smooth="yes"/>
      <point x="922.4545454545455" y="1419.3636363636363"/>
      <point x="970.8181818181819" y="1366.0909090909092"/>
      <point x="983.7272727272726" y="1317.4545454545453" type="curve"/>
      <point x="1037.1818181818182" y="1024.1818181818182" type="line"/>
      <point x="1268.6363636363635" y="1024.1818181818182" type="line"/>
      <point x="1311.3636363636363" y="1439.1818181818182" type="line"/>
      <point x="1164.6363636363635" y="1445.0"/>
      <point x="1034.2727272727273" y="1506.2727272727273"/>
      <point x="773.9090909090909" y="1506.2727272727273" type="curve" smooth="yes"/>
      <point x="310.4545454545455" y="1506.2727272727273"/>
      <point x="37.27272727272728" y="1219.909090909091"/>
      <point x="37.27272727272728" y="732.5454545454546" type="curve" smooth="yes"/>
      <point x="37.27272727272728" y="294.8181818181818"/>
      <point x="260.5454545454545" y="-22.0"/>
    </contour>
  </outline>
</glyph>
<glyph name="H" format="2">
  <advance width="1575.8181818181818"/>
  <unicode hex="0048"/>
  <anchor x="797.6363636363636" y="0.0" name="bottom"/>
  <anchor x="1536.363636363636" y="0.0" name="bottomright"/>
  <anchor x="787.4545454545454" y="756.3636363636364" name="center"/>
  <anchor x="783.4545454545455" y="1486.0" name="top"/>
  <anchor x="14.909090909090912" y="1486.0" name="topleft"/>
  <outline>
    <contour>
      <point x="177.81818181818178" y="101.45454545454545" type="line"/>
      <point x="40.18181818181819" y="72.18181818181817" type="line"/>
      <point x="40.18181818181819" y="0.0" type="line"/>
      <point x="696.4545454545455" y="0.0" type="line"/>
      <point x="696.4545454545455" y="72.18181818181817" type="line"/>
      <point x="545.9090909090909" y="101.45454545454545" type="line"/>
      <point x="545.9090909090909" y="710.1818181818181" type="line"/>
      <point x="1030.2727272727275" y="710.1818181818181" type="line"/>
      <point x="1030.2727272727275" y="101.81818181818181" type="line"/>
      <point x="883.9090909090909" y="72.18181818181819" type="line"/>
      <point x="883.9090909090909" y="0.0" type="line"/>
      <point x="1535.6363636363635" y="0.0" type="line"/>
      <point x="1535.6363636363635" y="72.18181818181819" type="line"/>
      <point x="1398.0" y="101.45454545454545" type="line"/>
      <point x="1398.0" y="1378.5454545454545" type="line"/>
      <point x="1533.6363636363637" y="1412.5454545454547" type="line"/>
      <point x="1533.6363636363637" y="1486.0" type="line"/>
      <point x="883.909090909091" y="1486.0" type="line"/>
      <point x="883.909090909091" y="1412.5454545454547" type="line"/>
      <point x="1030.2727272727275" y="1378.1818181818182" type="line"/>
      <point x="1030.2727272727275" y="813.6363636363636" type="line"/>
      <point x="545.9090909090909" y="813.6363636363636" type="line"/>
      <point x="545.9090909090909" y="1378.5454545454545" type="line"/>
      <point x="695.4545454545456" y="1412.5454545454547" type="line"/>
      <point x="695.4545454545456" y="1486.0" type="line"/>
      <point x="41.18181818181817" y="1486.0" type="line"/>
      <point x="41.18181818181817" y="1412.5454545454547" type="line"/>
      <point x="177.81818181818178" y="1378.5454545454545" type="line"/>
    </contour>
  </outline>
</glyph>
<glyph name="I" format="2">
  <advance width="758.1818181818181"/>
  <unicode hex="0049"/>
  <anchor x="375.27272727272725" y="0.0" name="bottom"/>
  <anchor x="479.1818181818182" y="20.0" name="ogonek"/>
  <anchor x="375.27272727272725" y="1486.0" name="top"/>
  <anchor x="38.272727272727266" y="1486.0" name="topleft"/>
  <outline>
    <contour>
      <point x="193.63636363636365" y="101.81818181818181" type="line"/>
      <point x="43.454545454545446" y="72.18181818181817" type="line"/>
      <point x="43.454545454545446" y="0.0" type="line"/>
      <point x="715.4545454545456" y="0.0" type="line"/>
      <point x="715.4545454545456" y="71.45454545454545" type="line"/>
      <point x="562.7272727272726" y="101.45454545454545" type="line"/>
      <point x="562.7272727272726" y="1378.1818181818182" type="line"/>
      <point x="714.8181818181819" y="1412.5454545454547" type="line"/>
      <point x="714.8181818181819" y="1486.0" type="line"/>
      <point x="43.36363636363637" y="1486.0" type="line"/>
      <point x="43.36363636363637" y="1412.5454545454547" type="line"/>
      <point x="193.63636363636365" y="1378.1818181818182" type="line"/>
    </contour>
  </outline>
</glyph>
<glyph name="J" format="2">
  <advance width="758.1818181818181"/>
  <unicode hex="004A"/>
  <anchor x="367.8181818181818" y="1486.0" name="top"/>
  <outline>
    <contour>
      <point x="-50.63636363636365" y="-308.54545454545456" type="curve"/>
      <point x="-2.2727272727272734" y="-387.0" type="line"/>
      <point x="277.18181818181824" y="-351.54545454545456"/>
      <point x="471.18181818181824" y="-190.99999999999997"/>
      <point x="534.3636363636364" y="28.999999999999996" type="curve" smooth="yes"/>
      <point x="561.0000000000001" y="122.00000000000001"/>
      <point x="563.3636363636364" y="298.0"/>
      <point x="563.3636363636364" y="550.0" type="curve" smooth="yes"/>
      <point x="563.3636363636364" y="1378.5454545454545" type="line"/>
      <point x="710.9090909090909" y="1412.5454545454545" type="line"/>
      <point x="710.9090909090909" y="1486.0" type="line"/>
      <point x="42.45454545454545" y="1486.0" type="line"/>
      <point x="42.45454545454545" y="1412.5454545454545" type="line"/>
      <point x="195.63636363636363" y="1377.8181818181818" type="line"/>
      <point x="195.63636363636363" y="341.27272727272725" type="line" smooth="yes"/>
      <point x="195.63636363636363" y="130.27272727272728"/>
      <point x="180.63636363636363" y="12.63636363636364"/>
      <point x="153.63636363636363" y="-67.36363636363636" type="curve" smooth="yes"/>
      <point x="105.63636363636363" y="-210.36363636363635"/>
      <point x="46.18181818181819" y="-268.90909090909093"/>
    </contour>
  </outline>
</glyph>
<glyph name="K" format="2">
  <advance width="1476.0909090909088"/>
  <unicode hex="004B"/>
  <anchor x="834.6363636363636" y="0.0" name="bottom"/>
  <anchor x="815.6363636363637" y="1483.0" name="top"/>
  <outline>
    <contour>
      <point x="1037.818181818182" y="0.0" type="curve"/>
      <point x="1485.7272727272727" y="0.6363636363636364" type="line"/>
      <point x="1485.7272727272727" y="72.45454545454545" type="line"/>
      <point x="1412.3636363636365" y="97.63636363636363" type="line"/>
      <point x="1297.8181818181818" y="223.63636363636363"/>
      <point x="1008.4545454545455" y="915.7272727272727"/>
      <point x="873.0909090909091" y="980.0909090909091" type="curve"/>
      <point x="797.0909090909091" y="833.7272727272727" type="line"/>
      <point x="1241.181818181818" y="1376.6363636363637" type="line"/>
      <point x="1415.2727272727273" y="1411.0" type="line"/>
      <point x="1415.2727272727273" y="1486.6363636363637" type="line"/>
      <point x="912.3636363636363" y="1486.0" type="line"/>
      <point x="912.3636363636363" y="1411.9090909090908" type="line"/>
      <point x="1088.7272727272727" y="1378.1818181818182" type="line"/>
      <point x="464.45454545454544" y="540.4545454545455" type="line"/>
      <point x="549.1818181818182" y="588.0" type="line"/>
      <point x="549.1818181818182" y="1378.1818181818182" type="line"/>
      <point x="694.0" y="1412.5454545454545" type="line"/>
      <point x="694.0" y="1486.0" type="line"/>
      <point x="41.18181818181819" y="1486.0" type="line"/>
      <point x="41.18181818181819" y="1412.5454545454545" type="line"/>
      <point x="181.45454545454547" y="1378.1818181818182" type="line"/>
      <point x="181.45454545454547" y="101.18181818181816" type="line"/>
      <point x="40.18181818181819" y="72.18181818181819" type="line"/>
      <point x="40.18181818181819" y="0.0" type="line"/>
      <point x="700.5454545454546" y="0.0" type="line"/>
      <point x="700.5454545454546" y="71.81818181818181" type="line"/>
      <point x="549.1818181818182" y="100.8181818181818" type="line"/>
      <point x="549.1818181818182" y="587.909090909091" type="line"/>
      <point x="459.45454545454544" y="402.8181818181818" type="line"/>
      <point x="764.9090909090909" y="792.3636363636364" type="line"/>
      <point x="649.5454545454546" y="705.8181818181819" type="line"/>
      <point x="754.4545454545454" y="613.8181818181818"/>
      <point x="950.1818181818181" y="0.0"/>
    </contour>
  </outline>
</glyph>
<glyph name="L" format="2">
  <advance width="1233.0"/>
  <unicode hex="004C"/>
  <anchor x="671.6363636363636" y="0.0" name="bottom"/>
  <anchor x="642.6363636363636" y="744.0" name="center"/>
  <anchor x="409.6363636363637" y="1486.0" name="top"/>
  <anchor x="945.1818181818182" y="1111.3636363636363" name="topright"/>
  <outline>
    <contour>
      <point x="180.72727272727272" y="105.27272727272727" type="line"/>
      <point x="40.18181818181819" y="71.54545454545455" type="line"/>
      <point x="40.18181818181819" y="0.0" type="line"/>
      <point x="1155.2727272727273" y="0.0" type="line"/>
      <point x="1219.0" y="476.09090909090907" type="line"/>
      <point x="1042.4545454545457" y="495.6363636363636" type="line"/>
      <point x="897.4545454545454" y="140.36363636363637" type="line"/>
      <point x="547.9090909090909" y="94.27272727272727" type="line"/>
      <point x="547.9090909090909" y="1378.1818181818182" type="line"/>
      <point x="719.4545454545454" y="1412.5454545454545" type="line"/>
      <point x="719.4545454545454" y="1486.0" type="line"/>
      <point x="41.54545454545455" y="1486.0" type="line"/>
      <point x="41.54545454545455" y="1412.5454545454545" type="line"/>
      <point x="180.72727272727272" y="1378.1818181818182" type="line"/>
    </contour>
  </outline>
</glyph>
<glyph name="M" format="2">
  <advance width="1935.2727272727275"/>
  <unicode hex="004D"/>
  <anchor x="941.5454545454545" y="0.0" name="bottom"/>
  <anchor x="1964.8181818181818" y="0.0" name="bottomright"/>
  <anchor x="966.3636363636363" y="1486.0" name="top"/>
  <outline>
    <contour>
      <point x="129.27272727272725" y="100.81818181818181" type="line"/>
      <point x="-27.18181818181818" y="70.9090909090909" type="line"/>
      <point x="-27.18181818181818" y="0.0" type="line"/>
      <point x="444.90909090909093" y="0.0" type="line"/>
      <point x="444.90909090909093" y="70.9090909090909" type="line"/>
      <point x="266.6363636363637" y="101.18181818181819" type="line"/>
      <point x="358.8181818181818" y="1035.090909090909" type="line"/>
      <point x="392.90909090909093" y="1363.6363636363637" type="line"/>
      <point x="471.81818181818176" y="1037.5454545454545" type="line"/>
      <point x="713.2727272727273" y="57.0" type="line"/>
      <point x="1026.181818181818" y="57.0" type="line"/>
      <point x="1242.0" y="1046.7272727272727" type="line"/>
      <point x="1307.5454545454547" y="1363.2727272727273" type="line"/>
      <point x="1344.4545454545453" y="1033.8181818181818" type="line"/>
      <point x="1434.2727272727273" y="101.81818181818181" type="line"/>
      <point x="1280.1818181818182" y="72.18181818181819" type="line"/>
      <point x="1280.1818181818182" y="0.0" type="line"/>
      <point x="1962.4545454545453" y="0.0" type="line"/>
      <point x="1962.4545454545453" y="70.9090909090909" type="line"/>
      <point x="1816.090909090909" y="102.18181818181819" type="line"/>
      <point x="1662.8181818181818" y="1378.818181818182" type="line"/>
      <point x="1844.3636363636363" y="1413.1818181818182" type="line"/>
      <point x="1844.3636363636363" y="1486.0" type="line"/>
      <point x="1222.818181818182" y="1486.0" type="line"/>
      <point x="1027.0" y="566.9090909090909" type="line"/>
      <point x="985.6363636363636" y="335.09090909090907" type="line"/>
      <point x="942.181818181818" y="564.3636363636364" type="line"/>
      <point x="739.5454545454546" y="1486.0" type="line"/>
      <point x="114.36363636363637" y="1486.0" type="line"/>
      <point x="114.36363636363637" y="1413.1818181818182" type="line"/>
      <point x="291.27272727272725" y="1378.818181818182" type="line"/>
    </contour>
  </outline>
</glyph>
<glyph name="N" format="2">
  <advance width="1434.5454545454545"/>
  <unicode hex="004E"/>
  <anchor x="726.1818181818182" y="0.0" name="bottom"/>
  <anchor x="729.0000000000001" y="1486.0" name="top"/>
  <outline>
    <contour>
      <point x="175.0909090909091" y="116.09090909090908" type="line"/>
      <point x="11.090909090909086" y="70.90909090909089" type="line"/>
      <point x="11.090909090909086" y="0.0" type="line"/>
      <point x="481.5454545454545" y="0.0" type="line"/>
      <point x="481.5454545454545" y="70.90909090909089" type="line"/>
      <point x="290.27272727272725" y="116.45454545454545" type="line"/>
      <point x="291.5454545454545" y="1167.1818181818182" type="line"/>
      <point x="397.0909090909091" y="972.8181818181819" type="line"/>
      <point x="1023.6363636363635" y="0.0" type="line"/>
      <point x="1280.4545454545455" y="0.0" type="line"/>
      <point x="1280.4545454545455" y="1365.8181818181818" type="line"/>
      <point x="1443.818181818182" y="1412.5454545454547" type="line"/>
      <point x="1443.818181818182" y="1486.0" type="line"/>
      <point x="990.4545454545455" y="1486.0" type="line"/>
      <point x="990.4545454545455" y="1412.5454545454547" type="line"/>
      <point x="1164.909090909091" y="1365.8181818181818" type="line"/>
      <point x="1165.5454545454545" y="399.09090909090907" type="line"/>
      <point x="1054.4545454545457" y="611.7272727272726" type="line"/>
      <point x="495.27272727272725" y="1486.0" type="line"/>
      <point x="13.000000000000007" y="1486.0" type="line"/>
      <point x="13.000000000000007" y="1401.0909090909092" type="line"/>
      <point x="71.36363636363637" y="1397.818181818182"/>
      <point x="153.00000000000003" y="1313.0909090909092"/>
      <point x="176.36363636363635" y="1269.7272727272727" type="curve"/>
    </contour>
  </outline>
</glyph>
<glyph name="O" format="2">
  <advance width="1428.909090909091"/>
  <unicode hex="004F"/>
  <anchor x="735.1818181818182" y="-3.552713678800501e-15" name="bottom"/>
  <anchor x="715.8181818181819" y="741.0" name="center"/>
  <anchor x="815.1818181818182" y="20.0" name="ogonek"/>
  <anchor x="862.7804545454546" y="0.0" name="qq"/>
  <anchor x="723.5454545454545" y="1486.0" name="top"/>
  <anchor x="43.18181818181818" y="1486.0" name="topleft"/>
  <anchor x="1143.1818181818182" y="1486.0" name="topright"/>
  <outline>
    <contour>
      <point x="704.1818181818182" y="-24.545454545454547" type="curve" smooth="yes"/>
      <point x="1162.818181818182" y="-23.454545454545453"/>
      <point x="1393.090909090909" y="316.27272727272725"/>
      <point x="1393.090909090909" y="769.2727272727273" type="curve" smooth="yes"/>
      <point x="1393.090909090909" y="1206.5454545454547"/>
      <point x="1202.1818181818182" y="1504.909090909091"/>
      <point x="729.6363636363636" y="1505.6363636363635" type="curve" smooth="yes"/>
      <point x="267.7272727272727" y="1506.0"/>
      <point x="35.81818181818182" y="1175.818181818182"/>
      <point x="35.81818181818182" y="727.0" type="curve" smooth="yes"/>
      <point x="35.81818181818182" y="283.09090909090907"/>
      <point x="228.0909090909091" y="-26.000000000000004"/>
    </contour>
    <contour>
      <point x="716.7272727272727" y="1422.0" type="curve" smooth="yes"/>
      <point x="900.2727272727274" y="1422.0"/>
      <point x="990.909090909091" y="1189.090909090909"/>
      <point x="990.909090909091" y="768.5454545454546" type="curve" smooth="yes"/>
      <point x="990.909090909091" y="303.9090909090909"/>
      <point x="889.6363636363635" y="59.81818181818183"/>
      <point x="714.3636363636364" y="59.81818181818183" type="curve" smooth="yes"/>
      <point x="528.0000000000001" y="59.81818181818183"/>
      <point x="437.6363636363636" y="307.81818181818187"/>
      <point x="437.6363636363636" y="727.3636363636365" type="curve" smooth="yes"/>
      <point x="437.6363636363636" y="1191.0"/>
      <point x="537.6363636363636" y="1422.0"/>
    </contour>
  </outline>
</glyph>
<glyph name="P" format="2">
  <advance width="1326.5454545454543"/>
  <unicode hex="0050"/>
  <anchor x="403.1818181818182" y="0.0" name="bottom"/>
  <anchor x="719.1818181818181" y="1486.0" name="top"/>
  <outline>
    <contour>
      <point x="180.72727272727272" y="102.0909090909091" type="line"/>
      <point x="40.18181818181819" y="71.54545454545455" type="line"/>
      <point x="40.18181818181819" y="0.0" type="line"/>
      <point x="751.0909090909091" y="0.0" type="line"/>
      <point x="751.0909090909091" y="72.18181818181819" type="line"/>
      <point x="546.0" y="101.45454545454545" type="line"/>
      <point x="546.6363636363636" y="516.7272727272726" type="line"/>
      <point x="563.6363636363636" y="514.7272727272727"/>
      <point x="628.2727272727273" y="510.09090909090907"/>
      <point x="685.2727272727273" y="510.09090909090907" type="curve" smooth="yes"/>
      <point x="1065.5454545454545" y="510.09090909090907"/>
      <point x="1285.090909090909" y="688.8181818181818"/>
      <point x="1285.090909090909" y="1034.1818181818182" type="curve" smooth="yes"/>
      <point x="1285.090909090909" y="1331.2727272727273"/>
      <point x="1132.4545454545453" y="1498.5454545454547"/>
      <point x="718.909090909091" y="1497.0" type="curve" smooth="yes"/>
      <point x="564.909090909091" y="1497.090909090909"/>
      <point x="462.4545454545455" y="1486.0"/>
      <point x="371.4545454545455" y="1486.0" type="curve" smooth="yes"/>
      <point x="43.0" y="1486.0" type="line"/>
      <point x="43.0" y="1412.5454545454545" type="line"/>
      <point x="180.72727272727272" y="1378.1818181818182" type="line"/>
    </contour>
    <contour>
      <point x="545.6363636363636" y="610.8181818181819" type="curve"/>
      <point x="545.6363636363636" y="1401.6363636363635" type="line"/>
      <point x="576.6363636363636" y="1406.6363636363635"/>
      <point x="602.6363636363637" y="1413.6363636363635"/>
      <point x="662.909090909091" y="1413.6363636363635" type="curve" smooth="yes"/>
      <point x="833.2727272727273" y="1413.6363636363635"/>
      <point x="900.090909090909" y="1251.1818181818182"/>
      <point x="900.090909090909" y="1027.1818181818182" type="curve" smooth="yes"/>
      <point x="900.090909090909" y="721.5454545454546"/>
      <point x="790.4545454545454" y="601.8181818181818"/>
      <point x="658.1818181818181" y="601.8181818181818" type="curve" smooth="yes"/>
      <point x="607.4545454545454" y="601.8181818181818"/>
      <point x="568.6363636363636" y="604.8181818181818"/>
    </contour>
  </outline>
</glyph>
<glyph name="R" format="2">
  <advance width="1428.4545454545453"/>
  <unicode hex="0052"/>
  <anchor x="787.1818181818181" y="0.0" name="bottom"/>
  <anchor x="703.1818181818181" y="1486.0" name="top"/>
  <outline>
    <contour>
      <point x="40.18181818181819" y="0.0" type="line"/>
      <point x="695.6363636363636" y="0.0" type="line"/>
      <point x="695.6363636363636" y="72.18181818181819" type="line"/>
      <point x="539.0" y="101.45454545454545" type="line"/>
      <point x="539.0" y="632.0" type="line"/>
      <point x="584.0" y="632.0"/>
      <point x="648.4545454545455" y="632.0"/>
      <point x="700.4545454545454" y="632.0" type="curve"/>
      <point x="851.4545454545455" y="577.0"/>
      <point x="925.0909090909091" y="0.0"/>
      <point x="1024.0909090909092" y="0.0" type="curve" smooth="yes"/>
      <point x="1430.4545454545455" y="0.0" type="line"/>
      <point x="1430.4545454545455" y="71.81818181818181" type="line"/>
      <point x="1378.818181818182" y="90.81818181818183" type="line"/>
      <point x="1298.4545454545455" y="118.63636363636365"/>
      <point x="1230.5454545454547" y="613.1818181818182"/>
      <point x="967.0909090909091" y="687.0000000000001" type="curve"/>
      <point x="1166.090909090909" y="748.0000000000001"/>
      <point x="1257.4545454545453" y="938.0"/>
      <point x="1257.4545454545453" y="1101.0" type="curve" smooth="yes"/>
      <point x="1257.4545454545453" y="1371.3636363636365"/>
      <point x="1105.4545454545455" y="1499.0"/>
      <point x="677.0909090909091" y="1499.0" type="curve" smooth="yes"/>
      <point x="540.6363636363636" y="1499.0"/>
      <point x="473.81818181818187" y="1486.0"/>
      <point x="347.81818181818176" y="1486.0" type="curve" smooth="yes"/>
      <point x="41.90909090909091" y="1486.0" type="line"/>
      <point x="41.90909090909091" y="1412.909090909091" type="line"/>
      <point x="178.1818181818182" y="1378.1818181818182" type="line"/>
      <point x="178.1818181818182" y="102.0909090909091" type="line"/>
      <point x="40.18181818181819" y="71.54545454545455" type="line"/>
    </contour>
    <contour>
      <point x="675.4545454545455" y="718.7272727272727" type="curve" smooth="yes"/>
      <point x="646.0909090909091" y="718.7272727272727"/>
      <point x="568.3636363636364" y="716.7272727272726"/>
      <point x="539.0" y="723.7272727272727" type="curve"/>
      <point x="539.0" y="1403.4545454545455" type="line"/>
      <point x="566.3636363636364" y="1407.4545454545455"/>
      <point x="580.3636363636363" y="1414.3636363636363"/>
      <point x="639.5454545454544" y="1414.3636363636363" type="curve" smooth="yes"/>
      <point x="816.4545454545455" y="1414.3636363636363"/>
      <point x="882.1818181818181" y="1289.090909090909"/>
      <point x="882.1818181818181" y="1089.0" type="curve" smooth="yes"/>
      <point x="882.1818181818181" y="864.0"/>
      <point x="808.2727272727273" y="718.7272727272727"/>
    </contour>
  </outline>
</glyph>
<glyph name="S" format="2">
  <advance width="1205.5454545454543"/>
  <unicode hex="0053"/>
  <anchor x="583.0909090909091" y="0.0" name="bottom"/>
  <anchor x="636.5454545454545" y="1486.0" name="top"/>
  <outline>
    <contour>
      <point x="569.7272727272726" y="-22.000000000000004" type="curve" smooth="yes"/>
      <point x="1015.7272727272727" y="-22.000000000000004"/>
      <point x="1160.8181818181818" y="202.27272727272728"/>
      <point x="1161.4545454545453" y="421.0" type="curve" smooth="yes"/>
      <point x="1162.090909090909" y="658.6363636363636"/>
      <point x="933.7272727272727" y="791.5454545454545"/>
      <point x="767.3636363636363" y="879.0" type="curve" smooth="yes"/>
      <point x="589.8181818181819" y="973.6363636363636"/>
      <point x="408.8181818181818" y="1046.6363636363637"/>
      <point x="408.8181818181818" y="1220.0000000000002" type="curve" smooth="yes"/>
      <point x="408.8181818181818" y="1327.7272727272727"/>
      <point x="471.8181818181818" y="1420.6363636363637"/>
      <point x="634.8181818181819" y="1421.909090909091" type="curve" smooth="yes"/>
      <point x="732.7272727272726" y="1422.5454545454547"/>
      <point x="801.7272727272727" y="1386.0"/>
      <point x="817.7272727272727" y="1359.2727272727273" type="curve"/>
      <point x="862.7272727272726" y="1078.0" type="line"/>
      <point x="1044.727272727273" y="1078.0" type="line"/>
      <point x="1077.090909090909" y="1434.0" type="line"/>
      <point x="1018.3636363636365" y="1439.0"/>
      <point x="865.9090909090909" y="1508.1818181818182"/>
      <point x="634.9090909090908" y="1508.1818181818182" type="curve" smooth="yes"/>
      <point x="264.45454545454544" y="1508.1818181818182"/>
      <point x="86.0909090909091" y="1304.909090909091"/>
      <point x="86.0909090909091" y="1094.0909090909092" type="curve" smooth="yes"/>
      <point x="86.0909090909091" y="813.9090909090909"/>
      <point x="310.0909090909091" y="696.090909090909"/>
      <point x="469.45454545454544" y="612.3636363636365" type="curve" smooth="yes"/>
      <point x="670.0" y="507.1818181818182"/>
      <point x="832.1818181818181" y="419.7272727272727"/>
      <point x="832.1818181818181" y="271.6363636363636" type="curve" smooth="yes"/>
      <point x="832.1818181818181" y="160.0909090909091"/>
      <point x="761.5454545454546" y="62.81818181818183"/>
      <point x="558.9090909090909" y="64.0909090909091" type="curve" smooth="yes"/>
      <point x="445.72727272727275" y="64.72727272727273"/>
      <point x="369.5454545454545" y="112.27272727272727"/>
      <point x="342.54545454545456" y="151.90909090909093" type="curve"/>
      <point x="293.54545454545456" y="439.0" type="line"/>
      <point x="105.90909090909092" y="439.0" type="line"/>
      <point x="71.0909090909091" y="66.0" type="line"/>
      <point x="138.90909090909088" y="61.0"/>
      <point x="331.3636363636364" y="-22.000000000000004"/>
    </contour>
  </outline>
</glyph>
<glyph name="T" format="2">
  <advance width="1438.3636363636365"/>
  <unicode hex="0054"/>
  <anchor x="723.7272727272726" y="0.0" name="bottom"/>
  <anchor x="1141.4545454545453" y="0.0" name="bottomright"/>
  <anchor x="719.9090909090909" y="669.4545454545455" name="center"/>
  <anchor x="722.0909090909091" y="1486.0" name="top"/>
  <outline>
    <contour>
      <point x="534.7272727272727" y="102.45454545454545" type="line"/>
      <point x="298.27272727272725" y="72.18181818181819" type="line"/>
      <point x="298.27272727272725" y="0.0" type="line"/>
      <point x="1140.0909090909092" y="0.0" type="line"/>
      <point x="1140.0909090909092" y="72.18181818181819" type="line"/>
      <point x="903.6363636363636" y="102.45454545454545" type="line"/>
      <point x="903.6363636363636" y="1401.0" type="line"/>
      <point x="1086.4545454545455" y="1385.909090909091" type="line"/>
      <point x="1233.0" y="908.7272727272727" type="line"/>
      <point x="1400.818181818182" y="908.7272727272727" type="line"/>
      <point x="1368.8181818181818" y="1486.0" type="line"/>
      <point x="69.54545454545455" y="1486.0" type="line"/>
      <point x="37.54545454545453" y="908.7272727272727" type="line"/>
      <point x="204.09090909090907" y="908.7272727272727" type="line"/>
      <point x="353.27272727272725" y="1385.909090909091" type="line"/>
      <point x="534.7272727272727" y="1401.0" type="line"/>
    </contour>
  </outline>
</glyph>
<glyph name="U" format="2">
  <advance width="1404.9999999999998"/>
  <unicode hex="0055"/>
  <anchor x="785.9090909090909" y="0.0" name="bottom"/>
  <anchor x="842.5454545454545" y="20.0" name="ogonek"/>
  <anchor x="781.1818181818181" y="1486.0" name="top"/>
  <anchor x="1448.9999999999998" y="1486.0" name="topright"/>
  <outline>
    <contour>
      <point x="763.1818181818182" y="-16.0" type="curve" smooth="yes"/>
      <point x="1026.6363636363637" y="-16.0"/>
      <point x="1259.0000000000002" y="135.36363636363635"/>
      <point x="1259.0" y="567.4545454545454" type="curve" smooth="yes"/>
      <point x="1259.0000000000002" y="1378.181818181818" type="line"/>
      <point x="1390.0" y="1412.5454545454545" type="line"/>
      <point x="1390.0" y="1486.0" type="line"/>
      <point x="979.7272727272727" y="1486.0" type="line"/>
      <point x="979.7272727272727" y="1412.5454545454545" type="line"/>
      <point x="1135.909090909091" y="1377.8181818181818" type="line"/>
      <point x="1135.909090909091" y="560.5454545454545" type="line" smooth="yes"/>
      <point x="1135.909090909091" y="242.45454545454547"/>
      <point x="1001.2727272727273" y="67.0"/>
      <point x="800.4545454545455" y="67.0" type="curve" smooth="yes"/>
      <point x="623.9090909090909" y="67.0"/>
      <point x="528.1818181818181" y="195.54545454545453"/>
      <point x="528.1818181818181" y="488.54545454545445" type="curve" smooth="yes"/>
      <point x="528.1818181818181" y="1377.090909090909" type="line"/>
      <point x="680.5454545454546" y="1412.5454545454545" type="line"/>
      <point x="680.5454545454546" y="1486.0" type="line"/>
      <point x="24.363636363636367" y="1486.0" type="line"/>
      <point x="24.363636363636367" y="1412.5454545454545" type="line"/>
      <point x="154.45454545454544" y="1378.181818181818" type="line"/>
      <point x="154.45454545454544" y="551.5454545454546" type="line" smooth="yes"/>
      <point x="154.45454545454544" y="148.36363636363637"/>
      <point x="363.4545454545455" y="-16.0"/>
    </contour>
  </outline>
</glyph>
<glyph name="V" format="2">
  <advance width="1335.4545454545453"/>
  <unicode hex="0056"/>
  <outline>
    <contour>
      <point x="-40.909090909090914" y="1413.818181818182" type="line"/>
      <point x="67.54545454545455" y="1381.3636363636363" type="line"/>
      <point x="559.1818181818182" y="-5.454545454545455" type="line"/>
      <point x="816.8181818181818" y="-5.454545454545455" type="line"/>
      <point x="1273.3636363636365" y="1381.3636363636363" type="line"/>
      <point x="1403.6363636363635" y="1413.818181818182" type="line"/>
      <point x="1403.6363636363635" y="1486.0" type="line"/>
      <point x="979.909090909091" y="1486.0" type="line"/>
      <point x="979.909090909091" y="1413.818181818182" type="line"/>
      <point x="1126.0909090909092" y="1381.3636363636363" type="line"/>
      <point x="837.4545454545454" y="420.81818181818187" type="line"/>
      <point x="801.5454545454545" y="285.1818181818182" type="line"/>
      <point x="764.3636363636363" y="423.0" type="line"/>
      <point x="469.8181818181818" y="1381.7272727272727" type="line"/>
      <point x="626.8181818181818" y="1413.818181818182" type="line"/>
      <point x="626.8181818181818" y="1486.0" type="line"/>
      <point x="-40.909090909090914" y="1486.0" type="line"/>
    </contour>
  </outline>
</glyph>
<glyph name="W" format="2">
  <advance width="1912.4545454545455"/>
  <unicode hex="0057"/>
  <anchor x="993.3636363636364" y="0.0" name="bottom"/>
  <anchor x="1005.7272727272727" y="1486.0" name="top"/>
  <outline>
    <contour>
      <point x="-48.09090909090909" y="1413.8181818181818" type="line"/>
      <point x="64.45454545454545" y="1381.0" type="line"/>
      <point x="448.45454545454544" y="-3.6363636363636367" type="line"/>
      <point x="729.1818181818182" y="-3.6363636363636367" type="line"/>
      <point x="971.8181818181819" y="868.2727272727273" type="line"/>
      <point x="1201.5454545454547" y="-3.6363636363636367" type="line"/>
      <point x="1486.2727272727273" y="-3.6363636363636367" type="line"/>
      <point x="1840.909090909091" y="1382.0" type="line"/>
      <point x="1960.181818181818" y="1413.8181818181818" type="line"/>
      <point x="1960.181818181818" y="1486.0" type="line"/>
      <point x="1558.5454545454545" y="1486.0" type="line"/>
      <point x="1558.5454545454545" y="1413.8181818181818" type="line"/>
      <point x="1712.6363636363637" y="1382.0" type="line"/>
      <point x="1497.0" y="439.54545454545456" type="line"/>
      <point x="1458.909090909091" y="244.1818181818182" type="line"/>
      <point x="1415.5454545454543" y="439.54545454545456" type="line"/>
      <point x="1196.909090909091" y="1382.0" type="line"/>
      <point x="1338.5454545454547" y="1413.8181818181818" type="line"/>
      <point x="1338.5454545454547" y="1486.0" type="line"/>
      <point x="716.0909090909091" y="1486.0" type="line"/>
      <point x="716.0909090909091" y="1413.8181818181818" type="line"/>
      <point x="821.3636363636364" y="1382.0" type="line"/>
      <point x="913.3636363636364" y="1052.5454545454547" type="line"/>
      <point x="746.0" y="439.54545454545456" type="line"/>
      <point x="700.909090909091" y="250.36363636363637" type="line"/>
      <point x="662.2727272727274" y="439.54545454545456" type="line"/>
      <point x="437.90909090909093" y="1382.0" type="line"/>
      <point x="566.7272727272727" y="1413.8181818181818" type="line"/>
      <point x="566.7272727272727" y="1486.0" type="line"/>
      <point x="-48.09090909090909" y="1486.0" type="line"/>
    </contour>
  </outline>
</glyph>
<glyph name="X" format="2">
  <advance width="1471.727272727273"/>
  <unicode hex="0058"/>
  <anchor x="1460.727272727273" y="0.0" name="bottomright"/>
  <outline>
    <contour>
      <point x="216.72727272727272" y="100.81818181818183" type="line"/>
      <point x="17.363636363636363" y="72.18181818181819" type="line"/>
      <point x="17.363636363636363" y="0.0" type="line"/>
      <point x="570.3636363636364" y="0.0" type="line"/>
      <point x="570.3636363636364" y="72.18181818181819" type="line"/>
      <point x="368.4545454545454" y="100.81818181818183" type="line"/>
      <point x="635.3636363636364" y="593.4545454545454" type="line"/>
      <point x="905.2727272727274" y="101.81818181818183" type="line"/>
      <point x="749.2727272727273" y="72.18181818181819" type="line"/>
      <point x="749.2727272727273" y="0.0" type="line"/>
      <point x="1454.3636363636363" y="0.0" type="line"/>
      <point x="1454.3636363636363" y="72.18181818181819" type="line"/>
      <point x="1322.3636363636363" y="101.81818181818183" type="line"/>
      <point x="891.0909090909091" y="828.1818181818181" type="line"/>
      <point x="1251.2727272727273" y="1377.8181818181818" type="line"/>
      <point x="1433.3636363636363" y="1412.5454545454545" type="line"/>
      <point x="1433.3636363636363" y="1486.0" type="line"/>
      <point x="906.3636363636364" y="1486.0" type="line"/>
      <point x="906.3636363636364" y="1412.5454545454545" type="line"/>
      <point x="1102.3636363636365" y="1378.8181818181818" type="line"/>
      <point x="839.0909090909091" y="902.0909090909091" type="line"/>
      <point x="580.4545454545454" y="1376.8181818181818" type="line"/>
      <point x="737.4545454545454" y="1412.5454545454545" type="line"/>
      <point x="737.4545454545454" y="1486.0" type="line"/>
      <point x="29.363636363636363" y="1486.0" type="line"/>
      <point x="29.363636363636363" y="1412.5454545454545" type="line"/>
      <point x="161.36363636363635" y="1377.8181818181818" type="line"/>
      <point x="581.5454545454545" y="673.0" type="line"/>
    </contour>
  </outline>
</glyph>
<glyph name="Y" format="2">
  <advance width="1298.6363636363637"/>
  <unicode hex="0059"/>
  <anchor x="658.9090909090909" y="0.0" name="bottom"/>
  <anchor x="658.0141818181819" y="547.0" name="center"/>
  <anchor x="691.8181818181818" y="1486.0" name="top"/>
  <anchor x="37.81818181818181" y="1486.0" name="topleft"/>
  <outline>
    <contour>
      <point x="461.6363636363636" y="101.81818181818181" type="line"/>
      <point x="273.4545454545455" y="72.18181818181819" type="line"/>
      <point x="273.4545454545455" y="0.0" type="line"/>
      <point x="1037.0" y="0.0" type="line"/>
      <point x="1037.0" y="72.18181818181819" type="line"/>
      <point x="836.7272727272726" y="100.8181818181818" type="line"/>
      <point x="836.7272727272726" y="608.8181818181818" type="line"/>
      <point x="1204.4545454545453" y="1382.181818181818" type="line"/>
      <point x="1367.181818181818" y="1412.5454545454545" type="line"/>
      <point x="1367.181818181818" y="1486.0" type="line"/>
      <point x="856.1818181818182" y="1486.0" type="line"/>
      <point x="856.1818181818182" y="1412.5454545454545" type="line"/>
      <point x="1053.4545454545455" y="1378.181818181818" type="line"/>
      <point x="825.0909090909091" y="809.3636363636364" type="line"/>
      <point x="774.0909090909091" y="688.0" type="line"/>
      <point x="724.0909090909091" y="808.7272727272727" type="line"/>
      <point x="471.90909090909093" y="1378.181818181818" type="line"/>
      <point x="597.1818181818182" y="1412.5454545454545" type="line"/>
      <point x="597.1818181818182" y="1486.0" type="line"/>
      <point x="-41.18181818181819" y="1486.0" type="line"/>
      <point x="-41.18181818181819" y="1412.5454545454545" type="line"/>
      <point x="69.81818181818181" y="1379.181818181818" type="line"/>
      <point x="461.6363636363636" y="585.1818181818181" type="line"/>
    </contour>
  </outline>
</glyph>
<glyph name="Z" format="2">
  <advance width="1292.8181818181818"/>
  <unicode hex="005A"/>
  <anchor x="642.2727272727273" y="0.0" name="bottom"/>
  <anchor x="665.2727272727273" y="1486.0" name="top"/>
  <outline>
    <contour>
      <point x="737.2727272727274" y="1259.0909090909092" type="line"/>
      <point x="28.363636363636363" y="63.18181818181818" type="line"/>
      <point x="63.272727272727266" y="0.0" type="line"/>
      <point x="1207.5454545454545" y="0.0" type="line"/>
      <point x="1257.0" y="448.3636363636363" type="line"/>
      <point x="1084.0" y="481.45454545454544" type="line"/>
      <point x="945.0909090909091" y="129.1818181818182" type="line"/>
      <point x="425.90909090909093" y="84.36363636363636" type="line"/>
      <point x="547.9090909090909" y="233.54545454545456" type="line"/>
      <point x="1251.181818181818" y="1425.4545454545455" type="line"/>
      <point x="1220.2727272727273" y="1487.818181818182" type="line"/>
      <point x="138.54545454545456" y="1487.818181818182" type="line"/>
      <point x="108.63636363636364" y="1084.0" type="line"/>
      <point x="276.8181818181818" y="1059.0" type="line"/>
      <point x="387.8181818181818" y="1377.2727272727273" type="line"/>
      <point x="859.2727272727273" y="1406.2727272727273" type="line"/>
    </contour>
  </outline>
</glyph>
<glyph name="bracketleft" format="2">
  <advance width="906.6363636363637"/>
  <unicode hex="005B"/>
  <outline>
    <contour>
      <point x="188.0" y="1388.1818181818182" type="curve"/>
      <point x="188.0" y="-54.18181818181819" type="line" smooth="yes"/>
      <point x="188.0" y="-239.1818181818182"/>
      <point x="277.90909090909093" y="-274.0"/>
      <point x="432.9090909090909" y="-274.0" type="curve" smooth="yes"/>
      <point x="538.9090909090909" y="-274.0"/>
      <point x="629.9090909090909" y="-255.0"/>
      <point x="710.6363636363636" y="-234.0" type="curve"/>
      <point x="710.6363636363636" y="-169.36363636363635" type="line"/>
      <point x="495.909090909091" y="-169.36363636363635" type="line"/>
      <point x="495.909090909091" y="1505.3636363636365" type="line"/>
      <point x="710.6363636363636" y="1505.3636363636365" type="line"/>
      <point x="710.6363636363636" y="1568.0" type="line"/>
      <point x="629.6363636363637" y="1587.0"/>
      <point x="539.9090909090909" y="1608.0"/>
      <point x="432.9090909090909" y="1608.0" type="curve" smooth="yes"/>
      <point x="277.90909090909093" y="1608.0"/>
      <point x="188.0" y="1573.181818181818"/>
    </contour>
  </outline>
</glyph>
<glyph name="backslash" format="2">
  <advance width="748.0909090909091"/>
  <unicode hex="005C"/>
  <outline>
    <contour>
      <point x="680.6363636363636" y="-354.0" type="line"/>
      <point x="174.45454545454547" y="1562.0" type="line"/>
      <point x="33.272727272727266" y="1562.0" type="line"/>
      <point x="537.4545454545455" y="-354.0" type="line"/>
    </contour>
  </outline>
</glyph>
<glyph name="bracketright" format="2">
  <advance width="886.6363636363637"/>
  <unicode hex="005D"/>
  <outline>
    <contour>
      <point x="698.6363636363637" y="1388.1818181818182" type="line"/>
      <point x="698.6363636363637" y="1573.181818181818"/>
      <point x="628.7272727272727" y="1608.0"/>
      <point x="473.72727272727275" y="1608.0" type="curve" smooth="yes"/>
      <point x="366.72727272727275" y="1608.0"/>
      <point x="277.0" y="1587.0"/>
      <point x="196.0" y="1568.0" type="curve"/>
      <point x="196.0" y="1505.3636363636365" type="line"/>
      <point x="410.7272727272727" y="1505.3636363636365" type="line"/>
      <point x="410.7272727272727" y="-169.36363636363635" type="line"/>
      <point x="196.0" y="-169.36363636363635" type="line"/>
      <point x="196.0" y="-234.0" type="line"/>
      <point x="276.72727272727275" y="-255.0"/>
      <point x="367.7272727272727" y="-274.0"/>
      <point x="473.72727272727275" y="-274.0" type="curve" smooth="yes"/>
      <point x="628.7272727272727" y="-274.0"/>
      <point x="698.6363636363637" y="-239.1818181818182"/>
      <point x="698.6363636363637" y="-54.18181818181819" type="curve" smooth="yes"/>
    </contour>
  </outline>
</glyph>
<glyph name="asciicircum" format="2">
  <advance width="1249.2727272727275"/>
  <unicode hex="005E"/>
  <outline>
    <contour>
      <point x="689.3636363636364" y="1496.0" type="line"/>
      <point x="555.1818181818181" y="1496.0" type="line"/>
      <point x="154.99999999999997" y="267.0" type="line"/>
      <point x="295.09090909090907" y="267.0" type="line"/>
      <point x="624.5454545454546" y="1278.7272727272727" type="line"/>
      <point x="942.909090909091" y="267.0" type="line"/>
      <point x="1094.2727272727273" y="267.0" type="line"/>
    </contour>
  </outline>
</glyph>
<glyph name="a" format="2">
  <advance width="1044.2727272727273"/>
  <unicode hex="0061"/>
  <anchor x="501.72727272727263" y="0.0" name="bottom"/>
  <anchor x="807.5454545454546" y="20.0" name="ogonek"/>
  <anchor x="520.8181818181819" y="1110.3636363636363" name="top"/>
  <outline>
    <contour>
      <point x="22.454545454545453" y="282.4545454545455" type="curve" smooth="yes"/>
      <point x="22.454545454545453" y="95.63636363636364"/>
      <point x="145.0" y="-22.636363636363637"/>
      <point x="322.2727272727272" y="-22.636363636363637" type="curve" smooth="yes"/>
      <point x="475.4545454545455" y="-22.636363636363637"/>
      <point x="582.7272727272726" y="67.36363636363637"/>
      <point x="621.6363636363636" y="145.0909090909091" type="curve"/>
      <point x="621.6363636363636" y="75.54545454545455" type="line" smooth="yes"/>
      <point x="621.6363636363636" y="-7.000000000000001"/>
      <point x="667.5454545454545" y="-20.818181818181817"/>
      <point x="764.1818181818181" y="-20.818181818181817" type="curve" smooth="yes"/>
      <point x="861.6363636363637" y="-20.818181818181817"/>
      <point x="977.8181818181818" y="0.45454545454545414"/>
      <point x="1022.2727272727274" y="9.818181818181818" type="curve"/>
      <point x="1022.2727272727274" y="78.54545454545455" type="line"/>
      <point x="938.3636363636364" y="91.27272727272727" type="line"/>
      <point x="938.3636363636364" y="695.8181818181818" type="line" smooth="yes"/>
      <point x="938.3636363636364" y="966.5454545454545"/>
      <point x="804.6363636363637" y="1072.4545454545455"/>
      <point x="546.7272727272727" y="1072.4545454545455" type="curve" smooth="yes"/>
      <point x="309.4545454545455" y="1072.4545454545455"/>
      <point x="141.8181818181818" y="974.4545454545455"/>
      <point x="79.99999999999999" y="915.6363636363637" type="curve"/>
      <point x="121.36363636363633" y="829.1818181818182" type="line"/>
      <point x="178.36363636363637" y="851.8181818181819"/>
      <point x="287.09090909090907" y="894.0909090909091"/>
      <point x="424.18181818181813" y="894.0909090909091" type="curve" smooth="yes"/>
      <point x="557.7272727272727" y="894.0909090909091"/>
      <point x="612.9090909090909" y="827.3636363636365"/>
      <point x="612.909090909091" y="722.818181818182" type="curve" smooth="yes"/>
      <point x="612.9090909090909" y="631.6363636363636" type="line"/>
      <point x="321.0" y="630.5454545454545"/>
      <point x="22.454545454545453" y="534.3636363636364"/>
    </contour>
    <contour>
      <point x="491.9090909090909" y="144.45454545454544" type="curve" smooth="yes"/>
      <point x="413.63636363636357" y="144.45454545454544"/>
      <point x="362.0" y="216.72727272727275"/>
      <point x="362.0" y="325.27272727272725" type="curve" smooth="yes"/>
      <point x="362.0" y="449.0909090909091"/>
      <point x="425.00000000000006" y="545.6363636363636"/>
      <point x="612.9090909090909" y="546.6363636363635" type="curve"/>
      <point x="612.9090909090909" y="202.18181818181816" type="line"/>
      <point x="585.909090909091" y="164.72727272727272"/>
      <point x="530.0909090909091" y="144.45454545454544"/>
    </contour>
  </outline>
</glyph>
<glyph name="b" format="2">
  <advance width="1175.0000000000002"/>
  <unicode hex="0062"/>
  <anchor x="550.9090909090909" y="-3.0" name="bottom"/>
  <anchor x="800.909090909091" y="1111.0" name="top"/>
  <outline>
    <contour>
      <point x="-5.27272727272727" y="1478.909090909091" type="line"/>
      <point x="117.00000000000001" y="1439.1818181818182" type="line"/>
      <point x="117.00000000000001" y="54.0" type="line"/>
      <point x="145.0" y="35.0"/>
      <point x="295.27272727272737" y="-22.0"/>
      <point x="593.2727272727273" y="-22.0" type="curve" smooth="yes"/>
      <point x="889.0" y="-22.0"/>
      <point x="1123.0" y="203.00000000000003"/>
      <point x="1123.0" y="580.5454545454545" type="curve" smooth="yes"/>
      <point x="1123.0" y="905.0909090909091"/>
      <point x="973.9999999999999" y="1078.909090909091"/>
      <point x="721.6363636363636" y="1078.909090909091" type="curve" smooth="yes"/>
      <point x="592.8181818181819" y="1078.909090909091"/>
      <point x="478.63636363636357" y="996.6363636363635"/>
      <point x="444.3636363636364" y="938.0909090909091" type="curve"/>
      <point x="444.3636363636364" y="1593.6363636363637" type="line"/>
      <point x="386.3636363636364" y="1635.8181818181818" type="line"/>
      <point x="360.72727272727275" y="1635.8181818181818" type="line"/>
      <point x="-5.27272727272727" y="1545.5454545454545" type="line"/>
    </contour>
    <contour>
      <point x="583.0000000000001" y="921.7272727272727" type="curve" smooth="yes"/>
      <point x="683.9999999999999" y="921.7272727272727"/>
      <point x="768.1818181818182" y="828.7272727272727"/>
      <point x="767.090909090909" y="535.0909090909091" type="curve" smooth="yes"/>
      <point x="765.9999999999999" y="217.45454545454547"/>
      <point x="703.9090909090909" y="60.63636363636364"/>
      <point x="578.4545454545454" y="60.63636363636363" type="curve" smooth="yes"/>
      <point x="523.7272727272726" y="60.63636363636364"/>
      <point x="463.3636363636363" y="83.72727272727272"/>
      <point x="444.3636363636364" y="125.00000000000001" type="curve"/>
      <point x="444.3636363636364" y="848.6363636363636" type="line"/>
      <point x="464.54545454545456" y="872.5454545454544"/>
      <point x="503.0" y="921.7272727272727"/>
    </contour>
  </outline>
</glyph>
<glyph name="c" format="2">
  <advance width="952.5454545454546"/>
  <unicode hex="0063"/>
  <anchor x="499.81818181818187" y="0.0" name="bottom"/>
  <anchor x="556.1818181818182" y="1110.3636363636363" name="top"/>
  <outline>
    <contour>
      <point x="38.63636363636363" y="509.81818181818176" type="curve" smooth="yes"/>
      <point x="38.63636363636363" y="199.0"/>
      <point x="194.00000000000003" y="-22.0"/>
      <point x="526.0" y="-22.0" type="curve" smooth="yes"/>
      <point x="702.0909090909091" y="-22.0"/>
      <point x="863.6363636363637" y="71.36363636363636"/>
      <point x="914.5454545454545" y="129.8181818181818" type="curve"/>
      <point x="879.7272727272726" y="208.3636363636364" type="line"/>
      <point x="823.090909090909" y="167.1818181818182"/>
      <point x="731.6363636363637" y="138.72727272727272"/>
      <point x="653.4545454545455" y="138.72727272727272" type="curve" smooth="yes"/>
      <point x="504.72727272727275" y="138.72727272727272"/>
      <point x="400.3636363636363" y="263.09090909090907"/>
      <point x="400.7272727272727" y="568.8181818181819" type="curve" smooth="yes"/>
      <point x="401.4545454545454" y="881.6363636363636"/>
      <point x="466.2727272727273" y="990.2727272727273"/>
      <point x="572.0909090909091" y="990.2727272727273" type="curve" smooth="yes"/>
      <point x="614.3636363636364" y="990.2727272727273"/>
      <point x="651.2727272727274" y="946.4545454545455"/>
      <point x="664.3636363636363" y="889.4545454545455" type="curve" smooth="yes"/>
      <point x="709.9999999999999" y="689.0" type="line"/>
      <point x="896.7272727272727" y="689.0" type="line"/>
      <point x="909.4545454545454" y="1010.6363636363636" type="line"/>
      <point x="843.1818181818181" y="1018.9999999999999"/>
      <point x="762.3636363636364" y="1077.6363636363637"/>
      <point x="575.0909090909091" y="1077.6363636363637" type="curve" smooth="yes"/>
      <point x="254.36363636363637" y="1077.6363636363637"/>
      <point x="38.63636363636363" y="858.0"/>
    </contour>
  </outline>
</glyph>
<glyph name="d" format="2">
  <advance width="1177.9090909090908"/>
  <unicode hex="0064"/>
  <anchor x="594.4545454545455" y="1.7763568394002505e-15" name="bottom"/>
  <anchor x="555.0" y="568.7272727272727" name="center"/>
  <anchor x="333.0" y="1158.0" name="top"/>
  <anchor x="1189.3636363636365" y="1111.0" name="topright"/>
  <outline>
    <contour>
      <point x="453.27272727272725" y="-22.636363636363637" type="curve" smooth="yes"/>
      <point x="592.090909090909" y="-22.636363636363633"/>
      <point x="706.2727272727274" y="54.18181818181818"/>
      <point x="749.909090909091" y="142.45454545454547" type="curve"/>
      <point x="749.909090909091" y="74.27272727272727" type="line" smooth="yes"/>
      <point x="749.909090909091" y="-9.18181818181818"/>
      <point x="812.0" y="-20.818181818181817"/>
      <point x="893.6363636363637" y="-20.818181818181817" type="curve" smooth="yes"/>
      <point x="989.4545454545454" y="-20.818181818181817"/>
      <point x="1103.2727272727273" y="-0.2727272727272727"/>
      <point x="1152.4545454545455" y="9.818181818181818" type="curve"/>
      <point x="1152.4545454545455" y="85.63636363636364" type="line"/>
      <point x="1063.181818181818" y="85.63636363636364" type="line"/>
      <point x="1063.181818181818" y="1602.1818181818182" type="line"/>
      <point x="1026.0" y="1635.8181818181818" type="line"/>
      <point x="984.909090909091" y="1635.8181818181818" type="line"/>
      <point x="574.0" y="1561.1818181818182" type="line"/>
      <point x="574.0" y="1496.5454545454545" type="line"/>
      <point x="733.5454545454545" y="1468.8181818181818" type="line"/>
      <point x="733.5454545454545" y="1043.9090909090908" type="line"/>
      <point x="701.7272727272729" y="1062.7272727272727"/>
      <point x="641.0" y="1077.6363636363637"/>
      <point x="577.6363636363636" y="1077.6363636363637" type="curve" smooth="yes"/>
      <point x="274.09090909090907" y="1077.6363636363637"/>
      <point x="47.27272727272727" y="869.1818181818181"/>
      <point x="47.27272727272727" y="482.54545454545456" type="curve" smooth="yes"/>
      <point x="47.27272727272727" y="135.0"/>
      <point x="241.9090909090909" y="-22.636363636363637"/>
    </contour>
    <contour>
      <point x="593.9090909090909" y="130.36363636363637" type="curve" smooth="yes"/>
      <point x="493.0" y="130.36363636363637"/>
      <point x="409.7272727272727" y="225.72727272727275"/>
      <point x="410.45454545454544" y="528.0000000000001" type="curve" smooth="yes"/>
      <point x="411.54545454545456" y="844.6363636363636"/>
      <point x="476.90909090909093" y="987.3636363636363"/>
      <point x="611.2727272727274" y="987.3636363636363" type="curve" smooth="yes"/>
      <point x="665.0909090909091" y="987.3636363636363"/>
      <point x="712.7272727272727" y="963.9090909090909"/>
      <point x="733.5454545454545" y="923.7272727272727" type="curve"/>
      <point x="733.5454545454545" y="203.54545454545453" type="line"/>
      <point x="710.9090909090909" y="166.54545454545456"/>
      <point x="663.1818181818181" y="130.36363636363637"/>
    </contour>
  </outline>
</glyph>
<glyph name="e" format="2">
  <advance width="1016.5454545454547"/>
  <unicode hex="0065"/>
  <anchor x="508.36363636363643" y="0.0" name="bottom"/>
  <anchor x="593.1818181818182" y="20.0" name="ogonek"/>
  <anchor x="554.7272727272726" y="1110.0" name="top"/>
  <outline>
    <contour>
      <point x="547.6363636363636" y="-23.272727272727273" type="curve" smooth="yes"/>
      <point x="726.4545454545454" y="-23.272727272727273"/>
      <point x="899.2727272727271" y="68.63636363636364"/>
      <point x="956.090909090909" y="131.45454545454547" type="curve"/>
      <point x="919.1818181818182" y="211.0909090909091" type="line"/>
      <point x="861.7272727272727" y="169.9090909090909"/>
      <point x="749.3636363636363" y="138.90909090909093"/>
      <point x="665.6363636363635" y="138.90909090909093" type="curve" smooth="yes"/>
      <point x="492.09090909090907" y="138.90909090909093"/>
      <point x="398.6363636363636" y="239.0"/>
      <point x="387.1818181818182" y="497.45454545454544" type="curve"/>
      <point x="964.5454545454546" y="497.45454545454544" type="line"/>
      <point x="974.9090909090909" y="533.8181818181818"/>
      <point x="980.909090909091" y="598.4545454545455"/>
      <point x="980.909090909091" y="696.4545454545455" type="curve"/>
      <point x="976.5454545454546" y="940.6363636363636"/>
      <point x="825.7272727272727" y="1077.6363636363635"/>
      <point x="558.6363636363636" y="1077.6363636363635" type="curve" smooth="yes"/>
      <point x="245.4545454545454" y="1077.6363636363635"/>
      <point x="34.18181818181819" y="863.6363636363636"/>
      <point x="34.18181818181819" y="510.81818181818176" type="curve" smooth="yes"/>
      <point x="34.18181818181819" y="188.36363636363637"/>
      <point x="185.63636363636363" y="-23.272727272727273"/>
    </contour>
    <contour>
      <point x="385.1818181818182" y="575.7272727272726" type="line"/>
      <point x="382.27272727272725" y="897.3636363636363"/>
      <point x="455.27272727272725" y="991.4545454545454"/>
      <point x="535.0000000000001" y="991.4545454545454" type="curve" smooth="yes"/>
      <point x="623.8181818181818" y="991.4545454545454"/>
      <point x="644.9090909090909" y="892.7272727272727"/>
      <point x="644.9090909090909" y="709.0" type="curve" smooth="yes"/>
      <point x="644.9090909090909" y="681.0"/>
      <point x="642.9090909090909" y="617.7272727272727"/>
      <point x="642.5454545454545" y="589.090909090909" type="curve"/>
    </contour>
  </outline>
</glyph>
<glyph name="f" format="2">
  <advance width="706.4545454545455"/>
  <unicode hex="0066"/>
  <anchor x="420.6363636363637" y="1565.7272727272727" name="top"/>
  <outline>
    <contour>
      <point x="176.63636363636363" y="100.72727272727273" type="line"/>
      <point x="49.45454545454545" y="72.18181818181817" type="line"/>
      <point x="49.45454545454545" y="0.0" type="line"/>
      <point x="666.8181818181818" y="0.0" type="line"/>
      <point x="666.8181818181818" y="72.18181818181817" type="line"/>
      <point x="503.2727272727273" y="100.36363636363637" type="line"/>
      <point x="503.27272727272737" y="920.4545454545455" type="line"/>
      <point x="692.7272727272727" y="920.4545454545455" type="line"/>
      <point x="692.7272727272727" y="1043.5454545454545" type="line"/>
      <point x="503.27272727272737" y="1043.5454545454545" type="line"/>
      <point x="503.27272727272725" y="1317.5454545454543" type="line" smooth="yes"/>
      <point x="503.27272727272725" y="1435.6363636363635"/>
      <point x="538.7272727272727" y="1474.090909090909"/>
      <point x="623.6363636363636" y="1474.090909090909" type="curve" smooth="yes"/>
      <point x="688.7272727272727" y="1474.090909090909"/>
      <point x="779.0909090909092" y="1446.0"/>
      <point x="824.8181818181819" y="1414.0" type="curve"/>
      <point x="825.1818181818182" y="1649.7272727272725" type="line"/>
      <point x="808.5454545454546" y="1658.5454545454545"/>
      <point x="770.3636363636364" y="1667.0909090909092"/>
      <point x="696.9090909090909" y="1667.0909090909092" type="curve" smooth="yes"/>
      <point x="442.81818181818187" y="1667.0909090909092"/>
      <point x="176.63636363636363" y="1419.5454545454545"/>
      <point x="176.63636363636363" y="1111.9090909090908" type="curve" smooth="yes"/>
      <point x="176.63636363636363" y="1041.818181818182" type="line"/>
      <point x="46.09090909090909" y="989.3636363636364" type="line"/>
      <point x="46.09090909090909" y="920.4545454545455" type="line"/>
      <point x="176.63636363636363" y="920.4545454545455" type="line"/>
    </contour>
  </outline>
</glyph>
<glyph name="g" format="2">
  <advance width="1173.090909090909"/>
  <unicode hex="0067"/>
  <anchor x="588.0" y="0.0" name="bottom"/>
  <anchor x="576.7272727272727" y="1110.3636363636365" name="top"/>
  <outline>
    <contour>
      <point x="529.2727272727274" y="-501.8181818181818" type="curve"/>
      <point x="863.1818181818181" y="-501.8181818181818"/>
      <point x="1157.5454545454545" y="-345.1818181818182"/>
      <point x="1157.5454545454545" y="-83.27272727272727" type="curve" smooth="yes"/>
      <point x="1157.5454545454545" y="100.45454545454545"/>
      <point x="1018.2727272727273" y="202.27272727272728"/>
      <point x="767.0000000000001" y="202.27272727272728" type="curve" smooth="yes"/>
      <point x="555.9090909090908" y="202.27272727272728" type="line" smooth="yes"/>
      <point x="387.54545454545456" y="202.27272727272728"/>
      <point x="332.0" y="229.1818181818182"/>
      <point x="332.0" y="294.90909090909093" type="curve" smooth="yes"/>
      <point x="332.0" y="324.54545454545456"/>
      <point x="340.4545454545455" y="344.0909090909091"/>
      <point x="363.1818181818182" y="365.6363636363636" type="curve"/>
      <point x="407.2727272727273" y="357.9090909090909"/>
      <point x="475.00000000000006" y="354.1818181818182"/>
      <point x="532.4545454545455" y="354.1818181818182" type="curve" smooth="yes"/>
      <point x="819.6363636363636" y="354.1818181818182"/>
      <point x="1020.7272727272727" y="493.8181818181818"/>
      <point x="1020.3636363636364" y="719.8181818181819" type="curve" smooth="yes"/>
      <point x="1020.3636363636364" y="760.2727272727273"/>
      <point x="1008.909090909091" y="834.5454545454546"/>
      <point x="992.090909090909" y="858.0" type="curve"/>
      <point x="1160.5454545454545" y="858.0" type="line"/>
      <point x="1160.5454545454545" y="1075.9090909090908" type="line"/>
      <point x="1103.1818181818182" y="1075.9090909090908" type="line" smooth="yes"/>
      <point x="1015.2727272727274" y="1075.9090909090908"/>
      <point x="957.1818181818182" y="1026.2727272727273"/>
      <point x="927.090909090909" y="964.6363636363636" type="curve"/>
      <point x="849.1818181818182" y="1042.4545454545457"/>
      <point x="731.1818181818181" y="1068.7272727272727"/>
      <point x="564.9090909090909" y="1068.7272727272727" type="curve" smooth="yes"/>
      <point x="294.90909090909093" y="1068.7272727272727"/>
      <point x="74.0909090909091" y="936.7272727272727"/>
      <point x="74.0909090909091" y="712.1818181818182" type="curve" smooth="yes"/>
      <point x="74.0909090909091" y="565.8181818181819"/>
      <point x="140.45454545454547" y="442.72727272727275"/>
      <point x="295.18181818181824" y="384.6363636363636" type="curve"/>
      <point x="189.1818181818182" y="338.0909090909091"/>
      <point x="127.45454545454545" y="261.8181818181818"/>
      <point x="127.45454545454545" y="166.27272727272728" type="curve" smooth="yes"/>
      <point x="127.45454545454545" y="84.0909090909091"/>
      <point x="159.54545454545456" y="19.63636363636364"/>
      <point x="234.45454545454547" y="-26.999999999999993" type="curve"/>
      <point x="110.18181818181819" y="-51.45454545454545"/>
      <point x="22.545454545454547" y="-128.8181818181818"/>
      <point x="22.545454545454547" y="-234.8181818181818" type="curve" smooth="yes"/>
      <point x="22.545454545454547" y="-435.1818181818182"/>
      <point x="272.27272727272725" y="-501.8181818181818"/>
    </contour>
    <contour>
      <point x="565.0000000000001" y="-408.09090909090907" type="curve"/>
      <point x="414.54545454545456" y="-407.45454545454544"/>
      <point x="290.0" y="-333.09090909090907"/>
      <point x="290.0" y="-176.0909090909091" type="curve" smooth="yes"/>
      <point x="290.0" y="-114.45454545454547"/>
      <point x="307.0" y="-79.0909090909091"/>
      <point x="324.3636363636364" y="-53.909090909090914" type="curve"/>
      <point x="365.4545454545455" y="-63.909090909090914"/>
      <point x="421.0" y="-72.9090909090909"/>
      <point x="482.63636363636357" y="-72.9090909090909" type="curve" smooth="yes"/>
      <point x="663.8181818181819" y="-72.9090909090909" type="line" smooth="yes"/>
      <point x="798.7272727272727" y="-72.9090909090909"/>
      <point x="856.2727272727274" y="-114.00000000000001"/>
      <point x="856.2727272727274" y="-207.45454545454547" type="curve" smooth="yes"/>
      <point x="856.2727272727274" y="-352.3636363636364"/>
      <point x="734.9090909090909" y="-408.72727272727275"/>
    </contour>
    <contour>
      <point x="546.090909090909" y="437.6363636363636" type="curve" smooth="yes"/>
      <point x="450.1818181818182" y="437.6363636363636"/>
      <point x="410.7272727272727" y="555.090909090909"/>
      <point x="410.7272727272727" y="722.4545454545454" type="curve" smooth="yes"/>
      <point x="410.7272727272727" y="906.6363636363636"/>
      <point x="460.3636363636364" y="987.4545454545454"/>
      <point x="554.6363636363635" y="987.4545454545454" type="curve" smooth="yes"/>
      <point x="646.1818181818181" y="987.4545454545454"/>
      <point x="686.6363636363636" y="877.1818181818182"/>
      <point x="686.6363636363636" y="714.4545454545455" type="curve" smooth="yes"/>
      <point x="686.6363636363636" y="523.8181818181819"/>
      <point x="642.4545454545454" y="437.6363636363636"/>
    </contour>
  </outline>
</glyph>
<glyph name="h" format="2">
  <advance width="1242.3636363636363"/>
  <unicode hex="0068"/>
  <anchor x="640.3636363636364" y="0.0" name="bottom"/>
  <anchor x="236.0" y="1279.0" name="center"/>
  <anchor x="269.0909090909091" y="1596.0" name="top"/>
  <outline>
    <contour>
      <point x="135.54545454545456" y="100.36363636363635" type="line"/>
      <point x="26.0909090909091" y="72.18181818181817" type="line"/>
      <point x="26.0909090909091" y="0.0" type="line"/>
      <point x="581.4545454545455" y="0.0" type="line"/>
      <point x="581.4545454545455" y="72.18181818181817" type="line"/>
      <point x="471.7272727272727" y="100.72727272727273" type="line"/>
      <point x="471.7272727272727" y="829.8181818181818" type="line"/>
      <point x="511.09090909090907" y="860.3636363636363"/>
      <point x="580.1818181818182" y="893.1818181818181"/>
      <point x="656.4545454545455" y="893.1818181818181" type="curve" smooth="yes"/>
      <point x="754.0909090909091" y="893.1818181818181"/>
      <point x="782.6363636363637" y="824.3636363636364"/>
      <point x="782.6363636363637" y="674.3636363636364" type="curve" smooth="yes"/>
      <point x="782.6363636363637" y="100.72727272727272" type="line"/>
      <point x="693.8181818181819" y="72.18181818181817" type="line"/>
      <point x="693.8181818181819" y="0.0" type="line"/>
      <point x="1228.1818181818182" y="0.0" type="line"/>
      <point x="1228.1818181818182" y="72.18181818181817" type="line"/>
      <point x="1117.6363636363635" y="100.72727272727272" type="line"/>
      <point x="1117.6363636363635" y="674.7272727272727" type="line" smooth="yes"/>
      <point x="1117.6363636363635" y="960.9999999999998"/>
      <point x="1034.7272727272727" y="1073.909090909091"/>
      <point x="817.9090909090909" y="1073.909090909091" type="curve" smooth="yes"/>
      <point x="654.7272727272727" y="1073.909090909091"/>
      <point x="531.909090909091" y="980.4545454545454"/>
      <point x="460.1818181818182" y="898.1818181818182" type="curve"/>
      <point x="468.81818181818187" y="1053.9090909090908" type="line"/>
      <point x="468.4545454545454" y="1592.5454545454545" type="line"/>
      <point x="407.5454545454545" y="1635.8181818181818" type="line"/>
      <point x="382.1818181818182" y="1635.8181818181818" type="line"/>
      <point x="12.90909090909091" y="1545.5454545454545" type="line"/>
      <point x="12.90909090909091" y="1476.7272727272727" type="line"/>
      <point x="135.54545454545456" y="1437.0" type="line"/>
    </contour>
  </outline>
</glyph>
<glyph name="k" format="2">
  <advance width="1210.1818181818182"/>
  <unicode hex="006B"/>
  <anchor x="670.2727272727273" y="0.0" name="bottom"/>
  <anchor x="658.7272727272727" y="1593.8181818181818" name="top"/>
  <outline>
    <contour>
      <point x="134.36363636363637" y="100.09090909090908" type="line"/>
      <point x="22.45454545454546" y="71.54545454545455" type="line"/>
      <point x="22.45454545454546" y="0.0" type="line"/>
      <point x="577.4545454545455" y="0.0" type="line"/>
      <point x="577.4545454545455" y="70.90909090909092" type="line"/>
      <point x="467.2727272727273" y="100.09090909090908" type="line"/>
      <point x="467.2727272727273" y="243.36363636363635" type="line"/>
      <point x="461.909090909091" y="363.6363636363637" type="line"/>
      <point x="596.0000000000001" y="506.090909090909" type="line"/>
      <point x="792.7272727272727" y="100.09090909090908" type="line"/>
      <point x="691.5454545454545" y="72.18181818181819" type="line"/>
      <point x="696.0" y="0.0" type="line"/>
      <point x="1268.909090909091" y="0.0" type="line"/>
      <point x="1268.909090909091" y="72.18181818181819" type="line"/>
      <point x="1169.3636363636363" y="99.72727272727272" type="line"/>
      <point x="822.0909090909091" y="734.0" type="line"/>
      <point x="1017.3636363636363" y="943.3636363636364" type="line"/>
      <point x="1165.5454545454545" y="972.5454545454545" type="line"/>
      <point x="1165.5454545454545" y="1043.1818181818182" type="line"/>
      <point x="705.3636363636364" y="1043.1818181818182" type="line"/>
      <point x="705.3636363636364" y="972.5454545454545" type="line"/>
      <point x="862.0" y="944.1818181818182" type="line"/>
      <point x="462.6363636363636" y="484.99999999999994" type="line"/>
      <point x="467.6363636363637" y="660.0" type="line"/>
      <point x="467.6363636363637" y="1591.909090909091" type="line"/>
      <point x="407.7272727272727" y="1635.8181818181818" type="line"/>
      <point x="382.3636363636364" y="1635.8181818181818" type="line"/>
      <point x="13.545454545454547" y="1545.5454545454545" type="line"/>
      <point x="13.545454545454547" y="1476.7272727272727" type="line"/>
      <point x="134.36363636363637" y="1437.0" type="line"/>
    </contour>
  </outline>
</glyph>
<glyph name="l" format="2">
  <advance width="600.5454545454545"/>
  <unicode hex="006C"/>
  <anchor x="315.2727272727273" y="0.0" name="bottom"/>
  <anchor x="294.1818181818182" y="1634.0" name="top"/>
  <anchor x="634.2727272727273" y="1111.0" name="topright"/>
  <outline>
    <contour>
      <point x="136.63636363636365" y="101.36363636363637" type="line"/>
      <point x="18.181818181818187" y="71.54545454545453" type="line"/>
      <point x="18.181818181818187" y="0.0" type="line"/>
      <point x="584.9090909090909" y="0.0" type="line"/>
      <point x="584.9090909090909" y="71.54545454545453" type="line"/>
      <point x="465.0909090909091" y="100.36363636363639" type="line"/>
      <point x="465.0909090909091" y="1592.5454545454545" type="line"/>
      <point x="408.6363636363637" y="1635.8181818181818" type="line"/>
      <point x="383.9090909090909" y="1635.8181818181818" type="line"/>
      <point x="14.72727272727273" y="1545.5454545454545" type="line"/>
      <point x="14.72727272727273" y="1476.7272727272727" type="line"/>
      <point x="136.63636363636365" y="1437.0" type="line"/>
    </contour>
  </outline>
</glyph>
<glyph name="m" format="2">
  <advance width="1890.4545454545457"/>
  <unicode hex="006D"/>
  <anchor x="959.6363636363636" y="0.0" name="bottom"/>
  <anchor x="962.7272727272727" y="1111.0" name="top"/>
  <outline>
    <contour>
      <point x="39.63636363636363" y="0.0" type="line"/>
      <point x="594.9090909090909" y="0.0" type="line"/>
      <point x="594.9090909090909" y="72.18181818181819" type="line"/>
      <point x="486.2727272727273" y="100.72727272727272" type="line"/>
      <point x="486.2727272727273" y="829.8181818181818" type="line"/>
      <point x="524.6363636363637" y="859.2727272727273"/>
      <point x="592.7272727272727" y="893.1818181818182"/>
      <point x="669.6363636363636" y="893.1818181818182" type="curve" smooth="yes"/>
      <point x="764.4545454545455" y="893.1818181818182"/>
      <point x="794.7272727272726" y="826.909090909091"/>
      <point x="794.7272727272726" y="674.3636363636364" type="curve" smooth="yes"/>
      <point x="794.7272727272726" y="100.72727272727272" type="line"/>
      <point x="708.8181818181818" y="72.18181818181819" type="line"/>
      <point x="708.8181818181818" y="0.0" type="line"/>
      <point x="1239.181818181818" y="0.0" type="line"/>
      <point x="1239.181818181818" y="72.18181818181819" type="line"/>
      <point x="1132.2727272727273" y="100.72727272727272" type="line"/>
      <point x="1132.2727272727275" y="697.0" type="line" smooth="yes"/>
      <point x="1132.2727272727275" y="743.8181818181818"/>
      <point x="1126.7272727272727" y="796.9999999999999"/>
      <point x="1120.5454545454545" y="831.0909090909091" type="curve"/>
      <point x="1158.9090909090908" y="863.2727272727274"/>
      <point x="1228.727272727273" y="893.1818181818182"/>
      <point x="1302.3636363636363" y="893.1818181818182" type="curve" smooth="yes"/>
      <point x="1397.5454545454547" y="893.1818181818182"/>
      <point x="1429.6363636363637" y="826.1818181818182"/>
      <point x="1429.6363636363637" y="671.8181818181818" type="curve" smooth="yes"/>
      <point x="1429.6363636363637" y="100.09090909090908" type="line"/>
      <point x="1346.6363636363635" y="72.18181818181819" type="line"/>
      <point x="1346.6363636363635" y="0.0" type="line"/>
      <point x="1876.2727272727273" y="0.0" type="line"/>
      <point x="1876.2727272727273" y="72.18181818181819" type="line"/>
      <point x="1766.4545454545455" y="100.09090909090908" type="line"/>
      <point x="1766.4545454545455" y="675.0909090909091" type="line" smooth="yes"/>
      <point x="1766.4545454545455" y="964.6363636363636"/>
      <point x="1673.727272727273" y="1073.909090909091"/>
      <point x="1463.8181818181818" y="1073.909090909091" type="curve" smooth="yes"/>
      <point x="1310.5454545454545" y="1073.909090909091"/>
      <point x="1183.181818181818" y="990.7272727272726"/>
      <point x="1104.4545454545455" y="895.9090909090911" type="curve"/>
      <point x="1065.4545454545455" y="1014.7272727272727"/>
      <point x="984.9090909090908" y="1073.909090909091"/>
      <point x="832.9090909090908" y="1073.909090909091" type="curve" smooth="yes"/>
      <point x="692.0000000000001" y="1073.909090909091"/>
      <point x="551.2727272727273" y="987.3636363636364"/>
      <point x="470.8181818181818" y="894.4545454545455" type="curve"/>
      <point x="471.1818181818182" y="1020.8181818181816" type="line"/>
      <point x="421.6363636363636" y="1072.4545454545453" type="line"/>
      <point x="392.1818181818182" y="1072.4545454545453" type="line"/>
      <point x="36.18181818181819" y="983.6363636363636" type="line"/>
      <point x="36.18181818181819" y="901.7272727272726" type="line"/>
      <point x="149.72727272727275" y="858.3636363636364" type="line"/>
      <point x="149.72727272727275" y="100.72727272727272" type="line"/>
      <point x="39.63636363636363" y="72.18181818181819" type="line"/>
    </contour>
  </outline>
</glyph>
<glyph name="n" format="2">
  <advance width="1261.7272727272727"/>
  <unicode hex="006E"/>
  <anchor x="632.909090909091" y="0.0" name="bottom"/>
  <anchor x="607.909090909091" y="1111.0" name="top"/>
  <outline>
    <contour>
      <point x="149.72727272727275" y="100.72727272727273" type="line"/>
      <point x="37.81818181818182" y="72.18181818181817" type="line"/>
      <point x="37.81818181818182" y="0.0" type="line"/>
      <point x="595.0" y="0.0" type="line"/>
      <point x="595.0" y="72.18181818181817" type="line"/>
      <point x="486.2727272727273" y="100.72727272727273" type="line"/>
      <point x="486.2727272727273" y="829.4545454545454" type="line"/>
      <point x="524.2727272727273" y="857.4545454545454"/>
      <point x="579.6363636363636" y="893.1818181818181"/>
      <point x="670.7272727272727" y="893.1818181818181" type="curve" smooth="yes"/>
      <point x="765.5454545454546" y="893.1818181818181"/>
      <point x="803.090909090909" y="826.9090909090909"/>
      <point x="803.090909090909" y="674.3636363636364" type="curve" smooth="yes"/>
      <point x="803.090909090909" y="100.36363636363635" type="line"/>
      <point x="717.5454545454545" y="72.18181818181817" type="line"/>
      <point x="717.5454545454545" y="0.0" type="line"/>
      <point x="1247.5454545454545" y="0.0" type="line"/>
      <point x="1247.5454545454545" y="72.54545454545453" type="line"/>
      <point x="1140.6363636363637" y="100.36363636363635" type="line"/>
      <point x="1140.6363636363637" y="677.6363636363636" type="line" smooth="yes"/>
      <point x="1140.6363636363637" y="969.3636363636363"/>
      <point x="1044.2727272727273" y="1073.909090909091"/>
      <point x="834.3636363636364" y="1073.909090909091" type="curve" smooth="yes"/>
      <point x="675.9090909090909" y="1073.909090909091"/>
      <point x="549.0909090909091" y="983.7272727272727"/>
      <point x="470.8181818181818" y="893.909090909091" type="curve"/>
      <point x="474.09090909090907" y="955.5454545454545" type="line"/>
      <point x="474.09090909090907" y="1029.181818181818" type="line"/>
      <point x="419.81818181818176" y="1072.4545454545453" type="line"/>
      <point x="392.1818181818182" y="1072.4545454545453" type="line"/>
      <point x="36.18181818181819" y="983.6363636363636" type="line"/>
      <point x="36.18181818181819" y="901.7272727272726" type="line"/>
      <point x="149.72727272727275" y="858.3636363636363" type="line"/>
    </contour>
  </outline>
</glyph>
<glyph name="o" format="2">
  <advance width="1144.6363636363635"/>
  <unicode hex="006F"/>
  <anchor x="572.8181818181818" y="0.0" name="bottom"/>
  <anchor x="572.8181818181818" y="525.5454545454545" name="center"/>
  <anchor x="619.909090909091" y="22.727272727272727" name="ogonek"/>
  <anchor x="575.7272727272726" y="1110.3636363636365" name="top"/>
  <anchor x="770.7272727272726" y="1043.5454545454547" name="topright"/>
  <outline>
    <contour>
      <point x="38.63636363636363" y="510.5454545454545" type="curve" smooth="yes"/>
      <point x="38.63636363636363" y="157.0909090909091"/>
      <point x="240.54545454545456" y="-23.272727272727273"/>
      <point x="552.0909090909091" y="-23.272727272727273" type="curve" smooth="yes"/>
      <point x="842.6363636363637" y="-23.272727272727273"/>
      <point x="1105.9999999999998" y="146.8181818181818"/>
      <point x="1105.9999999999998" y="540.6363636363637" type="curve" smooth="yes"/>
      <point x="1105.9999999999998" y="892.1818181818181"/>
      <point x="911.4545454545455" y="1075.7272727272727"/>
      <point x="592.181818181818" y="1075.7272727272727" type="curve" smooth="yes"/>
      <point x="302.6363636363637" y="1075.7272727272727"/>
      <point x="38.63636363636363" y="901.6363636363636"/>
    </contour>
    <contour>
      <point x="576.1818181818181" y="62.909090909090914" type="curve" smooth="yes"/>
      <point x="446.5454545454545" y="62.909090909090914"/>
      <point x="410.4545454545455" y="249.36363636363632"/>
      <point x="410.4545454545455" y="540.9090909090909" type="curve" smooth="yes"/>
      <point x="410.4545454545455" y="857.6363636363636"/>
      <point x="458.81818181818176" y="989.5454545454546"/>
      <point x="575.0" y="989.5454545454546" type="curve" smooth="yes"/>
      <point x="700.5454545454545" y="989.5454545454546"/>
      <point x="734.7272727272727" y="803.3636363636364"/>
      <point x="734.7272727272727" y="509.0" type="curve" smooth="yes"/>
      <point x="734.7272727272727" y="196.72727272727275"/>
      <point x="687.2727272727274" y="62.909090909090914"/>
    </contour>
  </outline>
</glyph>
<glyph name="p" format="2">
  <advance width="1208.090909090909"/>
  <unicode hex="0070"/>
  <anchor x="662.1818181818181" y="1112.0" name="top"/>
  <outline>
    <contour>
      <point x="1156.0909090909092" y="574.1818181818181" type="curve" smooth="yes"/>
      <point x="1156.090909090909" y="905.0909090909091"/>
      <point x="1005.2727272727274" y="1078.909090909091"/>
      <point x="753.2727272727274" y="1078.909090909091" type="curve" smooth="yes"/>
      <point x="618.2727272727273" y="1078.909090909091"/>
      <point x="500.4545454545454" y="989.3636363636364"/>
      <point x="468.72727272727275" y="927.5454545454546" type="curve"/>
      <point x="471.9090909090909" y="1029.1818181818182" type="line"/>
      <point x="417.27272727272725" y="1072.4545454545453" type="line"/>
      <point x="390.36363636363643" y="1072.4545454545453" type="line"/>
      <point x="36.18181818181818" y="983.2727272727273" type="line"/>
      <point x="36.18181818181818" y="901.7272727272727" type="line"/>
      <point x="150.45454545454547" y="858.7272727272727" type="line"/>
      <point x="151.0909090909091" y="-372.1818181818182" type="line"/>
      <point x="34.909090909090914" y="-403.27272727272725" type="line"/>
      <point x="34.909090909090914" y="-472.5454545454545" type="line"/>
      <point x="613.909090909091" y="-472.5454545454545" type="line"/>
      <point x="613.909090909091" y="-403.27272727272725" type="line"/>
      <point x="478.1818181818182" y="-372.1818181818182" type="line"/>
      <point x="478.1818181818182" y="-164.0" type="line"/>
      <point x="476.00000000000006" y="-2.0" type="line"/>
      <point x="501.99999999999994" y="-12.0"/>
      <point x="566.1818181818182" y="-22.0"/>
      <point x="627.4545454545455" y="-22.0" type="curve" smooth="yes"/>
      <point x="931.1818181818182" y="-22.0"/>
      <point x="1156.090909090909" y="211.36363636363637"/>
    </contour>
    <contour>
      <point x="616.8181818181819" y="926.0909090909091" type="curve" smooth="yes"/>
      <point x="717.090909090909" y="926.0909090909091"/>
      <point x="800.5454545454545" y="829.8181818181818"/>
      <point x="800.5454545454546" y="528.7272727272727" type="curve" smooth="yes"/>
      <point x="800.5454545454546" y="208.72727272727272"/>
      <point x="733.7272727272726" y="63.545454545454554"/>
      <point x="611.1818181818182" y="63.545454545454554" type="curve" smooth="yes"/>
      <point x="557.5454545454545" y="63.545454545454554"/>
      <point x="499.3636363636364" y="87.36363636363636"/>
      <point x="478.18181818181824" y="127.18181818181817" type="curve"/>
      <point x="478.18181818181813" y="854.0909090909091" type="line"/>
      <point x="497.27272727272725" y="878.0000000000001"/>
      <point x="537.0909090909091" y="926.0909090909091"/>
    </contour>
  </outline>
</glyph>
<glyph name="q" format="2">
  <advance width="1170.1818181818182"/>
  <unicode hex="0071"/>
  <outline>
    <contour>
      <point x="559.3636363636364" y="-472.5454545454545" type="line"/>
      <point x="1171.9090909090908" y="-472.5454545454545" type="line"/>
      <point x="1171.9090909090908" y="-403.0" type="line"/>
      <point x="1062.0" y="-372.90909090909093" type="line"/>
      <point x="1062.0" y="1036.1818181818182" type="line"/>
      <point x="1012.3636363636365" y="1069.9090909090908" type="line"/>
      <point x="983.1818181818181" y="1069.9090909090908" type="line"/>
      <point x="831.6363636363635" y="1026.8181818181818" type="line"/>
      <point x="781.6363636363636" y="1041.8181818181818"/>
      <point x="700.4545454545455" y="1077.6363636363637"/>
      <point x="587.9090909090909" y="1077.6363636363637" type="curve" smooth="yes"/>
      <point x="273.81818181818187" y="1077.6363636363637"/>
      <point x="47.272727272727266" y="870.5454545454546"/>
      <point x="47.272727272727266" y="484.00000000000006" type="curve" smooth="yes"/>
      <point x="47.272727272727266" y="141.27272727272725"/>
      <point x="242.99999999999997" y="-22.636363636363637"/>
      <point x="453.27272727272737" y="-22.636363636363637" type="curve" smooth="yes"/>
      <point x="588.0909090909091" y="-22.636363636363637"/>
      <point x="693.909090909091" y="48.72727272727272"/>
      <point x="738.7272727272727" y="116.81818181818181" type="curve"/>
      <point x="735.2727272727273" y="-46.0" type="line"/>
      <point x="735.2727272727273" y="-372.54545454545456" type="line"/>
      <point x="559.3636363636364" y="-403.0" type="line"/>
    </contour>
    <contour>
      <point x="596.3636363636363" y="129.27272727272728" type="curve" smooth="yes"/>
      <point x="494.7272727272727" y="129.27272727272728"/>
      <point x="410.8181818181818" y="228.09090909090907"/>
      <point x="411.54545454545456" y="524.2727272727274" type="curve" smooth="yes"/>
      <point x="411.9090909090909" y="845.0909090909091"/>
      <point x="478.2727272727273" y="988.4545454545455"/>
      <point x="610.9090909090908" y="988.4545454545455" type="curve" smooth="yes"/>
      <point x="665.8181818181818" y="988.4545454545455"/>
      <point x="712.909090909091" y="963.6363636363636"/>
      <point x="734.6363636363635" y="924.1818181818182" type="curve"/>
      <point x="734.6363636363635" y="202.00000000000003" type="line"/>
      <point x="710.9999999999999" y="165.45454545454544"/>
      <point x="661.3636363636363" y="129.27272727272728"/>
    </contour>
  </outline>
</glyph>
<glyph name="r" format="2">
  <advance width="878.2727272727274"/>
  <unicode hex="0072"/>
  <anchor x="327.7272727272728" y="0.0" name="bottom"/>
  <anchor x="465.09090909090907" y="1110.3636363636363" name="top"/>
  <outline>
    <contour>
      <point x="33.09090909090909" y="0.0" type="line"/>
      <point x="657.5454545454546" y="0.0" type="line"/>
      <point x="657.5454545454546" y="71.81818181818181" type="line"/>
      <point x="483.3636363636363" y="101.0" type="line"/>
      <point x="482.7272727272727" y="721.9090909090909" type="line"/>
      <point x="524.8181818181818" y="760.9090909090909"/>
      <point x="591.9999999999999" y="782.6363636363636"/>
      <point x="678.0000000000001" y="782.6363636363636" type="curve" smooth="yes"/>
      <point x="749.7272727272726" y="782.6363636363636"/>
      <point x="796.3636363636364" y="759.4545454545454"/>
      <point x="818.8181818181818" y="740.5454545454545" type="curve"/>
      <point x="818.8181818181818" y="1056.0" type="line"/>
      <point x="805.3636363636365" y="1063.0"/>
      <point x="784.3636363636364" y="1068.7272727272725"/>
      <point x="752.4545454545454" y="1068.7272727272725" type="curve" smooth="yes"/>
      <point x="590.0000000000001" y="1068.7272727272725"/>
      <point x="476.0909090909091" y="862.4545454545454"/>
      <point x="461.63636363636357" y="799.5454545454545" type="curve"/>
      <point x="454.6363636363636" y="799.5454545454545" type="line"/>
      <point x="460.3636363636364" y="982.4545454545455" type="line"/>
      <point x="460.3636363636364" y="1030.4545454545455" type="line"/>
      <point x="403.3636363636364" y="1072.4545454545453" type="line"/>
      <point x="375.72727272727275" y="1072.4545454545453" type="line"/>
      <point x="36.09090909090908" y="983.6363636363636" type="line"/>
      <point x="36.09090909090908" y="901.0909090909091" type="line"/>
      <point x="149.36363636363635" y="858.3636363636364" type="line"/>
      <point x="149.36363636363635" y="100.00000000000001" type="line"/>
      <point x="33.09090909090909" y="71.81818181818181" type="line"/>
    </contour>
  </outline>
</glyph>
<glyph name="s" format="2">
  <advance width="935.5454545454545"/>
  <unicode hex="0073"/>
  <anchor x="453.63636363636357" y="-9.0" name="bottom"/>
  <anchor x="485.27272727272725" y="1111.0" name="top"/>
  <outline>
    <contour>
      <point x="219.72727272727275" y="313.8181818181818" type="line"/>
      <point x="65.72727272727272" y="313.8181818181818" type="line"/>
      <point x="60.0" y="47.18181818181818" type="line"/>
      <point x="127.00000000000003" y="40.36363636363636"/>
      <point x="273.3636363636364" y="-23.90909090909091"/>
      <point x="452.0" y="-23.90909090909091" type="curve" smooth="yes"/>
      <point x="763.9090909090909" y="-23.90909090909091"/>
      <point x="886.4545454545455" y="122.18181818181817"/>
      <point x="886.4545454545455" y="316.2727272727273" type="curve" smooth="yes"/>
      <point x="886.4545454545455" y="489.9090909090909"/>
      <point x="733.7272727272727" y="577.8181818181819"/>
      <point x="574.909090909091" y="651.090909090909" type="curve" smooth="yes"/>
      <point x="445.1818181818182" y="711.9090909090909"/>
      <point x="321.00000000000006" y="754.4545454545454"/>
      <point x="321.00000000000006" y="864.7272727272726" type="curve" smooth="yes"/>
      <point x="321.00000000000006" y="941.2727272727273"/>
      <point x="388.72727272727275" y="994.0"/>
      <point x="480.8181818181818" y="994.0" type="curve" smooth="yes"/>
      <point x="570.1818181818181" y="994.0"/>
      <point x="629.1818181818182" y="949.909090909091"/>
      <point x="652.0909090909091" y="868.6363636363636" type="curve"/>
      <point x="689.7272727272726" y="746.8181818181818" type="line"/>
      <point x="826.7272727272727" y="746.8181818181818" type="line"/>
      <point x="833.7272727272727" y="1015.6363636363636" type="line"/>
      <point x="769.1818181818181" y="1022.6363636363635"/>
      <point x="670.1818181818182" y="1074.6363636363635"/>
      <point x="485.45454545454544" y="1074.6363636363635" type="curve" smooth="yes"/>
      <point x="203.72727272727272" y="1074.6363636363635"/>
      <point x="59.0" y="941.3636363636364"/>
      <point x="59.0" y="764.7272727272726" type="curve" smooth="yes"/>
      <point x="59.0" y="566.7272727272727"/>
      <point x="195.0909090909091" y="467.09090909090907"/>
      <point x="346.7272727272727" y="398.1818181818182" type="curve" smooth="yes"/>
      <point x="518.5454545454545" y="319.0909090909091"/>
      <point x="628.0000000000001" y="276.0"/>
      <point x="628.0000000000001" y="186.27272727272728" type="curve" smooth="yes"/>
      <point x="628.0000000000001" y="121.63636363636364"/>
      <point x="581.3636363636364" y="59.36363636363637"/>
      <point x="459.09090909090907" y="59.36363636363637" type="curve" smooth="yes"/>
      <point x="364.27272727272725" y="59.36363636363637"/>
      <point x="289.6363636363636" y="108.0909090909091"/>
      <point x="259.90909090909093" y="184.8181818181818" type="curve"/>
    </contour>
  </outline>
</glyph>
<glyph name="u" format="2">
  <advance width="1192.3636363636363"/>
  <unicode hex="0075"/>
  <anchor x="612.5454545454546" y="0.0" name="bottom"/>
  <anchor x="947.8181818181819" y="20.0" name="ogonek"/>
  <anchor x="595.0909090909091" y="1112.0" name="top"/>
  <anchor x="952.2727272727273" y="1043.909090909091" name="topright"/>
  <outline>
    <contour>
      <point x="909.3636363636364" y="-19.363636363636363" type="curve" smooth="yes"/>
      <point x="1020.8181818181819" y="-19.363636363636363"/>
      <point x="1107.8181818181818" y="0.0"/>
      <point x="1157.8181818181818" y="10.0" type="curve"/>
      <point x="1157.8181818181818" y="82.0" type="line"/>
      <point x="1072.181818181818" y="93.45454545454545" type="line"/>
      <point x="1072.181818181818" y="1034.1818181818182" type="line"/>
      <point x="1017.1818181818181" y="1071.7272727272727" type="line"/>
      <point x="990.8181818181819" y="1071.7272727272727" type="line"/>
      <point x="628.5454545454545" y="989.7272727272726" type="line"/>
      <point x="628.5454545454545" y="918.5454545454546" type="line"/>
      <point x="741.090909090909" y="877.7272727272726" type="line"/>
      <point x="741.090909090909" y="218.1818181818182" type="line"/>
      <point x="707.2727272727273" y="191.36363636363637"/>
      <point x="656.7272727272726" y="157.45454545454544"/>
      <point x="572.8181818181819" y="157.45454545454544" type="curve" smooth="yes"/>
      <point x="485.18181818181813" y="157.45454545454544"/>
      <point x="451.6363636363636" y="207.8181818181818"/>
      <point x="451.6363636363636" y="356.3636363636364" type="curve" smooth="yes"/>
      <point x="451.6363636363636" y="1034.1818181818182" type="line"/>
      <point x="401.27272727272725" y="1071.7272727272727" type="line"/>
      <point x="378.27272727272725" y="1071.7272727272727" type="line"/>
      <point x="24.54545454545455" y="989.7272727272726" type="line"/>
      <point x="24.54545454545455" y="917.0909090909091" type="line"/>
      <point x="118.54545454545456" y="877.7272727272726" type="line"/>
      <point x="118.54545454545453" y="364.3636363636364" type="line" smooth="yes"/>
      <point x="118.54545454545453" y="90.27272727272728"/>
      <point x="213.45454545454547" y="-20.727272727272727"/>
      <point x="432.81818181818187" y="-20.727272727272727" type="curve" smooth="yes"/>
      <point x="570.1818181818181" y="-20.727272727272727"/>
      <point x="696.8181818181818" y="58.909090909090914"/>
      <point x="763.1818181818182" y="165.72727272727275" type="curve"/>
      <point x="763.1818181818182" y="82.27272727272727" type="line" smooth="yes"/>
      <point x="763.1818181818182" y="1.09090909090909"/>
      <point x="814.5454545454546" y="-19.363636363636363"/>
    </contour>
  </outline>
</glyph>
<glyph name="v" format="2">
  <advance width="1067.5454545454545"/>
  <unicode hex="0076"/>
  <outline>
    <contour>
      <point x="-33.81818181818182" y="973.1818181818182" type="line"/>
      <point x="52.454545454545446" y="934.8181818181819" type="line"/>
      <point x="386.1818181818182" y="-5.818181818181818" type="line"/>
      <point x="693.2727272727273" y="-5.818181818181818" type="line"/>
      <point x="1007.2727272727273" y="934.8181818181819" type="line"/>
      <point x="1116.0909090909092" y="973.1818181818182" type="line"/>
      <point x="1116.0909090909092" y="1043.5454545454545" type="line"/>
      <point x="721.1818181818181" y="1043.5454545454545" type="line"/>
      <point x="721.1818181818181" y="972.5454545454546" type="line"/>
      <point x="849.5454545454546" y="934.8181818181819" type="line"/>
      <point x="702.7272727272727" y="365.3636363636364" type="line"/>
      <point x="648.909090909091" y="167.27272727272725" type="line"/>
      <point x="591.5454545454545" y="379.18181818181824" type="line"/>
      <point x="435.9090909090909" y="934.8181818181819" type="line"/>
      <point x="548.1818181818182" y="973.1818181818182" type="line"/>
      <point x="548.1818181818182" y="1043.5454545454545" type="line"/>
      <point x="-33.81818181818182" y="1043.5454545454545" type="line"/>
    </contour>
  </outline>
</glyph>
<glyph name="w" format="2">
  <advance width="1640.4545454545455"/>
  <unicode hex="0077"/>
  <anchor x="831.7272727272727" y="0.0" name="bottom"/>
  <anchor x="871.3636363636364" y="1111.0" name="top"/>
  <outline>
    <contour>
      <point x="-16.636363636363633" y="973.1818181818182" type="line"/>
      <point x="69.36363636363636" y="936.2727272727273" type="line"/>
      <point x="348.09090909090907" y="-5.818181818181818" type="line"/>
      <point x="630.3636363636364" y="-5.818181818181818" type="line"/>
      <point x="786.0909090909092" y="607.4545454545454" type="line"/>
      <point x="829.2727272727273" y="810.0909090909091" type="line"/>
      <point x="869.3636363636364" y="608.090909090909" type="line"/>
      <point x="1024.909090909091" y="-5.818181818181818" type="line"/>
      <point x="1318.3636363636365" y="-5.818181818181818" type="line"/>
      <point x="1610.5454545454547" y="935.909090909091" type="line"/>
      <point x="1722.0000000000002" y="973.1818181818182" type="line"/>
      <point x="1722.0000000000002" y="1043.909090909091" type="line"/>
      <point x="1341.0" y="1043.909090909091" type="line"/>
      <point x="1341.0" y="973.8181818181819" type="line"/>
      <point x="1473.8181818181818" y="934.8181818181819" type="line"/>
      <point x="1335.4545454545455" y="391.0909090909091" type="line"/>
      <point x="1288.090909090909" y="186.1818181818182" type="line"/>
      <point x="1243.2727272727273" y="391.4545454545455" type="line"/>
      <point x="1092.8181818181818" y="1043.909090909091" type="line"/>
      <point x="780.2727272727273" y="1043.909090909091" type="line"/>
      <point x="630.2727272727273" y="390.8181818181818" type="line"/>
      <point x="587.6363636363636" y="186.1818181818182" type="line"/>
      <point x="544.3636363636364" y="391.0909090909091" type="line"/>
      <point x="414.27272727272725" y="935.5454545454545" type="line"/>
      <point x="526.7272727272727" y="973.8181818181819" type="line"/>
      <point x="526.7272727272727" y="1043.909090909091" type="line"/>
      <point x="-16.636363636363633" y="1043.909090909091" type="line"/>
    </contour>
  </outline>
</glyph>
<glyph name="x" format="2">
  <advance width="1133.8181818181818"/>
  <unicode hex="0078"/>
  <outline>
    <contour>
      <point x="101.81818181818181" y="100.0909090909091" type="line"/>
      <point x="-12.272727272727273" y="71.45454545454545" type="line"/>
      <point x="-12.272727272727273" y="0.0" type="line"/>
      <point x="411.8181818181818" y="0.0" type="line"/>
      <point x="411.8181818181818" y="71.45454545454545" type="line"/>
      <point x="261.6363636363636" y="100.0909090909091" type="line"/>
      <point x="412.0" y="332.18181818181813" type="line"/>
      <point x="463.4545454545455" y="419.1818181818182" type="line"/>
      <point x="523.7272727272727" y="319.7272727272727" type="line"/>
      <point x="658.9999999999999" y="100.0909090909091" type="line"/>
      <point x="551.2727272727273" y="71.45454545454545" type="line"/>
      <point x="551.2727272727273" y="0.0" type="line"/>
      <point x="1146.0909090909092" y="0.0" type="line"/>
      <point x="1146.0909090909092" y="71.45454545454545" type="line"/>
      <point x="1048.3636363636365" y="99.72727272727275" type="line"/>
      <point x="729.2727272727273" y="567.5454545454546" type="line"/>
      <point x="1025.090909090909" y="944.4545454545455" type="line"/>
      <point x="1134.181818181818" y="972.5454545454546" type="line"/>
      <point x="1134.181818181818" y="1043.5454545454545" type="line"/>
      <point x="733.8181818181819" y="1043.5454545454545" type="line"/>
      <point x="733.8181818181819" y="972.5454545454546" type="line"/>
      <point x="869.7272727272726" y="943.8181818181819" type="line"/>
      <point x="725.4545454545454" y="720.0000000000001" type="line"/>
      <point x="673.8181818181819" y="632.4545454545454" type="line"/>
      <point x="615.5454545454545" y="729.8181818181818" type="line"/>
      <point x="480.6363636363637" y="944.4545454545455" type="line"/>
      <point x="593.4545454545455" y="972.5454545454546" type="line"/>
      <point x="593.4545454545455" y="1043.5454545454545" type="line"/>
      <point x="-4.363636363636362" y="1043.5454545454545" type="line"/>
      <point x="-4.363636363636362" y="972.5454545454546" type="line"/>
      <point x="92.45454545454545" y="944.4545454545455" type="line"/>
      <point x="404.7272727272727" y="483.45454545454544" type="line"/>
    </contour>
  </outline>
</glyph>
<glyph name="y" format="2">
  <advance width="1067.909090909091"/>
  <unicode hex="0079"/>
  <anchor x="918.6363636363635" y="0.0" name="bottom"/>
  <anchor x="576.4545454545454" y="1111.0" name="top"/>
  <outline>
    <contour>
      <point x="268.7272727272727" y="-503.5454545454545" type="curve" smooth="yes"/>
      <point x="480.8181818181818" y="-503.5454545454545"/>
      <point x="587.0909090909091" y="-334.00000000000006"/>
      <point x="701.0909090909091" y="-25.0" type="curve"/>
      <point x="717.0909090909091" y="12.0"/>
      <point x="892.909090909091" y="557.5454545454545"/>
      <point x="1016.909090909091" y="935.5454545454545" type="curve"/>
      <point x="1122.090909090909" y="973.1818181818181" type="line"/>
      <point x="1122.090909090909" y="1043.5454545454545" type="line"/>
      <point x="731.1818181818181" y="1043.5454545454545" type="line"/>
      <point x="731.1818181818181" y="972.5454545454545" type="line"/>
      <point x="859.1818181818181" y="935.5454545454545" type="line"/>
      <point x="712.1818181818182" y="365.00000000000006" type="line"/>
      <point x="656.5454545454546" y="158.54545454545456" type="line"/>
      <point x="595.9090909090909" y="377.3636363636363" type="line"/>
      <point x="432.8181818181818" y="935.1818181818181" type="line"/>
      <point x="549.8181818181819" y="973.1818181818181" type="line"/>
      <point x="549.8181818181819" y="1043.5454545454545" type="line"/>
      <point x="-37.63636363636364" y="1044.181818181818" type="line"/>
      <point x="-37.63636363636364" y="973.8181818181819" type="line"/>
      <point x="52.27272727272727" y="935.4545454545455" type="line"/>
      <point x="383.3636363636364" y="0.0" type="line"/>
      <point x="582.0909090909091" y="0.0" type="line"/>
      <point x="519.0909090909091" y="-171.0"/>
      <point x="415.4545454545455" y="-257.6363636363637"/>
      <point x="270.0" y="-257.6363636363637" type="curve" smooth="yes"/>
      <point x="228.36363636363635" y="-257.6363636363637"/>
      <point x="187.36363636363637" y="-248.45454545454547"/>
      <point x="163.90909090909093" y="-237.9090909090909" type="curve"/>
      <point x="163.90909090909093" y="-485.0909090909091" type="line"/>
      <point x="184.90909090909093" y="-497.1818181818182"/>
      <point x="223.09090909090912" y="-503.5454545454545"/>
    </contour>
  </outline>
</glyph>
<glyph name="z" format="2">
  <advance width="1030.1818181818182"/>
  <unicode hex="007A"/>
  <anchor x="525.1818181818182" y="0.0" name="bottom"/>
  <anchor x="537.7272727272727" y="1111.0" name="top"/>
  <outline>
    <contour>
      <point x="647.6363636363637" y="957.7272727272727" type="line"/>
      <point x="545.6363636363636" y="851.3636363636363" type="line"/>
      <point x="23.363636363636363" y="78.72727272727273" type="line"/>
      <point x="73.00000000000001" y="0.0" type="line"/>
      <point x="960.6363636363637" y="0.0" type="line"/>
      <point x="1007.3636363636363" y="375.0" type="line"/>
      <point x="853.9090909090909" y="398.72727272727275" type="line"/>
      <point x="726.8181818181819" y="109.63636363636363" type="line"/>
      <point x="401.7272727272727" y="83.81818181818183" type="line"/>
      <point x="513.2727272727273" y="213.63636363636363" type="line"/>
      <point x="1013.8181818181819" y="965.4545454545454" type="line"/>
      <point x="966.9090909090908" y="1043.5454545454545" type="line"/>
      <point x="92.63636363636364" y="1041.6363636363635" type="line"/>
      <point x="81.81818181818183" y="690.6363636363637" type="line"/>
      <point x="247.72727272727275" y="692.5454545454546" type="line"/>
      <point x="321.54545454545456" y="938.9090909090909" type="line"/>
    </contour>
  </outline>
</glyph>
<glyph name="braceleft" format="2">
  <advance width="1050.0909090909092"/>
  <unicode hex="007B"/>
  <outline>
    <contour>
      <point x="609.0" y="-282.0" type="curve" smooth="yes"/>
      <point x="717.0" y="-282.0"/>
      <point x="808.5454545454546" y="-259.90909090909093"/>
      <point x="893.1818181818182" y="-238.0" type="curve"/>
      <point x="893.1818181818182" y="-165.45454545454547" type="line"/>
      <point x="852.1818181818182" y="-166.45454545454547"/>
      <point x="809.8181818181819" y="-167.45454545454547"/>
      <point x="769.7272727272726" y="-167.45454545454547" type="curve" smooth="yes"/>
      <point x="673.7272727272727" y="-167.45454545454547"/>
      <point x="594.0000000000001" y="-128.1818181818182"/>
      <point x="594.0000000000001" y="-1.1818181818181799" type="curve" smooth="yes"/>
      <point x="594.0000000000001" y="109.81818181818181"/>
      <point x="664.3636363636364" y="284.90909090909093"/>
      <point x="664.3636363636364" y="417.9090909090909" type="curve" smooth="yes"/>
      <point x="664.3636363636364" y="591.7272727272727"/>
      <point x="497.3636363636363" y="650.0"/>
      <point x="322.6363636363636" y="672.0" type="curve"/>
      <point x="497.3636363636363" y="695.0"/>
      <point x="664.3636363636364" y="744.2727272727273"/>
      <point x="664.3636363636364" y="918.090909090909" type="curve" smooth="yes"/>
      <point x="664.3636363636364" y="1053.0909090909092"/>
      <point x="594.0000000000001" y="1233.1818181818182"/>
      <point x="594.0000000000001" y="1343.1818181818182" type="curve" smooth="yes"/>
      <point x="594.0000000000001" y="1468.1818181818182"/>
      <point x="669.2727272727273" y="1509.4545454545455"/>
      <point x="765.2727272727271" y="1509.4545454545455" type="curve" smooth="yes"/>
      <point x="806.2727272727273" y="1509.4545454545455"/>
      <point x="852.1818181818182" y="1508.8181818181818"/>
      <point x="893.1818181818182" y="1507.8181818181818" type="curve"/>
      <point x="893.1818181818182" y="1576.0" type="line"/>
      <point x="802.1818181818181" y="1599.8181818181818"/>
      <point x="719.5454545454545" y="1620.0"/>
      <point x="611.5454545454546" y="1620.0" type="curve" smooth="yes"/>
      <point x="359.9090909090909" y="1620.0"/>
      <point x="250.8181818181818" y="1519.0"/>
      <point x="250.8181818181818" y="1351.0" type="curve" smooth="yes"/>
      <point x="250.8181818181818" y="1168.0"/>
      <point x="376.90909090909093" y="1024.2727272727273"/>
      <point x="376.90909090909093" y="873.7272727272727" type="curve" smooth="yes"/>
      <point x="376.90909090909093" y="782.7272727272726"/>
      <point x="339.0909090909091" y="724.7272727272726"/>
      <point x="132.45454545454547" y="724.7272727272726" type="curve"/>
      <point x="132.45454545454547" y="631.2727272727273" type="line"/>
      <point x="339.0909090909091" y="631.2727272727273"/>
      <point x="376.90909090909093" y="553.4545454545455"/>
      <point x="376.90909090909093" y="460.8181818181818" type="curve" smooth="yes"/>
      <point x="376.90909090909093" y="310.9090909090909"/>
      <point x="250.8181818181818" y="168.0"/>
      <point x="250.8181818181818" y="-14.0" type="curve" smooth="yes"/>
      <point x="250.8181818181818" y="-181.0"/>
      <point x="357.3636363636364" y="-282.0"/>
    </contour>
  </outline>
</glyph>
<glyph name="bar" format="2">
  <advance width="753.0"/>
  <unicode hex="007C"/>
  <outline>
    <contour>
      <point x="448.6363636363636" y="1738.0" type="line"/>
      <point x="304.3636363636364" y="1738.0" type="line"/>
      <point x="304.3636363636364" y="-182.0" type="line"/>
      <point x="448.6363636363636" y="-182.0" type="line"/>
    </contour>
  </outline>
</glyph>
<glyph name="braceright" format="2">
  <advance width="1050.0909090909092"/>
  <unicode hex="007D"/>
  <outline>
    <contour>
      <point x="438.5454545454545" y="-282.0" type="curve" smooth="yes"/>
      <point x="690.1818181818181" y="-282.0"/>
      <point x="799.2727272727273" y="-181.0"/>
      <point x="799.2727272727273" y="-13.363636363636363" type="curve" smooth="yes"/>
      <point x="799.2727272727273" y="169.27272727272728"/>
      <point x="673.1818181818182" y="311.5454545454545"/>
      <point x="673.1818181818182" y="462.09090909090907" type="curve" smooth="yes"/>
      <point x="673.1818181818182" y="553.4545454545455"/>
      <point x="711.0" y="619.8181818181818"/>
      <point x="917.6363636363636" y="619.8181818181818" type="curve"/>
      <point x="917.6363636363636" y="713.2727272727271" type="line"/>
      <point x="711.0" y="713.2727272727271"/>
      <point x="673.1818181818182" y="782.7272727272726"/>
      <point x="673.1818181818182" y="875.0" type="curve" smooth="yes"/>
      <point x="673.1818181818182" y="1024.909090909091"/>
      <point x="799.2727272727273" y="1169.2727272727273"/>
      <point x="799.2727272727273" y="1351.6363636363637" type="curve" smooth="yes"/>
      <point x="799.2727272727273" y="1519.0"/>
      <point x="692.7272727272727" y="1620.0"/>
      <point x="441.0909090909091" y="1620.0" type="curve" smooth="yes"/>
      <point x="333.09090909090907" y="1620.0"/>
      <point x="241.54545454545456" y="1597.9090909090908"/>
      <point x="156.9090909090909" y="1576.0" type="curve"/>
      <point x="156.9090909090909" y="1505.2727272727273" type="line"/>
      <point x="197.9090909090909" y="1506.2727272727273"/>
      <point x="240.63636363636365" y="1506.909090909091"/>
      <point x="280.3636363636364" y="1506.909090909091" type="curve" smooth="yes"/>
      <point x="376.3636363636363" y="1506.909090909091"/>
      <point x="456.0909090909091" y="1466.909090909091"/>
      <point x="456.0909090909091" y="1340.6363636363637" type="curve" smooth="yes"/>
      <point x="456.0909090909091" y="1230.0"/>
      <point x="385.72727272727275" y="1053.0909090909092"/>
      <point x="385.72727272727275" y="919.3636363636364" type="curve" smooth="yes"/>
      <point x="385.72727272727275" y="745.5454545454545"/>
      <point x="552.7272727272727" y="690.5454545454546"/>
      <point x="727.4545454545455" y="668.1818181818181" type="curve"/>
      <point x="552.7272727272727" y="645.5454545454545"/>
      <point x="385.72727272727275" y="593.0000000000001"/>
      <point x="385.72727272727275" y="419.18181818181813" type="curve" smooth="yes"/>
      <point x="385.72727272727275" y="284.90909090909093"/>
      <point x="456.0909090909091" y="106.63636363636363"/>
      <point x="456.0909090909091" y="-3.7272727272727253" type="curve" smooth="yes"/>
      <point x="456.0909090909091" y="-129.45454545454547"/>
      <point x="380.81818181818176" y="-170.0"/>
      <point x="284.8181818181818" y="-170.0" type="curve" smooth="yes"/>
      <point x="243.45454545454547" y="-170.0"/>
      <point x="197.9090909090909" y="-169.0"/>
      <point x="156.9090909090909" y="-168.0" type="curve"/>
      <point x="156.9090909090909" y="-238.0" type="line"/>
      <point x="247.9090909090909" y="-261.81818181818187"/>
      <point x="330.5454545454545" y="-282.0"/>
    </contour>
  </outline>
</glyph>
<glyph name="asciitilde" format="2">
  <advance width="1248.3636363636363"/>
  <unicode hex="007E"/>
  <outline>
    <contour>
      <point x="163.45454545454547" y="547.8181818181819" type="curve"/>
      <point x="221.27272727272728" y="470.45454545454544" type="line"/>
      <point x="270.90909090909093" y="535.2727272727274"/>
      <point x="343.3636363636364" y="586.3636363636365"/>
      <point x="427.72727272727275" y="586.3636363636365" type="curve" smooth="yes"/>
      <point x="576.6363636363636" y="586.3636363636365"/>
      <point x="614.9090909090908" y="405.27272727272725"/>
      <point x="799.6363636363636" y="405.27272727272725" type="curve" smooth="yes"/>
      <point x="924.7272727272727" y="405.27272727272725"/>
      <point x="1033.7272727272727" y="488.5454545454545"/>
      <point x="1084.9090909090908" y="582.0909090909091" type="curve"/>
      <point x="1022.2727272727273" y="664.2727272727273" type="line"/>
      <point x="974.090909090909" y="597.6363636363636"/>
      <point x="903.2727272727273" y="542.8181818181819"/>
      <point x="814.7272727272727" y="542.8181818181819" type="curve" smooth="yes"/>
      <point x="675.1818181818182" y="542.8181818181819"/>
      <point x="625.2727272727274" y="722.8181818181819"/>
      <point x="445.1818181818182" y="722.8181818181819" type="curve" smooth="yes"/>
      <point x="321.6363636363636" y="722.8181818181819"/>
      <point x="208.8181818181818" y="634.0909090909091"/>
    </contour>
  </outline>
</glyph>
<glyph name="exclamdown" format="2">
  <advance width="535.2727272727273"/>
  <unicode hex="00A1"/>
  <outline>
    <contour>
      <point x="83.27272727272727" y="-357.0" type="line"/>
      <point x="457.0909090909091" y="-357.0" type="line"/>
      <point x="325.5454545454545" y="930.5454545454546" type="line"/>
      <point x="213.8181818181818" y="930.5454545454546" type="line"/>
    </contour>
    <contour>
      <point x="283.27272727272725" y="1424.3636363636363" type="curve" smooth="yes"/>
      <point x="169.27272727272725" y="1424.3636363636363"/>
      <point x="90.9090909090909" y="1362.5454545454543"/>
      <point x="90.9090909090909" y="1253.909090909091" type="curve" smooth="yes"/>
      <point x="90.9090909090909" y="1173.3636363636363"/>
      <point x="149.54545454545456" y="1096.8181818181818"/>
      <point x="254.5454545454545" y="1096.8181818181818" type="curve" smooth="yes"/>
      <point x="358.18181818181813" y="1096.8181818181818"/>
      <point x="441.18181818181824" y="1165.9999999999998"/>
      <point x="441.18181818181824" y="1267.6363636363635" type="curve" smooth="yes"/>
      <point x="441.18181818181824" y="1359.9090909090908"/>
      <point x="365.45454545454544" y="1424.3636363636363"/>
    </contour>
  </outline>
</glyph>
<glyph name="cent" format="2">
  <advance width="1077.1818181818182"/>
  <unicode hex="00A2"/>
  <outline>
    <contour>
      <point x="110.45454545454547" y="509.8181818181818" type="curve" smooth="yes"/>
      <point x="111.18181818181819" y="228.18181818181822"/>
      <point x="237.0" y="20.818181818181813"/>
      <point x="506.6363636363636" y="-15.81818181818182" type="curve"/>
      <point x="483.45454545454544" y="-252.0" type="line"/>
      <point x="601.9090909090909" y="-252.0" type="line"/>
      <point x="624.0909090909091" y="-21.0" type="line"/>
      <point x="787.0909090909092" y="-10.454545454545453"/>
      <point x="939.1818181818182" y="74.72727272727272"/>
      <point x="986.7272727272726" y="129.8181818181818" type="curve"/>
      <point x="951.1818181818182" y="208.36363636363637" type="line"/>
      <point x="894.909090909091" y="167.18181818181822"/>
      <point x="803.090909090909" y="138.72727272727272"/>
      <point x="725.2727272727273" y="138.72727272727272" type="curve" smooth="yes"/>
      <point x="576.5454545454545" y="138.72727272727272"/>
      <point x="472.1818181818182" y="263.0909090909091"/>
      <point x="472.9090909090909" y="568.8181818181819" type="curve" smooth="yes"/>
      <point x="473.27272727272725" y="881.6363636363636"/>
      <point x="538.8181818181819" y="983.9090909090908"/>
      <point x="643.5454545454546" y="983.9090909090908" type="curve" smooth="yes"/>
      <point x="689.8181818181818" y="983.9090909090908"/>
      <point x="723.090909090909" y="946.4545454545455"/>
      <point x="736.5454545454546" y="889.4545454545455" type="curve" smooth="yes"/>
      <point x="782.1818181818181" y="689.0" type="line"/>
      <point x="968.5454545454546" y="689.0" type="line"/>
      <point x="981.9999999999999" y="1010.6363636363636" type="line"/>
      <point x="922.8181818181819" y="1017.2727272727273"/>
      <point x="852.6363636363636" y="1065.8181818181818"/>
      <point x="705.6363636363636" y="1075.9090909090908" type="curve"/>
      <point x="728.7272727272726" y="1328.0" type="line"/>
      <point x="614.0" y="1328.0" type="line"/>
      <point x="589.909090909091" y="1074.8181818181818" type="line"/>
      <point x="300.72727272727275" y="1050.8181818181818"/>
      <point x="110.81818181818181" y="836.7272727272727"/>
    </contour>
  </outline>
</glyph>
<glyph name="sterling" format="2">
  <advance width="1518.7272727272727"/>
  <unicode hex="00A3"/>
  <outline>
    <contour>
      <point x="949.3636363636364" y="-14.0" type="curve" smooth="yes"/>
      <point x="1217.3636363636363" y="-14.0"/>
      <point x="1442.4545454545455" y="139.45454545454544"/>
      <point x="1442.4545454545455" y="366.0" type="curve" smooth="yes"/>
      <point x="1442.4545454545455" y="445.0"/>
      <point x="1413.8181818181818" y="505.6363636363637"/>
      <point x="1385.4545454545453" y="533.0" type="curve"/>
      <point x="1054.090909090909" y="533.0" type="line"/>
      <point x="1091.181818181818" y="492.2727272727273"/>
      <point x="1119.8181818181818" y="411.81818181818187"/>
      <point x="1119.8181818181818" y="339.90909090909093" type="curve" smooth="yes"/>
      <point x="1119.8181818181818" y="176.0"/>
      <point x="1059.9090909090908" y="85.81818181818181"/>
      <point x="912.5454545454546" y="85.81818181818181" type="curve" smooth="yes"/>
      <point x="762.8181818181818" y="85.81818181818181"/>
      <point x="679.2727272727273" y="152.63636363636365"/>
      <point x="535.0" y="199.0" type="curve"/>
      <point x="623.8181818181818" y="280.18181818181824"/>
      <point x="671.3636363636364" y="384.6363636363636"/>
      <point x="671.3636363636364" y="595.090909090909" type="curve" smooth="yes"/>
      <point x="671.3636363636364" y="760.4545454545455" type="line"/>
      <point x="954.3636363636364" y="760.4545454545455" type="line"/>
      <point x="954.3636363636364" y="863.5454545454545" type="line"/>
      <point x="671.3636363636364" y="863.5454545454545" type="line"/>
      <point x="671.3636363636364" y="1128.2727272727273" type="line" smooth="yes"/>
      <point x="671.3636363636364" y="1340.2727272727273"/>
      <point x="738.3636363636364" y="1410.6363636363637"/>
      <point x="842.8181818181819" y="1410.6363636363637" type="curve" smooth="yes"/>
      <point x="961.8181818181819" y="1410.6363636363637"/>
      <point x="1090.5454545454543" y="1287.1818181818182"/>
      <point x="1136.4545454545453" y="1179.0" type="curve"/>
      <point x="1276.4545454545455" y="1378.9999999999998" type="line"/>
      <point x="1183.2727272727273" y="1452.0909090909092"/>
      <point x="1036.7272727272727" y="1505.0"/>
      <point x="869.8181818181818" y="1505.0" type="curve" smooth="yes"/>
      <point x="568.4545454545455" y="1505.0"/>
      <point x="324.8181818181818" y="1304.0"/>
      <point x="324.8181818181818" y="999.0" type="curve" smooth="yes"/>
      <point x="324.8181818181818" y="863.5454545454545" type="line"/>
      <point x="144.63636363636365" y="863.5454545454545" type="line"/>
      <point x="144.63636363636365" y="760.4545454545455" type="line"/>
      <point x="324.8181818181818" y="760.4545454545455" type="line"/>
      <point x="324.8181818181818" y="389.4545454545455" type="line" smooth="yes"/>
      <point x="324.8181818181818" y="308.7272727272727"/>
      <point x="315.1818181818182" y="264.27272727272725"/>
      <point x="300.0" y="241.45454545454547" type="curve"/>
      <point x="206.5454545454545" y="235.45454545454547"/>
      <point x="70.72727272727272" y="180.54545454545453"/>
      <point x="70.72727272727272" y="92.54545454545455" type="curve" smooth="yes"/>
      <point x="70.72727272727272" y="33.27272727272727"/>
      <point x="120.36363636363636" y="0.0"/>
      <point x="191.45454545454544" y="0.0" type="curve" smooth="yes"/>
      <point x="275.0" y="0.0"/>
      <point x="335.2727272727273" y="29.81818181818182"/>
      <point x="409.54545454545456" y="100.18181818181819" type="curve"/>
      <point x="530.3636363636363" y="98.72727272727273"/>
      <point x="681.7272727272727" y="-14.0"/>
    </contour>
  </outline>
</glyph>
<glyph name="currency" format="2">
  <advance width="1462.0"/>
  <unicode hex="00A4"/>
  <outline>
    <contour>
      <point x="388.8181818181818" y="467.45454545454544" type="curve"/>
      <point x="169.81818181818184" y="249.45454545454544" type="line"/>
      <point x="250.2727272727273" y="167.0" type="line"/>
      <point x="473.2727272727273" y="392.0" type="line"/>
      <point x="545.7272727272727" y="336.3636363636364"/>
      <point x="635.9090909090909" y="307.0"/>
      <point x="729.2727272727273" y="307.0" type="curve" smooth="yes"/>
      <point x="816.8181818181818" y="307.0"/>
      <point x="903.5454545454545" y="334.6363636363636"/>
      <point x="975.090909090909" y="387.8181818181818" type="curve"/>
      <point x="1200.0909090909088" y="160.8181818181818" type="line"/>
      <point x="1297.0909090909088" y="259.8181818181818" type="line"/>
      <point x="1074.090909090909" y="479.8181818181818" type="line"/>
      <point x="1140.4545454545455" y="564.0909090909091"/>
      <point x="1177.2727272727273" y="663.7272727272727"/>
      <point x="1177.2727272727273" y="765.0" type="curve" smooth="yes"/>
      <point x="1177.2727272727273" y="865.4545454545455"/>
      <point x="1141.8181818181818" y="961.6363636363636"/>
      <point x="1074.9999999999998" y="1041.2727272727273" type="curve"/>
      <point x="1295.9999999999998" y="1259.2727272727273" type="line"/>
      <point x="1213.6363636363635" y="1341.6363636363637" type="line"/>
      <point x="986.6363636363635" y="1118.6363636363637" type="line"/>
      <point x="909.3636363636364" y="1174.2727272727273"/>
      <point x="820.090909090909" y="1203.0"/>
      <point x="729.2727272727273" y="1203.0" type="curve" smooth="yes"/>
      <point x="639.7272727272726" y="1203.0"/>
      <point x="555.2727272727273" y="1176.090909090909"/>
      <point x="485.45454545454544" y="1124.1818181818182" type="curve"/>
      <point x="258.45454545454544" y="1351.1818181818182" type="line"/>
      <point x="163.45454545454547" y="1252.1818181818182" type="line"/>
      <point x="386.4545454545455" y="1029.1818181818182" type="line"/>
      <point x="321.7272727272728" y="947.8181818181819"/>
      <point x="287.2727272727273" y="847.4545454545455"/>
      <point x="287.2727272727273" y="745.0" type="curve" smooth="yes"/>
      <point x="287.2727272727273" y="645.4545454545455"/>
      <point x="321.6363636363636" y="548.2727272727273"/>
    </contour>
    <contour>
      <point x="728.3636363636363" y="534.0" type="curve" smooth="yes"/>
      <point x="618.3636363636364" y="534.0"/>
      <point x="523.3636363636364" y="631.0"/>
      <point x="523.3636363636364" y="749.0" type="curve" smooth="yes"/>
      <point x="523.3636363636364" y="868.0"/>
      <point x="594.3636363636363" y="976.0"/>
      <point x="724.3636363636363" y="976.0" type="curve" smooth="yes"/>
      <point x="832.3636363636364" y="976.0"/>
      <point x="933.3636363636364" y="885.0"/>
      <point x="933.3636363636364" y="751.0" type="curve" smooth="yes"/>
      <point x="933.3636363636364" y="633.0"/>
      <point x="866.3636363636364" y="534.0"/>
    </contour>
  </outline>
</glyph>
<glyph name="yen" format="2">
  <advance width="1595.2727272727273"/>
  <unicode hex="00A5"/>
  <outline>
    <contour>
      <point x="577.0909090909092" y="774.6363636363636" type="line"/>
      <point x="210.9090909090909" y="774.6363636363636" type="line"/>
      <point x="210.9090909090909" y="687.4545454545455" type="line"/>
      <point x="631.5454545454545" y="687.4545454545455" type="line"/>
      <point x="631.5454545454545" y="456.1818181818182" type="line"/>
      <point x="210.9090909090909" y="456.1818181818182" type="line"/>
      <point x="210.9090909090909" y="369.0" type="line"/>
      <point x="631.5454545454545" y="369.0" type="line"/>
      <point x="631.5454545454545" y="98.45454545454547" type="line"/>
      <point x="439.90909090909093" y="69.36363636363637" type="line"/>
      <point x="439.90909090909093" y="0.0" type="line"/>
      <point x="1197.909090909091" y="0.0" type="line"/>
      <point x="1197.909090909091" y="69.36363636363637" type="line"/>
      <point x="989.2727272727273" y="98.45454545454547" type="line"/>
      <point x="989.2727272727273" y="369.0" type="line"/>
      <point x="1414.9090909090908" y="369.0" type="line"/>
      <point x="1414.9090909090908" y="456.1818181818182" type="line"/>
      <point x="989.2727272727273" y="456.1818181818182" type="line"/>
      <point x="989.2727272727273" y="687.4545454545455" type="line"/>
      <point x="1414.9090909090908" y="687.4545454545455" type="line"/>
      <point x="1414.9090909090908" y="774.6363636363636" type="line"/>
      <point x="1011.6363636363635" y="774.6363636363636" type="line"/>
      <point x="1338.0909090909092" y="1379.3636363636363" type="line"/>
      <point x="1510.0000000000002" y="1415.3636363636363" type="line"/>
      <point x="1510.0000000000002" y="1486.0" type="line"/>
      <point x="993.090909090909" y="1486.0" type="line"/>
      <point x="993.090909090909" y="1415.3636363636363" type="line"/>
      <point x="1199.5454545454545" y="1377.9090909090908" type="line"/>
      <point x="962.2727272727274" y="894.6363636363636" type="line"/>
      <point x="903.1818181818182" y="774.6363636363636" type="line"/>
      <point x="844.818181818182" y="894.6363636363636" type="line"/>
      <point x="614.8181818181819" y="1380.4545454545455" type="line"/>
      <point x="770.4545454545455" y="1415.3636363636363" type="line"/>
      <point x="770.4545454545455" y="1486.0" type="line"/>
      <point x="103.45454545454545" y="1486.0" type="line"/>
      <point x="103.45454545454545" y="1415.3636363636363" type="line"/>
      <point x="210.7272727272727" y="1379.3636363636363" type="line"/>
    </contour>
  </outline>
</glyph>
<glyph name="section" format="2">
  <advance width="1398.4545454545457"/>
  <unicode hex="00A7"/>
  <outline>
    <contour>
      <point x="405.27272727272725" y="219.0" type="line"/>
      <point x="208.63636363636363" y="219.0" type="line"/>
      <point x="189.6363636363636" y="-106.0" type="line"/>
      <point x="255.8181818181818" y="-112.0"/>
      <point x="443.1818181818182" y="-198.0"/>
      <point x="688.2727272727274" y="-198.0" type="curve" smooth="yes"/>
      <point x="1048.3636363636365" y="-198.0"/>
      <point x="1195.1818181818182" y="-20.636363636363637"/>
      <point x="1195.1818181818182" y="153.45454545454547" type="curve" smooth="yes"/>
      <point x="1195.1818181818182" y="245.63636363636365"/>
      <point x="1155.3636363636363" y="319.0"/>
      <point x="1089.181818181818" y="380.90909090909093" type="curve"/>
      <point x="1171.7272727272727" y="447.1818181818182"/>
      <point x="1240.4545454545455" y="578.6363636363636"/>
      <point x="1240.4545454545455" y="725.3636363636364" type="curve" smooth="yes"/>
      <point x="1240.4545454545455" y="1007.7272727272729"/>
      <point x="932.9090909090909" y="1092.272727272727"/>
      <point x="767.7272727272729" y="1167.1818181818182" type="curve" smooth="yes"/>
      <point x="615.5454545454546" y="1234.8181818181818"/>
      <point x="505.6363636363636" y="1283.7272727272727"/>
      <point x="505.6363636363636" y="1399.0" type="curve" smooth="yes"/>
      <point x="505.6363636363636" y="1495.636363636364"/>
      <point x="585.0" y="1555.4545454545455"/>
      <point x="712.9090909090909" y="1555.4545454545455" type="curve" smooth="yes"/>
      <point x="805.5454545454546" y="1555.4545454545455"/>
      <point x="883.6363636363636" y="1522.1818181818182"/>
      <point x="892.4545454545455" y="1496.4545454545455" type="curve"/>
      <point x="952.9090909090909" y="1269.0" type="line"/>
      <point x="1127.909090909091" y="1269.0" type="line"/>
      <point x="1139.909090909091" y="1572.0" type="line"/>
      <point x="1076.090909090909" y="1582.0"/>
      <point x="914.3636363636364" y="1645.0"/>
      <point x="717.8181818181819" y="1645.0" type="curve" smooth="yes"/>
      <point x="430.3636363636364" y="1645.0"/>
      <point x="220.2727272727273" y="1514.1818181818182"/>
      <point x="220.2727272727273" y="1309.7272727272727" type="curve" smooth="yes"/>
      <point x="220.2727272727273" y="1208.9090909090908"/>
      <point x="266.1818181818182" y="1128.7272727272727"/>
      <point x="327.99999999999994" y="1069.8181818181818" type="curve"/>
      <point x="228.63636363636365" y="998.1818181818181"/>
      <point x="173.0" y="888.0909090909091"/>
      <point x="173.0" y="761.090909090909" type="curve" smooth="yes"/>
      <point x="173.0" y="531.8181818181819"/>
      <point x="327.0" y="412.2727272727273"/>
      <point x="584.9090909090909" y="296.45454545454544" type="curve" smooth="yes"/>
      <point x="757.6363636363636" y="220.27272727272725"/>
      <point x="911.8181818181819" y="167.0"/>
      <point x="911.8181818181819" y="47.09090909090909" type="curve" smooth="yes"/>
      <point x="911.8181818181819" y="-48.63636363636363"/>
      <point x="822.4545454545455" y="-111.9090909090909"/>
      <point x="681.2727272727274" y="-111.9090909090909" type="curve" smooth="yes"/>
      <point x="575.090909090909" y="-111.9090909090909"/>
      <point x="474.18181818181813" y="-72.0"/>
      <point x="450.7272727272727" y="-31.909090909090907" type="curve"/>
    </contour>
    <contour>
      <point x="752.6363636363636" y="573.7272727272727" type="curve" smooth="yes"/>
      <point x="532.4545454545455" y="675.3636363636363"/>
      <point x="377.09090909090907" y="761.0909090909091"/>
      <point x="377.09090909090907" y="896.0909090909092" type="curve" smooth="yes"/>
      <point x="377.09090909090907" y="936.0"/>
      <point x="388.2727272727273" y="973.3636363636364"/>
      <point x="412.6363636363636" y="1003.5454545454546" type="curve"/>
      <point x="488.99999999999994" y="952.8181818181819"/>
      <point x="580.4545454545454" y="912.6363636363636"/>
      <point x="664.0909090909091" y="874.6363636363636" type="curve" smooth="yes"/>
      <point x="874.090909090909" y="775.8181818181819"/>
      <point x="1021.3636363636364" y="703.0909090909091"/>
      <point x="1021.3636363636364" y="560.3636363636364" type="curve" smooth="yes"/>
      <point x="1021.3636363636364" y="521.3636363636364"/>
      <point x="1010.5454545454546" y="485.27272727272725"/>
      <point x="988.909090909091" y="454.8181818181818" type="curve"/>
      <point x="919.4545454545455" y="497.2727272727273"/>
      <point x="867.0909090909091" y="520.4545454545455"/>
    </contour>
  </outline>
</glyph>
